<svg width="721" height="608" viewBox="0 0 721 608" fill="none" xmlns="http://www.w3.org/2000/svg">
<g opacity="0.6">
<path d="M499.768 520.091C379.831 616.003 203.533 606.928 96.2238 496.77C139.578 537.112 211.463 566.609 250.618 533.596C321.172 474.11 338.505 557.859 383.315 554.551C428.124 551.243 470.427 496.375 493.195 513.344C495.04 514.719 498.613 518.45 499.768 520.091Z" fill="#F0F7F6"/>
<path d="M497.798 551.047C362.677 682.534 148.567 681.775 19.5702 549.354C-109.427 416.932 -104.463 202.992 30.6578 71.505C129.194 -24.381 269.737 -49.9393 388.645 -5.39546C291.52 -28.6809 183.965 -2.48439 106.049 73.3357C-13.6852 189.849 -18.084 379.427 96.2238 496.77C203.533 606.928 379.831 616.003 499.768 520.091C510.487 535.33 502.423 546.257 497.798 551.047Z" fill="#F0F7F6"/>
<path fill-rule="evenodd" clip-rule="evenodd" d="M427.396 525.563C429.872 519.979 431.267 514.087 427.473 508.322C418.747 495.062 408.202 499.639 395.216 505.275C382.104 510.966 366.503 517.737 347.773 508.322C330.967 499.874 328.073 485.038 325.544 472.078C323.497 461.585 321.69 452.323 312.934 448.676C288.767 438.612 275.324 449.766 255.719 466.034C239.243 479.704 218.416 496.986 183.214 508.322C168.256 513.138 153.218 511.988 138.677 506.796C179.312 531.155 227.865 542.094 257.575 517.045C302.055 479.542 325.382 498.971 347.777 517.623C360.905 528.556 373.712 539.223 390.271 538C402.977 537.062 415.481 531.979 427.396 525.563ZM433.854 587.825C420.091 595.644 405.921 602.439 391.456 608.209C404.96 609.812 419.886 600.865 433.854 587.825Z" fill="#F0F7F6"/>
</g>
</svg>
