<svg width="105" height="19" viewBox="0 0 105 19" fill="none" xmlns="http://www.w3.org/2000/svg">
<path d="M3.9 6.075H9.875C9.84167 5.30833 9.56667 4.66667 9.05 4.15C8.55 3.63333 7.825 3.375 6.875 3.375C6.00833 3.375 5.30833 3.65 4.775 4.2C4.24167 4.73333 3.95 5.35833 3.9 6.075ZM10.2 9.25L12.65 10.025C12.3 11.1417 11.6417 12.0667 10.675 12.8C9.725 13.5167 8.55 13.875 7.15 13.875C5.41667 13.875 3.94167 13.2833 2.725 12.1C1.525 10.9167 0.925 9.33333 0.925 7.35C0.925 5.48333 1.50833 3.95 2.675 2.75C3.85833 1.55 5.25 0.949999 6.85 0.949999C8.71667 0.949999 10.175 1.525 11.225 2.675C12.275 3.80833 12.8 5.34167 12.8 7.275C12.8 7.79167 12.775 8.1 12.725 8.2H3.825C3.85833 9.11667 4.19167 9.875 4.825 10.475C5.475 11.075 6.25 11.375 7.15 11.375C8.71667 11.375 9.73333 10.6667 10.2 9.25ZM25.8271 1.325L21.0521 13.5H18.1521L13.2021 1.325H16.4021L19.6271 10.025L22.7771 1.325H25.8271ZM29.1207 6.075H35.0957C35.0624 5.30833 34.7874 4.66667 34.2707 4.15C33.7707 3.63333 33.0457 3.375 32.0957 3.375C31.229 3.375 30.529 3.65 29.9957 4.2C29.4624 4.73333 29.1707 5.35833 29.1207 6.075ZM35.4207 9.25L37.8707 10.025C37.5207 11.1417 36.8624 12.0667 35.8957 12.8C34.9457 13.5167 33.7707 13.875 32.3707 13.875C30.6374 13.875 29.1624 13.2833 27.9457 12.1C26.7457 10.9167 26.1457 9.33333 26.1457 7.35C26.1457 5.48333 26.729 3.95 27.8957 2.75C29.079 1.55 30.4707 0.949999 32.0707 0.949999C33.9374 0.949999 35.3957 1.525 36.4457 2.675C37.4957 3.80833 38.0207 5.34167 38.0207 7.275C38.0207 7.79167 37.9957 8.1 37.9457 8.2H29.0457C29.079 9.11667 29.4124 9.875 30.0457 10.475C30.6957 11.075 31.4707 11.375 32.3707 11.375C33.9374 11.375 34.954 10.6667 35.4207 9.25ZM47.417 1.25V4.2C47.0837 4.15 46.767 4.125 46.467 4.125C44.2837 4.125 43.192 5.31667 43.192 7.7V13.5H40.292V1.325H43.117V3.275C43.4003 2.625 43.8587 2.11667 44.492 1.75C45.1253 1.36667 45.842 1.175 46.642 1.175C46.9087 1.175 47.167 1.2 47.417 1.25ZM48.3408 14.175L51.0158 13.475C51.1158 14.2417 51.4408 14.8667 51.9908 15.35C52.5575 15.85 53.2492 16.1 54.0658 16.1C56.3658 16.1 57.5158 14.8833 57.5158 12.45V11.175C57.2325 11.6917 56.7825 12.1167 56.1658 12.45C55.5492 12.7833 54.8242 12.95 53.9908 12.95C52.3575 12.95 51.0075 12.3917 49.9408 11.275C48.8908 10.1583 48.3658 8.74167 48.3658 7.025C48.3658 5.375 48.8908 3.975 49.9408 2.825C50.9908 1.675 52.3408 1.1 53.9908 1.1C55.7742 1.1 56.9742 1.69167 57.5908 2.875V1.325H60.3908V12.35C60.3908 14.15 59.8825 15.6417 58.8658 16.825C57.8492 18.025 56.2742 18.625 54.1408 18.625C52.5742 18.625 51.2575 18.2 50.1908 17.35C49.1242 16.5 48.5075 15.4417 48.3408 14.175ZM54.4658 10.475C55.3992 10.475 56.1492 10.1667 56.7158 9.55C57.2992 8.91667 57.5908 8.075 57.5908 7.025C57.5908 5.99167 57.2992 5.16667 56.7158 4.55C56.1325 3.91667 55.3825 3.6 54.4658 3.6C53.5325 3.6 52.7658 3.91667 52.1658 4.55C51.5825 5.16667 51.2908 5.99167 51.2908 7.025C51.2908 8.075 51.5825 8.91667 52.1658 9.55C52.7492 10.1667 53.5158 10.475 54.4658 10.475ZM70.5625 1.25V4.2C70.2292 4.15 69.9125 4.125 69.6125 4.125C67.4292 4.125 66.3375 5.31667 66.3375 7.7V13.5H63.4375V1.325H66.2625V3.275C66.5458 2.625 67.0042 2.11667 67.6375 1.75C68.2708 1.36667 68.9875 1.175 69.7875 1.175C70.0542 1.175 70.3125 1.2 70.5625 1.25ZM75.2863 10.25C75.953 10.9333 76.7613 11.275 77.7113 11.275C78.6613 11.275 79.4613 10.9333 80.1113 10.25C80.778 9.56667 81.1113 8.61667 81.1113 7.4C81.1113 6.2 80.778 5.26667 80.1113 4.6C79.4613 3.91667 78.6613 3.575 77.7113 3.575C76.7613 3.575 75.953 3.91667 75.2863 4.6C74.6363 5.26667 74.3113 6.2 74.3113 7.4C74.3113 8.6 74.6363 9.55 75.2863 10.25ZM77.7113 0.949999C79.5447 0.949999 81.053 1.55833 82.2363 2.775C83.4363 3.99167 84.0363 5.53333 84.0363 7.4C84.0363 9.26667 83.4363 10.8167 82.2363 12.05C81.053 13.2667 79.5447 13.875 77.7113 13.875C75.8947 13.875 74.3863 13.2667 73.1863 12.05C72.003 10.8167 71.4113 9.26667 71.4113 7.4C71.4113 5.53333 72.003 3.99167 73.1863 2.775C74.3863 1.55833 75.8947 0.949999 77.7113 0.949999ZM92.9459 1.325H95.9459L98.8209 9.75L101.246 1.325H104.196L100.296 13.5H97.3959L94.3709 4.75L91.4209 13.5H88.4459L84.4959 1.325H87.5959L90.0709 9.75L92.9459 1.325Z" fill="#02191B"/>
</svg>
