<svg width="100" height="57" viewBox="0 0 100 57" fill="none" xmlns="http://www.w3.org/2000/svg">
<path opacity="0.7" fill-rule="evenodd" clip-rule="evenodd" d="M0.424561 28.5V56.3159H49.875H99.3255V28.5V0.684082H49.875H0.424561V28.5ZM18.0799 23.2759C18.9393 23.4071 19.6069 23.6281 20.3556 24.0295C20.8951 24.3186 21.8264 25.0023 21.8271 25.1098C21.8274 25.1528 20.8371 26.4231 20.665 26.6006C20.6238 26.6429 20.4471 26.5322 20.2255 26.3246C19.4543 25.6033 18.4687 25.1868 17.3846 25.124C16.0772 25.0483 14.9734 25.464 14.0619 26.3751C12.957 27.4796 12.5532 28.9513 12.94 30.4636C13.1416 31.2519 13.4176 31.7462 14.0047 32.3711C15.1403 33.5795 16.9171 34.0182 18.5496 33.493C19.1724 33.2925 19.9715 32.8393 20.3841 32.4519L20.602 32.2473L21.1011 32.7883C21.3756 33.0857 21.6586 33.4125 21.7301 33.5144C21.8574 33.6957 21.8538 33.7051 21.5541 33.9649C20.6841 34.719 19.4305 35.3477 18.3307 35.5813C17.5499 35.7473 15.9741 35.6848 15.1855 35.4565C13.3497 34.9256 11.7781 33.5266 11.0966 31.8166C9.7359 28.4032 11.444 24.7152 14.9211 23.5589C16.0452 23.1852 16.9529 23.1038 18.0799 23.2759ZM85.9541 23.366C87.0451 23.6143 88.1528 24.1668 88.8445 24.8077L89.2017 25.1388L88.7301 25.7184C88.4711 26.0372 88.1935 26.3807 88.1133 26.4819L87.968 26.6657L87.639 26.3652C85.7711 24.6567 82.95 24.704 81.3143 26.4715C79.5923 28.3325 79.8303 31.2916 81.825 32.8061C82.6576 33.4384 83.4809 33.7078 84.5677 33.7033C85.6023 33.6992 86.6761 33.3031 87.5711 32.5955L87.9791 32.273L88.3871 32.7237C88.9032 33.2942 89.2037 33.6511 89.2037 33.6938C89.2037 33.7986 88.125 34.5755 87.5723 34.8685C86.474 35.4516 85.8496 35.6212 84.645 35.6635C83.455 35.7054 82.8603 35.611 81.9041 35.228C77.4511 33.4449 76.5969 27.4216 80.3891 24.5456C81.9405 23.3687 84.0242 22.9271 85.9541 23.366ZM43.3074 24.2116V25.1776H41.3758H39.4441V30.3929V35.6085H38.3623H37.2807V30.3943V25.18L35.3297 25.1596L33.3787 25.1388L33.3569 24.1923L33.3352 23.2459H38.3213H43.3074V24.2116ZM58.5445 28.2341L60.4376 33.2225L62.0453 29.0261C62.9293 26.7181 63.7904 24.4734 63.9579 24.0379L64.2626 23.2459H65.3735H66.4848L66.3506 23.5836C66.2771 23.7694 65.1564 26.551 63.8603 29.7648L61.5036 35.6081L60.3844 35.589L59.2653 35.5699L56.8924 29.6204C55.5871 26.3481 54.4843 23.5752 54.4418 23.4583L54.3645 23.2459H55.5079H56.6514L58.5445 28.2341Z" fill="#02191B"/>
</svg>
