<svg width="121" height="25" viewBox="0 0 121 25" fill="none" xmlns="http://www.w3.org/2000/svg">
<g clip-path="url(#clip0_1913_66625)">
<path d="M5.03826 3.04501V10.655H13.2683V13.335H5.03826V24.335H0.468262V0.325012H14.2483V3.04501H5.03826Z" fill="black"/>
<path d="M16.1282 24.325V5.52502H20.5182V24.325H16.1282Z" fill="black"/>
<path d="M35.6483 24.325V10.895C35.6483 8.48499 33.4183 7.57499 30.9083 7.57499C29.7062 7.58407 28.5137 7.79014 27.3783 8.18499V24.325H23.0183V6.39499C25.6256 5.46063 28.3789 5.00005 31.1483 5.03499C36.4883 5.03499 40.0483 6.70499 40.0483 10.825V24.325H35.6483Z" fill="black"/>
<path d="M46.1582 16.375C46.5782 20.105 48.8182 21.985 52.5782 21.985C54.5514 22.0169 56.5106 21.6495 58.3382 20.905L59.3882 23.455C57.113 24.4059 54.6636 24.8692 52.1982 24.815C45.9582 24.815 41.9382 21.325 41.9382 14.875C41.9382 8.66497 45.6782 5.03497 51.3282 5.03497C56.9782 5.03497 60.1482 8.34497 60.1482 14.665L46.1582 16.375ZM51.1582 7.47497C48.1582 7.47497 45.7882 9.67497 45.8982 14.345L55.8982 13.055C55.9282 9.18497 54.0482 7.47497 51.1482 7.47497H51.1582Z" fill="#57C7FF"/>
<path d="M74.4682 24.325L69.7182 17.185H69.6482L64.8282 24.335H60.1882L67.5182 14.535L60.9582 5.53497H65.7382L70.0282 11.915H70.0982L74.5282 5.53497H78.8182L72.1182 14.325L79.5182 24.325H74.4682Z" fill="#57C7FF"/>
<path d="M88.2283 24.745C83.9383 24.745 82.2983 22.195 82.2983 19.645V7.965H79.4683V5.525H82.3283V1.305L86.6583 0.184998V5.525H90.6583V7.965H86.6583V19.445C86.6428 19.8093 86.7065 20.1726 86.8451 20.5099C86.9837 20.8471 87.1938 21.1503 87.461 21.3984C87.7282 21.6466 88.046 21.8338 88.3925 21.9471C88.7391 22.0605 89.1061 22.0973 89.4683 22.055C89.8704 22.0476 90.2701 21.9905 90.6583 21.885V24.355C89.8796 24.6353 89.0555 24.7676 88.2283 24.745Z" fill="#57C7FF"/>
<path d="M102.928 7.99498C101.131 7.50209 99.2266 7.56837 97.4682 8.18498V24.325H93.1282V6.39498C95.8913 5.36663 98.8328 4.90414 101.778 5.03498C102.518 5.03498 103.418 5.10498 103.878 5.13498L102.928 7.99498Z" fill="#57C7FF"/>
<path d="M112.308 24.815C106.308 24.815 103.488 22.615 103.488 19.025C103.488 13.965 109.238 12.605 116.078 12.025V10.965C116.078 8.38497 114.158 7.61497 111.368 7.61497C109.468 7.63458 107.587 8.00057 105.818 8.69497L104.818 6.39497C107.169 5.50034 109.663 5.03955 112.178 5.03497C116.718 5.03497 120.178 6.74497 120.178 11.555V23.455C117.674 24.4368 114.997 24.8995 112.308 24.815ZM116.078 13.925C111.018 14.415 107.638 15.285 107.638 18.925C107.638 21.475 109.638 22.555 112.638 22.555C113.809 22.5789 114.973 22.3646 116.058 21.925L116.078 13.925Z" fill="#57C7FF"/>
<path d="M16.1282 3.02501V0.325012H20.5182V3.02501H16.1282Z" fill="black"/>
</g>
<defs>
<clipPath id="clip0_1913_66625">
<rect width="119.73" height="24.63" fill="white" transform="translate(0.468262 0.184998)"/>
</clipPath>
</defs>
</svg>
