<svg width="80" height="80" viewBox="0 0 80 80" fill="none" xmlns="http://www.w3.org/2000/svg">
<path d="M72.1504 45.5296C72.151 40.7537 71.0826 36.0383 69.0235 31.7291C66.9645 27.4199 63.967 23.6262 60.2509 20.6263C56.5347 17.6264 52.1943 15.4963 47.5478 14.3923C42.9012 13.2882 38.0665 13.2383 33.3982 14.246C28.7298 15.2537 24.3463 17.2936 20.5689 20.2161C16.7916 23.1386 13.7163 26.8694 11.5686 31.1352C9.42092 35.4009 8.25526 40.0932 8.15715 44.8681C8.05903 49.643 9.03094 54.3792 11.0016 58.7296H69.2992C71.1815 54.5837 72.1537 50.0827 72.1504 45.5296Z" fill="#E6F0ED"/>
<path d="M8.94824 58.7296H71.3482" stroke="#2A4547" stroke-linecap="round" stroke-linejoin="round"/>
<path d="M5.34766 58.7296H7.34766" stroke="#2A4547" stroke-linecap="round" stroke-linejoin="round"/>
<path d="M72.9482 58.7296H74.9482" stroke="#2A4547" stroke-linecap="round" stroke-linejoin="round"/>
<path d="M49.6381 11.6049H29.7805C28.5074 11.6049 27.2865 12.1106 26.3864 13.0107C25.4862 13.9109 24.9805 15.1318 24.9805 16.4049V26.3337H54.4381V16.4049C54.4381 15.1318 53.9324 13.9109 53.0322 13.0107C52.132 12.1106 50.9111 11.6049 49.6381 11.6049Z" fill="white"/>
<path d="M49.6381 11.6049H29.7805C28.5074 11.6049 27.2865 12.1106 26.3864 13.0107C25.4862 13.9109 24.9805 15.1318 24.9805 16.4049V26.3337H54.4381V16.4049C54.4381 15.1318 53.9324 13.9109 53.0322 13.0107C52.132 12.1106 50.9111 11.6049 49.6381 11.6049Z" stroke="#2A4547" stroke-linecap="round" stroke-linejoin="round"/>
<path d="M19.3701 52.2841H60.0485V67.7137H19.3701V52.2841Z" fill="white"/>
<path d="M19.3701 52.2841H60.0485V67.7137H19.3701V52.2841Z" stroke="#2A4547" stroke-linecap="round" stroke-linejoin="round"/>
<path d="M18.6699 49.4784H60.7507V52.284H18.6699V49.4784Z" fill="white" stroke="#2A4547" stroke-linecap="round" stroke-linejoin="round"/>
<path d="M28.4883 20.0216H50.9315V42.8152H28.4883V20.0216Z" fill="white"/>
<path d="M28.4883 20.0216H50.9315V42.8152H28.4883V20.0216Z" stroke="#2A4547" stroke-linecap="round" stroke-linejoin="round"/>
<path d="M49.5292 12.3064C49.5058 9.71762 48.4611 7.24284 46.6222 5.42052C44.7834 3.5982 42.2993 2.57581 39.7104 2.57581C37.1215 2.57581 34.6374 3.5982 32.7986 5.42052C30.9597 7.24284 29.915 9.71762 29.8916 12.3064V20.0216H49.5292V12.3064Z" fill="white"/>
<path d="M49.5292 12.3064C49.5058 9.71762 48.4611 7.24284 46.6222 5.42052C44.7834 3.5982 42.2993 2.57581 39.7104 2.57581C37.1215 2.57581 34.6374 3.5982 32.7986 5.42052C30.9597 7.24284 29.915 9.71762 29.8916 12.3064V20.0216H49.5292V12.3064Z" stroke="#2A4547" stroke-linecap="round" stroke-linejoin="round"/>
<path d="M51.6335 17.2159H27.7871V19.2215C27.7871 19.4337 27.8714 19.6372 28.0214 19.7872C28.1715 19.9373 28.3749 20.0215 28.5871 20.0215H50.8335C51.0457 20.0215 51.2492 19.9373 51.3992 19.7872C51.5492 19.6372 51.6335 19.4337 51.6335 19.2215V17.2159Z" fill="white" stroke="#2A4547" stroke-linecap="round" stroke-linejoin="round"/>
<path d="M50.9311 26.3336C50.7451 26.3338 50.5669 26.4078 50.4355 26.5394C50.3041 26.6709 50.2303 26.8493 50.2303 27.0352V42.8152H29.1903V27.04C29.1904 26.9478 29.1723 26.8565 29.1371 26.7713C29.1019 26.6861 29.0502 26.6086 28.9851 26.5434C28.9199 26.4782 28.8425 26.4264 28.7574 26.3911C28.6722 26.3558 28.5809 26.3376 28.4887 26.3376H25.2151C24.5962 26.3383 24.0029 26.5843 23.5651 27.0217C23.1274 27.4592 22.8809 28.0524 22.8799 28.6712V49.4784H56.5439V28.6712C56.5439 28.0512 56.2976 27.4567 55.8592 27.0183C55.4208 26.5799 54.8263 26.3336 54.2063 26.3336H50.9311Z" fill="#22A595"/>
<path d="M50.9311 26.3336C50.7451 26.3338 50.5669 26.4078 50.4355 26.5394C50.3041 26.6709 50.2303 26.8493 50.2303 27.0352V42.8152H29.1903V27.04C29.1904 26.9478 29.1723 26.8565 29.1371 26.7713C29.1019 26.6861 29.0502 26.6086 28.9851 26.5434C28.9199 26.4782 28.8425 26.4264 28.7574 26.3911C28.6722 26.3558 28.5809 26.3376 28.4887 26.3376H25.2151C24.5962 26.3383 24.0029 26.5843 23.5651 27.0217C23.1274 27.4592 22.8809 28.0524 22.8799 28.6712V49.4784H56.5439V28.6712C56.544 28.3642 56.4836 28.0602 56.3662 27.7765C56.2487 27.4929 56.0765 27.2351 55.8595 27.0181C55.6424 26.801 55.3846 26.6288 55.101 26.5113C54.8173 26.3939 54.5133 26.3335 54.2063 26.3336H50.9311Z" stroke="#2A4547" stroke-linecap="round" stroke-linejoin="round"/>
<path d="M29.1895 29.1392H26.2679C26.1911 29.1391 26.1151 29.1541 26.0441 29.1834C25.9732 29.2127 25.9087 29.2557 25.8544 29.31C25.8001 29.3642 25.757 29.4286 25.7276 29.4995C25.6982 29.5705 25.6831 29.6465 25.6831 29.7232V49.4784H22.8799V28.6712C22.8799 28.0512 23.1262 27.4567 23.5645 27.0183C24.0029 26.5799 24.5975 26.3336 25.2175 26.3336H28.4879C28.5801 26.3336 28.6714 26.3518 28.7566 26.3871C28.8417 26.4224 28.9191 26.4742 28.9843 26.5394C29.0494 26.6046 29.1011 26.6821 29.1363 26.7673C29.1715 26.8525 29.1896 26.9438 29.1895 27.036V29.1392Z" fill="white" stroke="#2A4547" stroke-linecap="round" stroke-linejoin="round"/>
<path d="M50.2305 29.1392H53.1529C53.3078 29.1392 53.4565 29.2007 53.5661 29.3102C53.6758 29.4197 53.7375 29.5683 53.7377 29.7232V49.4784H56.5417V28.6712C56.5417 28.0512 56.2954 27.4567 55.857 27.0183C55.4186 26.5799 54.824 26.3336 54.2041 26.3336H50.9313C50.7454 26.3336 50.5672 26.4075 50.4357 26.5389C50.3043 26.6703 50.2305 26.8486 50.2305 27.0344V29.1392Z" fill="white" stroke="#2A4547" stroke-linecap="round" stroke-linejoin="round"/>
<path d="M25.6836 45.9712H53.738V49.4776H25.6836V45.9712Z" fill="#22A595" stroke="#2A4547" stroke-linecap="round" stroke-linejoin="round"/>
<path d="M29.1895 34.0488H50.2303V37.5552H29.1895V34.0488Z" fill="#22A595" stroke="#2A4547" stroke-linecap="round" stroke-linejoin="round"/>
<path d="M46.0215 17.216H33.3975V12.3064C33.3975 10.6323 34.0625 9.02686 35.2462 7.84313C36.4299 6.6594 38.0354 5.99438 39.7095 5.99438C41.3835 5.99438 42.989 6.6594 44.1727 7.84313C45.3564 9.02686 46.0215 10.6323 46.0215 12.3064V17.216Z" fill="#22A595"/>
<path d="M46.0215 17.216H33.3975V12.3064C33.3975 10.6323 34.0625 9.02686 35.2462 7.84313C36.4299 6.6594 38.0354 5.99438 39.7095 5.99438C41.3835 5.99438 42.989 6.6594 44.1727 7.84313C45.3564 9.02686 46.0215 10.6323 46.0215 12.3064V17.216Z" stroke="#2A4547" stroke-linecap="round" stroke-linejoin="round"/>
<path d="M31.9951 24.9312H34.8007V29.1392H31.9951V24.9312Z" fill="#22A595"/>
<path d="M34.7998 25.5152V25.632L31.9942 28.4376V25.5152C31.9934 25.4383 32.008 25.362 32.0371 25.2908C32.0662 25.2196 32.1092 25.1549 32.1635 25.1006C32.2179 25.0462 32.2826 25.0032 32.3538 24.9741C32.425 24.945 32.5013 24.9304 32.5782 24.9312H34.2158C34.2926 24.9305 34.3689 24.9452 34.44 24.9743C34.5112 25.0035 34.5758 25.0464 34.6301 25.1008C34.6845 25.1552 34.7275 25.2198 34.7566 25.2909C34.7857 25.3621 34.8004 25.4383 34.7998 25.5152Z" fill="white"/>
<path d="M31.9951 24.9312H34.8007V29.1392H31.9951V24.9312Z" stroke="#2A4547" stroke-linecap="round" stroke-linejoin="round"/>
<path d="M38.3076 24.9312H41.1132V29.1392H38.3076V24.9312Z" fill="#22A595"/>
<path d="M41.1132 25.632V25.5152C41.1132 25.3603 41.0517 25.2117 40.9422 25.1022C40.8326 24.9927 40.6841 24.9312 40.5292 24.9312H38.8924C38.8157 24.931 38.7396 24.9461 38.6687 24.9754C38.5977 25.0047 38.5333 25.0477 38.4789 25.1019C38.4246 25.1562 38.3815 25.2206 38.3521 25.2915C38.3227 25.3624 38.3076 25.4384 38.3076 25.5152V28.4376L41.1132 25.632Z" fill="white"/>
<path d="M38.3076 24.9312H41.1132V29.1392H38.3076V24.9312Z" stroke="#2A4547" stroke-linecap="round" stroke-linejoin="round"/>
<path d="M44.6182 24.9312H47.4238V29.1392H44.6182V24.9312Z" fill="#22A595"/>
<path d="M47.4248 25.632V25.5152C47.4248 25.4384 47.4097 25.3624 47.3803 25.2915C47.3509 25.2206 47.3078 25.1562 47.2535 25.1019C47.1992 25.0477 47.1347 25.0047 47.0638 24.9754C46.9928 24.9461 46.9168 24.931 46.84 24.9312H45.2C45.0451 24.9312 44.8964 24.9927 44.7868 25.1022C44.6772 25.2117 44.6154 25.3602 44.6152 25.5152V28.4376L47.4248 25.632Z" fill="white"/>
<path d="M44.6182 24.9312H47.4238V29.1392H44.6182V24.9312Z" stroke="#2A4547" stroke-linecap="round" stroke-linejoin="round"/>
<path d="M31.9941 37.5552H34.7997V42.8152H31.9941V37.5552Z" fill="#22A595"/>
<path d="M34.8005 38.7824V37.5552H31.9941V41.588L34.8005 38.7824Z" fill="white"/>
<path d="M31.9941 37.5552H34.7997V42.8152H31.9941V37.5552Z" stroke="#2A4547" stroke-linecap="round" stroke-linejoin="round"/>
<path d="M38.3076 37.5552H41.1132V42.8152H38.3076V37.5552Z" fill="#22A595"/>
<path d="M41.1132 38.7824V37.5552H38.3076V41.588L41.1132 38.7824Z" fill="white"/>
<path d="M38.3076 37.5552H41.1132V42.8152H38.3076V37.5552Z" stroke="#2A4547" stroke-linecap="round" stroke-linejoin="round"/>
<path d="M44.6201 37.5552H47.4257V42.8152H44.6201V37.5552Z" fill="#22A595"/>
<path d="M47.4257 38.7824V37.5552H44.6201V41.588L47.4257 38.7824Z" fill="white"/>
<path d="M44.6201 37.5552H47.4257V42.8152H44.6201V37.5552Z" stroke="#2A4547" stroke-linecap="round" stroke-linejoin="round"/>
<path d="M27.7871 56.4919H51.6335V67.7135H27.7871V56.4919Z" fill="#22A595"/>
<path d="M27.7871 56.4919H51.6335V67.7135H27.7871V56.4919Z" stroke="#2A4547" stroke-linecap="round" stroke-linejoin="round"/>
<path d="M52.3339 53.6864H27.0859V56.092C27.0859 56.1981 27.1281 56.2998 27.2031 56.3748C27.2781 56.4499 27.3799 56.492 27.4859 56.492H51.9339C52.04 56.492 52.1418 56.4499 52.2168 56.3748C52.2918 56.2998 52.3339 56.1981 52.3339 56.092V53.6864Z" fill="white" stroke="#2A4547" stroke-linecap="round" stroke-linejoin="round"/>
<path d="M39.4059 46.1599L27.0859 53.6887H52.3339L40.0155 46.1599C39.9238 46.1038 39.8183 46.0741 39.7107 46.0741C39.6032 46.0741 39.4977 46.1038 39.4059 46.1599Z" fill="white" stroke="#2A4547" stroke-linecap="round" stroke-linejoin="round"/>
<path d="M27.0866 53.6863L26.017 52.0863C25.9736 52.0212 25.9438 51.9481 25.9292 51.8713C25.9146 51.7944 25.9156 51.7154 25.9321 51.639C25.9486 51.5625 25.9802 51.4902 26.0252 51.4261C26.0701 51.3621 26.1275 51.3078 26.1938 51.2663L39.401 43.0087C39.4938 42.9507 39.6011 42.9199 39.7106 42.9199C39.8201 42.9199 39.9273 42.9507 40.0202 43.0087L53.2266 51.2631C53.293 51.3045 53.3504 51.3588 53.3954 51.4228C53.4404 51.4868 53.4721 51.5592 53.4886 51.6357C53.5051 51.7122 53.5061 51.7912 53.4914 51.8681C53.4768 51.9449 53.4468 52.0181 53.4034 52.0831L52.3346 53.6831L40.0154 46.1599C39.9236 46.1038 39.8181 46.0741 39.7106 46.0741C39.603 46.0741 39.4975 46.1038 39.4058 46.1599L27.0866 53.6863Z" fill="white" stroke="#2A4547" stroke-linecap="round" stroke-linejoin="round"/>
<path d="M27.7871 67.7136H51.6335V73.3248H27.7871V67.7136Z" fill="white" stroke="#2A4547" stroke-linecap="round" stroke-linejoin="round"/>
<path d="M24.9805 73.324H27.7869V65.6096H25.7805C25.5683 65.6096 25.3648 65.6939 25.2148 65.8439C25.0648 65.994 24.9805 66.1974 24.9805 66.4096V73.324Z" fill="white" stroke="#2A4547" stroke-linecap="round" stroke-linejoin="round"/>
<path d="M51.6338 73.324H54.4386V66.4096C54.4386 66.1974 54.3543 65.994 54.2043 65.8439C54.0542 65.6939 53.8508 65.6096 53.6386 65.6096H51.6338V73.324Z" fill="white" stroke="#2A4547" stroke-linecap="round" stroke-linejoin="round"/>
<path d="M17.9678 73.324H24.9806V67.7136H18.7678C18.5556 67.7136 18.3521 67.7979 18.2021 67.9479C18.0521 68.098 17.9678 68.3014 17.9678 68.5136V73.324Z" fill="white" stroke="#2A4547" stroke-linecap="round" stroke-linejoin="round"/>
<path d="M54.4385 73.324H61.4521V68.5136C61.4521 68.3014 61.3678 68.098 61.2178 67.9479C61.0677 67.7979 60.8643 67.7136 60.6521 67.7136H54.4385V73.324Z" fill="white" stroke="#2A4547" stroke-linecap="round" stroke-linejoin="round"/>
<path d="M27.7871 56.4919H30.5927V67.7135H27.7871V56.4919Z" fill="white"/>
<path d="M27.7871 56.4919H30.5927V67.7135H27.7871V56.4919Z" stroke="#2A4547" stroke-linecap="round" stroke-linejoin="round"/>
<path d="M22.8779 55.7904V62.804" stroke="#2A4547" stroke-linecap="round" stroke-linejoin="round"/>
<path d="M56.542 55.7904V62.804" stroke="#2A4547" stroke-linecap="round" stroke-linejoin="round"/>
<path d="M27.7871 70.5184H51.6335" stroke="#2A4547" stroke-linecap="round" stroke-linejoin="round"/>
<path d="M41.0102 50.1792C41.0103 50.4364 40.9342 50.6878 40.7915 50.9017C40.6487 51.1156 40.4457 51.2823 40.2082 51.3808C39.9707 51.4793 39.7093 51.5052 39.457 51.4551C39.2048 51.4051 38.9731 51.2813 38.7912 51.0995C38.6093 50.9178 38.4854 50.6861 38.4352 50.4339C38.385 50.1817 38.4107 49.9203 38.509 49.6827C38.6074 49.4451 38.774 49.242 38.9878 49.0992C39.2016 48.9563 39.453 48.88 39.7102 48.88C40.0547 48.8802 40.3852 49.0171 40.6289 49.2607C40.8726 49.5043 41.0097 49.8346 41.0102 50.1792Z" fill="#22A595" stroke="#2A4547" stroke-linecap="round" stroke-linejoin="round"/>
<path d="M33.3975 20.0216V21.424" stroke="#2A4547" stroke-linecap="round" stroke-linejoin="round"/>
<path d="M39.71 20.0216V21.424" stroke="#2A4547" stroke-linecap="round" stroke-linejoin="round"/>
<path d="M46.0215 20.0216V21.424" stroke="#2A4547" stroke-linecap="round" stroke-linejoin="round"/>
<path d="M50.2305 34.0488H53.7377" stroke="#2A4547" stroke-linecap="round" stroke-linejoin="round"/>
<path d="M50.2305 38.9576H53.7377" stroke="#2A4547" stroke-linecap="round" stroke-linejoin="round"/>
<path d="M25.6836 34.0488H29.19" stroke="#2A4547" stroke-linecap="round" stroke-linejoin="round"/>
<path d="M25.6836 38.9576H29.19" stroke="#2A4547" stroke-linecap="round" stroke-linejoin="round"/>
<path d="M38.5898 12.864C38.5903 13.1293 38.6694 13.3884 38.8172 13.6088C38.9649 13.8291 39.1746 14.0007 39.4199 14.1018C39.6651 14.203 39.9348 14.2292 40.1949 14.1771C40.455 14.125 40.6939 13.9969 40.8812 13.8091C41.0686 13.6213 41.1961 13.3822 41.2475 13.122C41.299 12.8617 41.2722 12.5921 41.1705 12.3471C41.0687 12.1021 40.8966 11.8928 40.676 11.7455C40.4553 11.5983 40.1959 11.5198 39.9306 11.52C39.6653 11.5198 39.406 11.441 39.1854 11.2934C38.9649 11.1459 38.7931 10.9363 38.6917 10.6911C38.5903 10.4459 38.5639 10.1761 38.6158 9.91587C38.6677 9.65566 38.7956 9.41669 38.9834 9.22917C39.1711 9.04166 39.4102 8.91403 39.6705 8.86242C39.9308 8.8108 40.2005 8.83753 40.4456 8.93922C40.6907 9.04091 40.9001 9.21299 41.0474 9.4337C41.1947 9.65442 41.2732 9.91385 41.273 10.1792" stroke="#2A4547" stroke-linecap="round"/>
<path d="M39.9307 8.83845V7.94885" stroke="#2A4547" stroke-linecap="round"/>
<path d="M39.9307 15.096V14.2056" stroke="#2A4547" stroke-linecap="round"/>
<path d="M34.8008 56.4919H37.6064V67.7135H34.8008V56.4919Z" fill="white"/>
<path d="M34.8008 56.4919H37.6064V67.7135H34.8008V56.4919Z" stroke="#2A4547" stroke-linecap="round" stroke-linejoin="round"/>
<path d="M41.8145 56.4919H44.6201V67.7135H41.8145V56.4919Z" fill="white"/>
<path d="M41.8145 56.4919H44.6201V67.7135H41.8145V56.4919Z" stroke="#2A4547" stroke-linecap="round" stroke-linejoin="round"/>
<path d="M48.8271 56.4919H51.6327V67.7135H48.8271V56.4919Z" fill="white"/>
<path d="M48.8271 56.4919H51.6327V67.7135H48.8271V56.4919Z" stroke="#2A4547" stroke-linecap="round" stroke-linejoin="round"/>
</svg>
