<svg width="151" height="150" viewBox="0 0 151 150" fill="none" xmlns="http://www.w3.org/2000/svg">
<path d="M135.781 85.368C135.782 76.4132 133.779 67.5718 129.918 59.492C126.058 51.4123 120.437 44.2991 113.47 38.6743C106.502 33.0495 98.3635 29.0556 89.6513 26.9855C80.9391 24.9155 71.874 24.8218 63.1209 26.7113C54.3677 28.6008 46.1485 32.4256 39.066 37.9052C31.9835 43.3848 26.2174 50.3802 22.1904 58.3784C18.1635 66.3767 15.9779 75.1748 15.7939 84.1277C15.6099 93.0806 17.4323 101.961 21.1273 110.118H130.435C133.965 102.345 135.788 93.9051 135.781 85.368Z" fill="#E6F0ED"/>
<path d="M17.2773 110.118H134.277" stroke="#2A4547" stroke-linecap="round" stroke-linejoin="round"/>
<path d="M10.5273 110.118H14.2773" stroke="#2A4547" stroke-linecap="round" stroke-linejoin="round"/>
<path d="M137.277 110.118H141.027" stroke="#2A4547" stroke-linecap="round" stroke-linejoin="round"/>
<path d="M93.5728 21.759H56.3398C53.9529 21.759 51.6637 22.7072 49.9759 24.3951C48.2881 26.0829 47.3398 28.3721 47.3398 30.759V49.3755H102.573V30.759C102.573 28.3721 101.625 26.0829 99.9368 24.3951C98.249 22.7072 95.9598 21.759 93.5728 21.759Z" fill="white"/>
<path d="M93.5728 21.759H56.3398C53.9529 21.759 51.6637 22.7072 49.9759 24.3951C48.2881 26.0829 47.3398 28.3721 47.3398 30.759V49.3755H102.573V30.759C102.573 28.3721 101.625 26.0829 99.9368 24.3951C98.249 22.7072 95.9598 21.759 93.5728 21.759Z" stroke="#2A4547" stroke-linecap="round" stroke-linejoin="round"/>
<path d="M36.8203 98.0322H113.092V126.963H36.8203V98.0322Z" fill="white"/>
<path d="M36.8203 98.0322H113.092V126.963H36.8203V98.0322Z" stroke="#2A4547" stroke-linecap="round" stroke-linejoin="round"/>
<path d="M35.5078 92.7725H114.409V98.033H35.5078V92.7725Z" fill="white" stroke="#2A4547" stroke-linecap="round" stroke-linejoin="round"/>
<path d="M53.9141 37.54H95.9951V80.278H53.9141V37.54Z" fill="white"/>
<path d="M53.9141 37.54H95.9951V80.278H53.9141V37.54Z" stroke="#2A4547" stroke-linecap="round" stroke-linejoin="round"/>
<path d="M93.3674 23.0749C93.3236 18.221 91.3646 13.5808 87.9168 10.1639C84.469 6.74706 79.8112 4.83008 74.9571 4.83008C70.103 4.83008 65.4453 6.74706 61.9975 10.1639C58.5496 13.5808 56.5907 18.221 56.5469 23.0749V37.5409H93.3674V23.0749Z" fill="white"/>
<path d="M93.3674 23.0749C93.3236 18.221 91.3646 13.5808 87.9168 10.1639C84.469 6.74706 79.8112 4.83008 74.9571 4.83008C70.103 4.83008 65.4453 6.74706 61.9975 10.1639C58.5496 13.5808 56.5907 18.221 56.5469 23.0749V37.5409H93.3674V23.0749Z" stroke="#2A4547" stroke-linecap="round" stroke-linejoin="round"/>
<path d="M97.3136 32.2803H52.6016V36.0408C52.6016 36.4386 52.7596 36.8201 53.0409 37.1014C53.3222 37.3827 53.7037 37.5408 54.1016 37.5408H95.8136C96.2114 37.5408 96.5929 37.3827 96.8742 37.1014C97.1555 36.8201 97.3136 36.4386 97.3136 36.0408V32.2803Z" fill="white" stroke="#2A4547" stroke-linecap="round" stroke-linejoin="round"/>
<path d="M95.9944 49.376C95.6458 49.3764 95.3116 49.5151 95.0652 49.7618C94.8188 50.0085 94.6804 50.3428 94.6804 50.6915V80.279H55.2304V50.7005C55.2306 50.5276 55.1968 50.3564 55.1307 50.1966C55.0647 50.0368 54.9678 49.8916 54.8457 49.7693C54.7235 49.647 54.5784 49.55 54.4187 49.4838C54.259 49.4176 54.0878 49.3835 53.9149 49.3835H47.7769C46.6166 49.3847 45.504 49.8459 44.6832 50.6662C43.8625 51.4864 43.4004 52.5986 43.3984 53.759V92.7725H106.518V53.759C106.518 52.5965 106.057 51.4817 105.235 50.6597C104.413 49.8378 103.298 49.376 102.135 49.376H95.9944Z" fill="#22A595"/>
<path d="M95.9944 49.376C95.6458 49.3764 95.3116 49.5151 95.0652 49.7618C94.8188 50.0085 94.6804 50.3428 94.6804 50.6915V80.279H55.2304V50.7005C55.2306 50.5276 55.1968 50.3564 55.1307 50.1966C55.0647 50.0368 54.9678 49.8916 54.8457 49.7693C54.7235 49.647 54.5784 49.55 54.4187 49.4838C54.259 49.4176 54.0878 49.3835 53.9149 49.3835H47.7769C46.6166 49.3847 45.504 49.8459 44.6832 50.6662C43.8625 51.4864 43.4004 52.5986 43.3984 53.759V92.7725H106.518V53.759C106.519 53.1833 106.405 52.6133 106.185 52.0814C105.965 51.5496 105.642 51.0663 105.235 50.6593C104.828 50.2523 104.345 49.9294 103.813 49.7092C103.281 49.489 102.711 49.3758 102.135 49.376H95.9944Z" stroke="#2A4547" stroke-linecap="round" stroke-linejoin="round"/>
<path d="M55.2289 54.6365H49.7509C49.607 54.6363 49.4645 54.6645 49.3314 54.7194C49.1984 54.7743 49.0775 54.855 48.9757 54.9567C48.8738 55.0584 48.7931 55.1791 48.7379 55.3121C48.6828 55.445 48.6544 55.5876 48.6544 55.7315V92.7725H43.3984V53.759C43.3984 52.5965 43.8602 51.4817 44.6822 50.6597C45.5042 49.8378 46.619 49.376 47.7814 49.376H53.9134C54.0863 49.376 54.2575 49.4101 54.4172 49.4763C54.5769 49.5425 54.722 49.6395 54.8442 49.7618C54.9663 49.8841 55.0632 50.0293 55.1292 50.1891C55.1953 50.3489 55.2291 50.5201 55.2289 50.693V54.6365Z" fill="white" stroke="#2A4547" stroke-linecap="round" stroke-linejoin="round"/>
<path d="M94.6797 54.6365H100.159C100.45 54.6365 100.728 54.7518 100.934 54.9571C101.14 55.1624 101.255 55.4409 101.256 55.7315V92.7725H106.513V53.759C106.513 52.5965 106.051 51.4817 105.229 50.6597C104.407 49.8378 103.293 49.376 102.13 49.376H95.9937C95.6452 49.376 95.311 49.5144 95.0646 49.7608C94.8181 50.0073 94.6797 50.3415 94.6797 50.69V54.6365Z" fill="white" stroke="#2A4547" stroke-linecap="round" stroke-linejoin="round"/>
<path d="M48.6562 86.1963H101.258V92.7708H48.6562V86.1963Z" fill="#22A595" stroke="#2A4547" stroke-linecap="round" stroke-linejoin="round"/>
<path d="M55.2305 63.8418H94.682V70.4163H55.2305V63.8418Z" fill="#22A595" stroke="#2A4547" stroke-linecap="round" stroke-linejoin="round"/>
<path d="M86.7911 32.2798H63.1211V23.0743C63.1211 19.9354 64.368 16.9251 66.5875 14.7056C68.807 12.4862 71.8173 11.2393 74.9561 11.2393C78.0949 11.2393 81.1052 12.4862 83.3247 14.7056C85.5442 16.9251 86.7911 19.9354 86.7911 23.0743V32.2798Z" fill="#22A595"/>
<path d="M86.7911 32.2798H63.1211V23.0743C63.1211 19.9354 64.368 16.9251 66.5875 14.7056C68.807 12.4862 71.8173 11.2393 74.9561 11.2393C78.0949 11.2393 81.1052 12.4862 83.3247 14.7056C85.5442 16.9251 86.7911 19.9354 86.7911 23.0743V32.2798Z" stroke="#2A4547" stroke-linecap="round" stroke-linejoin="round"/>
<path d="M60.4922 46.746H65.7527V54.636H60.4922V46.746Z" fill="#22A595"/>
<path d="M65.7488 47.841V48.06L60.4883 53.3205V47.841C60.4869 47.6968 60.5143 47.5538 60.5688 47.4203C60.6234 47.2868 60.704 47.1656 60.8059 47.0636C60.9079 46.9617 61.0292 46.881 61.1626 46.8265C61.2961 46.772 61.4391 46.7446 61.5833 46.746H64.6538C64.798 46.7448 64.9409 46.7723 65.0743 46.8269C65.2077 46.8815 65.3289 46.9621 65.4308 47.0641C65.5327 47.166 65.6133 47.2872 65.6679 47.4206C65.7225 47.554 65.75 47.6969 65.7488 47.841Z" fill="white"/>
<path d="M60.4922 46.746H65.7527V54.636H60.4922V46.746Z" stroke="#2A4547" stroke-linecap="round" stroke-linejoin="round"/>
<path d="M72.3242 46.746H77.5847V54.636H72.3242V46.746Z" fill="#22A595"/>
<path d="M77.5847 48.06V47.841C77.5847 47.5506 77.4694 47.272 77.264 47.0667C77.0587 46.8613 76.7801 46.746 76.4897 46.746H73.4207C73.2768 46.7458 73.1342 46.774 73.0012 46.8289C72.8682 46.8838 72.7473 46.9645 72.6455 47.0662C72.5436 47.1679 72.4628 47.2886 72.4077 47.4216C72.3526 47.5545 72.3242 47.697 72.3242 47.841V53.3205L77.5847 48.06Z" fill="white"/>
<path d="M72.3242 46.746H77.5847V54.636H72.3242V46.746Z" stroke="#2A4547" stroke-linecap="round" stroke-linejoin="round"/>
<path d="M84.1602 46.7461H89.4207V54.6361H84.1602V46.7461Z" fill="#22A595"/>
<path d="M89.4203 48.06V47.841C89.4203 47.697 89.392 47.5545 89.3368 47.4216C89.2817 47.2886 89.2009 47.1679 89.0991 47.0662C88.9973 46.9645 88.8764 46.8838 88.7433 46.8289C88.6103 46.774 88.4678 46.7458 88.3238 46.746H85.2488C84.9583 46.746 84.6796 46.8613 84.474 47.0666C84.2684 47.2719 84.1527 47.5504 84.1523 47.841V53.3205L89.4203 48.06Z" fill="white"/>
<path d="M84.1602 46.7461H89.4207V54.6361H84.1602V46.7461Z" stroke="#2A4547" stroke-linecap="round" stroke-linejoin="round"/>
<path d="M60.4883 70.416H65.7488V80.2785H60.4883V70.416Z" fill="#22A595"/>
<path d="M65.7503 72.717V70.416H60.4883V77.9775L65.7503 72.717Z" fill="white"/>
<path d="M60.4883 70.416H65.7488V80.2785H60.4883V70.416Z" stroke="#2A4547" stroke-linecap="round" stroke-linejoin="round"/>
<path d="M72.3242 70.416H77.5847V80.2785H72.3242V70.416Z" fill="#22A595"/>
<path d="M77.5847 72.717V70.416H72.3242V77.9775L77.5847 72.717Z" fill="white"/>
<path d="M72.3242 70.416H77.5847V80.2785H72.3242V70.416Z" stroke="#2A4547" stroke-linecap="round" stroke-linejoin="round"/>
<path d="M84.1641 70.416H89.4246V80.2785H84.1641V70.416Z" fill="#22A595"/>
<path d="M89.4246 72.717V70.416H84.1641V77.9775L89.4246 72.717Z" fill="white"/>
<path d="M84.1641 70.416H89.4246V80.2785H84.1641V70.416Z" stroke="#2A4547" stroke-linecap="round" stroke-linejoin="round"/>
<path d="M52.6016 105.923H97.3136V126.963H52.6016V105.923Z" fill="#22A595"/>
<path d="M52.6016 105.923H97.3136V126.963H52.6016V105.923Z" stroke="#2A4547" stroke-linecap="round" stroke-linejoin="round"/>
<path d="M98.6252 100.662H51.2852V105.172C51.2852 105.371 51.3642 105.562 51.5048 105.703C51.6455 105.843 51.8362 105.922 52.0352 105.922H97.8752C98.0741 105.922 98.2648 105.843 98.4055 105.703C98.5461 105.562 98.6252 105.371 98.6252 105.172V100.662Z" fill="white" stroke="#2A4547" stroke-linecap="round" stroke-linejoin="round"/>
<path d="M74.3852 86.5496L51.2852 100.666H98.6252L75.5282 86.5496C75.3561 86.4444 75.1583 86.3887 74.9567 86.3887C74.755 86.3887 74.5572 86.4444 74.3852 86.5496Z" fill="white" stroke="#2A4547" stroke-linecap="round" stroke-linejoin="round"/>
<path d="M51.287 100.662L49.2815 97.6616C49.2002 97.5396 49.1442 97.4024 49.1169 97.2584C49.0895 97.1143 49.0914 96.9662 49.1223 96.8228C49.1532 96.6795 49.2126 96.5438 49.2968 96.4238C49.3811 96.3038 49.4886 96.2019 49.613 96.1241L74.3765 80.6411C74.5505 80.5323 74.7517 80.4746 74.957 80.4746C75.1622 80.4746 75.3634 80.5323 75.5375 80.6411L100.299 96.1182C100.424 96.1957 100.532 96.2976 100.616 96.4176C100.7 96.5376 100.76 96.6733 100.791 96.8167C100.822 96.9601 100.823 97.1083 100.796 97.2524C100.769 97.3965 100.712 97.5336 100.631 97.6556L98.627 100.656L75.5285 86.5496C75.3564 86.4444 75.1587 86.3887 74.957 86.3887C74.7553 86.3887 74.5575 86.4444 74.3855 86.5496L51.287 100.662Z" fill="white" stroke="#2A4547" stroke-linecap="round" stroke-linejoin="round"/>
<path d="M52.6016 126.963H97.3136V137.484H52.6016V126.963Z" fill="white" stroke="#2A4547" stroke-linecap="round" stroke-linejoin="round"/>
<path d="M47.3398 137.482H52.6018V123.018H48.8398C48.442 123.018 48.0605 123.176 47.7792 123.457C47.4979 123.738 47.3398 124.12 47.3398 124.518V137.482Z" fill="white" stroke="#2A4547" stroke-linecap="round" stroke-linejoin="round"/>
<path d="M97.3125 137.482H102.571V124.518C102.571 124.12 102.413 123.738 102.132 123.457C101.851 123.176 101.469 123.018 101.071 123.018H97.3125V137.482Z" fill="white" stroke="#2A4547" stroke-linecap="round" stroke-linejoin="round"/>
<path d="M34.1914 137.482H47.3404V126.963H35.6914C35.2936 126.963 34.9121 127.121 34.6307 127.402C34.3494 127.684 34.1914 128.065 34.1914 128.463V137.482Z" fill="white" stroke="#2A4547" stroke-linecap="round" stroke-linejoin="round"/>
<path d="M102.57 137.482H115.721V128.463C115.721 128.065 115.563 127.684 115.281 127.402C115 127.121 114.619 126.963 114.221 126.963H102.57V137.482Z" fill="white" stroke="#2A4547" stroke-linecap="round" stroke-linejoin="round"/>
<path d="M52.6016 105.923H57.8621V126.963H52.6016V105.923Z" fill="white"/>
<path d="M52.6016 105.923H57.8621V126.963H52.6016V105.923Z" stroke="#2A4547" stroke-linecap="round" stroke-linejoin="round"/>
<path d="M43.3945 104.607V117.758" stroke="#2A4547" stroke-linecap="round" stroke-linejoin="round"/>
<path d="M106.516 104.607V117.758" stroke="#2A4547" stroke-linecap="round" stroke-linejoin="round"/>
<path d="M52.6016 132.222H97.3136" stroke="#2A4547" stroke-linecap="round" stroke-linejoin="round"/>
<path d="M77.3945 94.0864C77.3948 94.5685 77.2521 95.04 76.9845 95.441C76.7168 95.842 76.3362 96.1547 75.8909 96.3394C75.4455 96.5241 74.9553 96.5726 74.4824 96.4787C74.0095 96.3849 73.575 96.1528 73.234 95.812C72.893 95.4712 72.6607 95.0368 72.5665 94.564C72.4723 94.0911 72.5205 93.6009 72.7049 93.1554C72.8894 92.71 73.2018 92.3292 73.6027 92.0613C74.0036 91.7934 74.4749 91.6504 74.957 91.6504C75.6031 91.6508 76.2226 91.9075 76.6796 92.3642C77.1366 92.8209 77.3937 93.4403 77.3945 94.0864Z" fill="#22A595" stroke="#2A4547" stroke-linecap="round" stroke-linejoin="round"/>
<path d="M63.1211 37.54V40.1695" stroke="#2A4547" stroke-linecap="round" stroke-linejoin="round"/>
<path d="M74.957 37.54V40.1695" stroke="#2A4547" stroke-linecap="round" stroke-linejoin="round"/>
<path d="M86.7891 37.54V40.1695" stroke="#2A4547" stroke-linecap="round" stroke-linejoin="round"/>
<path d="M94.6797 63.8418H101.256" stroke="#2A4547" stroke-linecap="round" stroke-linejoin="round"/>
<path d="M94.6797 73.0459H101.256" stroke="#2A4547" stroke-linecap="round" stroke-linejoin="round"/>
<path d="M48.6562 63.8418H55.2307" stroke="#2A4547" stroke-linecap="round" stroke-linejoin="round"/>
<path d="M48.6562 73.0459H55.2307" stroke="#2A4547" stroke-linecap="round" stroke-linejoin="round"/>
<path d="M72.8555 24.1203C72.8564 24.6177 73.0047 25.1037 73.2817 25.5168C73.5587 25.9299 73.952 26.2516 74.4118 26.4413C74.8716 26.6309 75.3773 26.68 75.865 26.5823C76.3527 26.4847 76.8005 26.2446 77.1518 25.8924C77.5031 25.5403 77.7421 25.0919 77.8386 24.604C77.9352 24.1161 77.8849 23.6105 77.6941 23.1511C77.5034 22.6918 77.1807 22.2993 76.7669 22.0232C76.3532 21.7472 75.8669 21.6 75.3695 21.6003C74.8719 21.6 74.3857 21.4522 73.9722 21.1756C73.5587 20.8989 73.2365 20.5059 73.0464 20.0461C72.8563 19.5863 72.8067 19.0805 72.9041 18.5926C73.0015 18.1047 73.2413 17.6566 73.5933 17.305C73.9453 16.9535 74.3937 16.7141 74.8817 16.6174C75.3697 16.5206 75.8755 16.5707 76.335 16.7614C76.7945 16.9521 77.1872 17.2747 77.4634 17.6885C77.7395 18.1024 77.8868 18.5888 77.8865 19.0863" stroke="#2A4547" stroke-linecap="round"/>
<path d="M75.3672 16.5723V14.9043" stroke="#2A4547" stroke-linecap="round"/>
<path d="M75.3672 28.3052V26.6357" stroke="#2A4547" stroke-linecap="round"/>
<path d="M65.75 105.923H71.0105V126.963H65.75V105.923Z" fill="white"/>
<path d="M65.75 105.923H71.0105V126.963H65.75V105.923Z" stroke="#2A4547" stroke-linecap="round" stroke-linejoin="round"/>
<path d="M78.9023 105.923H84.1628V126.963H78.9023V105.923Z" fill="white"/>
<path d="M78.9023 105.923H84.1628V126.963H78.9023V105.923Z" stroke="#2A4547" stroke-linecap="round" stroke-linejoin="round"/>
<path d="M92.0508 105.923H97.3113V126.963H92.0508V105.923Z" fill="white"/>
<path d="M92.0508 105.923H97.3113V126.963H92.0508V105.923Z" stroke="#2A4547" stroke-linecap="round" stroke-linejoin="round"/>
</svg>
