<svg width="151" height="150" viewBox="0 0 151 150" fill="none" xmlns="http://www.w3.org/2000/svg">
<path d="M14.5088 75C14.5088 82.8793 16.0607 90.6815 19.076 97.961C22.0913 105.241 26.5109 111.855 32.0824 117.426C37.6539 122.998 44.2682 127.417 51.5478 130.433C58.8273 133.448 66.6295 135 74.5088 135C82.3881 135 90.1903 133.448 97.4698 130.433C104.749 127.417 111.364 122.998 116.935 117.426C122.507 111.855 126.926 105.241 129.942 97.961C132.957 90.6815 134.509 82.8793 134.509 75C134.509 67.1207 132.957 59.3185 129.942 52.039C126.926 44.7595 122.507 38.1451 116.935 32.5736C111.364 27.0021 104.749 22.5825 97.4698 19.5672C90.1903 16.5519 82.3881 15 74.5088 15C66.6295 15 58.8273 16.5519 51.5478 19.5672C44.2682 22.5825 37.6539 27.0021 32.0824 32.5736C26.5109 38.1451 22.0913 44.7595 19.076 52.039C16.0607 59.3185 14.5088 67.1207 14.5088 75Z" fill="#E6F0ED"/>
<path d="M33.7578 100.8C33.7578 99.6961 34.1962 98.6377 34.9765 97.8574C35.7569 97.0771 36.8152 96.6387 37.9188 96.6387H51.7893C52.8929 96.6387 53.9512 97.0771 54.7316 97.8574C55.5119 98.6377 55.9503 99.6961 55.9503 100.8C55.9503 101.903 55.5119 102.962 54.7316 103.742C53.9512 104.522 52.8929 104.961 51.7893 104.961H37.9188C36.8152 104.961 35.7569 104.522 34.9765 103.742C34.1962 102.962 33.7578 101.903 33.7578 100.8Z" fill="white"/>
<path d="M11.5674 100.8C11.5674 99.6961 12.0058 98.6377 12.7861 97.8574C13.5665 97.0771 14.6248 96.6387 15.7284 96.6387H29.6004C30.704 96.6387 31.7623 97.0771 32.5427 97.8574C33.323 98.6377 33.7614 99.6961 33.7614 100.8C33.7614 101.903 33.323 102.962 32.5427 103.742C31.7623 104.522 30.704 104.961 29.6004 104.961H15.7284C14.6248 104.961 13.5665 104.522 12.7861 103.742C12.0058 102.962 11.5674 101.903 11.5674 100.8Z" fill="white"/>
<path d="M14.3418 92.4745C14.3414 91.9281 14.4486 91.387 14.6574 90.882C14.8661 90.377 15.1723 89.9181 15.5584 89.5314C15.9445 89.1447 16.403 88.8379 16.9077 88.6284C17.4124 88.419 17.9534 88.3109 18.4998 88.3105H32.3688C33.4589 88.3312 34.4973 88.7788 35.2609 89.557C36.0245 90.3353 36.4523 91.382 36.4523 92.4723C36.4523 93.5626 36.0245 94.6093 35.2609 95.3876C34.4973 96.1658 33.4589 96.6133 32.3688 96.634H18.4998C17.3969 96.6336 16.3393 96.1952 15.5596 95.4152C14.7798 94.6352 14.3418 93.5775 14.3418 92.4745Z" fill="white"/>
<path d="M33.7578 100.8C33.7578 99.6961 34.1962 98.6377 34.9765 97.8574C35.7569 97.0771 36.8152 96.6387 37.9188 96.6387H51.7893C52.8929 96.6387 53.9512 97.0771 54.7316 97.8574C55.5119 98.6377 55.9503 99.6961 55.9503 100.8C55.9503 101.903 55.5119 102.962 54.7316 103.742C53.9512 104.522 52.8929 104.961 51.7893 104.961H37.9188C36.8152 104.961 35.7569 104.522 34.9765 103.742C34.1962 102.962 33.7578 101.903 33.7578 100.8Z" stroke="#2A4547" stroke-linecap="round" stroke-linejoin="round"/>
<path d="M11.5674 100.8C11.5674 99.6961 12.0058 98.6377 12.7861 97.8574C13.5665 97.0771 14.6248 96.6387 15.7284 96.6387H29.6004C30.704 96.6387 31.7623 97.0771 32.5427 97.8574C33.323 98.6377 33.7614 99.6961 33.7614 100.8C33.7614 101.903 33.323 102.962 32.5427 103.742C31.7623 104.522 30.704 104.961 29.6004 104.961H15.7284C14.6248 104.961 13.5665 104.522 12.7861 103.742C12.0058 102.962 11.5674 101.903 11.5674 100.8V100.8Z" stroke="#2A4547" stroke-linecap="round" stroke-linejoin="round"/>
<path d="M14.3418 92.4745C14.3414 91.9281 14.4486 91.387 14.6574 90.882C14.8661 90.377 15.1723 89.9181 15.5584 89.5314C15.9445 89.1447 16.403 88.8379 16.9077 88.6284C17.4124 88.419 17.9534 88.3109 18.4998 88.3105H32.3688C33.4589 88.3312 34.4973 88.7788 35.2609 89.557C36.0245 90.3353 36.4523 91.382 36.4523 92.4723C36.4523 93.5626 36.0245 94.6093 35.2609 95.3876C34.4973 96.1658 33.4589 96.6133 32.3688 96.634H18.4998C17.3969 96.6336 16.3393 96.1952 15.5596 95.4152C14.7798 94.6352 14.3418 93.5775 14.3418 92.4745Z" stroke="#2A4547" stroke-linecap="round" stroke-linejoin="round"/>
<path d="M12.9502 84.15C12.9502 83.0465 13.3886 81.9881 14.1689 81.2078C14.9493 80.4274 16.0076 79.989 17.1112 79.989H30.9817C31.5347 79.9785 32.0842 80.0784 32.5981 80.2827C33.1121 80.4871 33.5801 80.7919 33.9749 81.1792C34.3697 81.5666 34.6833 82.0287 34.8974 82.5387C35.1114 83.0487 35.2217 83.5962 35.2217 84.1493C35.2217 84.7024 35.1114 85.2499 34.8974 85.7599C34.6833 86.2698 34.3697 86.732 33.9749 87.1194C33.5801 87.5067 33.1121 87.8115 32.5981 88.0158C32.0842 88.2202 31.5347 88.32 30.9817 88.3095H17.1142C16.5676 88.3101 16.0262 88.203 15.521 87.9942C15.0159 87.7854 14.5568 87.4791 14.1701 87.0928C13.7834 86.7065 13.4766 86.2478 13.2672 85.7428C13.0579 85.2379 12.9502 84.6966 12.9502 84.15Z" fill="white"/>
<path d="M12.9502 84.15C12.9502 83.0465 13.3886 81.9881 14.1689 81.2078C14.9493 80.4274 16.0076 79.989 17.1112 79.989H30.9817C31.5347 79.9785 32.0842 80.0784 32.5981 80.2827C33.1121 80.4871 33.5801 80.7919 33.9749 81.1792C34.3697 81.5666 34.6833 82.0287 34.8974 82.5387C35.1114 83.0487 35.2217 83.5962 35.2217 84.1493C35.2217 84.7024 35.1114 85.2499 34.8974 85.7599C34.6833 86.2698 34.3697 86.732 33.9749 87.1194C33.5801 87.5067 33.1121 87.8115 32.5981 88.0158C32.0842 88.2202 31.5347 88.32 30.9817 88.3095H17.1142C16.5676 88.3101 16.0262 88.203 15.521 87.9942C15.0159 87.7854 14.5568 87.4791 14.1701 87.0928C13.7834 86.7065 13.4766 86.2478 13.2672 85.7428C13.0579 85.2379 12.9502 84.6966 12.9502 84.15Z" stroke="#2A4547" stroke-linecap="round" stroke-linejoin="round"/>
<path d="M36.5332 92.4746C36.533 91.9274 36.6407 91.3856 36.8501 90.8801C37.0594 90.3746 37.3664 89.9154 37.7534 89.5287C38.1405 89.1419 38.5999 88.8353 39.1056 88.6263C39.6112 88.4172 40.1531 88.31 40.7002 88.3105H54.5692C55.6593 88.3312 56.6977 88.7788 57.4613 89.557C58.2249 90.3353 58.6527 91.382 58.6527 92.4723C58.6527 93.5626 58.2249 94.6093 57.4613 95.3876C56.6977 96.1658 55.6593 96.6133 54.5692 96.634H40.7002C40.1533 96.635 39.6116 96.5282 39.1061 96.3196C38.6006 96.111 38.1412 95.8048 37.7541 95.4184C37.3671 95.0321 37.06 94.5732 36.8505 94.0681C36.641 93.5629 36.5332 93.0214 36.5332 92.4746V92.4746Z" stroke="#2A4547" stroke-linecap="round" stroke-linejoin="round"/>
<path d="M54.212 86.1405C54.0183 85.655 53.7072 85.2251 53.3066 84.8893C52.9059 84.5536 52.4283 84.3224 51.9164 84.2166C51.4045 84.1107 50.8743 84.1335 50.3734 84.2829C49.8724 84.4323 49.4164 84.7036 49.046 85.0725C44.4741 89.3448 38.6788 92.0777 32.474 92.8875C31.9847 92.9325 31.5126 93.0908 31.095 93.3498C30.6774 93.6089 30.3258 93.9615 30.0681 94.3799C29.8104 94.7983 29.6536 95.2709 29.6101 95.7604C29.5666 96.2499 29.6376 96.7427 29.8175 97.2L32.2295 103.318C32.4913 103.983 32.9704 104.539 33.5888 104.896C34.2071 105.253 34.9282 105.39 35.6345 105.285C42.3282 104.12 48.6859 101.504 54.2615 97.6215C55.2699 96.8983 56.0069 95.858 56.3547 94.6668C56.7024 93.4756 56.6409 92.2022 56.18 91.05L54.212 86.1405Z" fill="#22A595" stroke="#2A4547" stroke-linejoin="round"/>
<path d="M45.7997 96.0371C45.7997 96.5065 45.6605 96.9653 45.3997 97.3556C45.1389 97.7459 44.7682 98.05 44.3345 98.2296C43.9008 98.4091 43.4236 98.456 42.9632 98.3644C42.5029 98.2727 42.08 98.0465 41.7482 97.7145C41.4164 97.3825 41.1905 96.9595 41.0991 96.4991C41.0077 96.0387 41.0549 95.5615 41.2348 95.1279C41.4146 94.6943 41.719 94.3238 42.1094 94.0633C42.4999 93.8027 42.9588 93.6638 43.4282 93.6641C44.0573 93.6645 44.6605 93.9146 45.1052 94.3596C45.5499 94.8046 45.7997 95.408 45.7997 96.0371Z" fill="white"/>
<path d="M51.5453 81.4114C51.7467 80.9292 51.8256 80.4047 51.7748 79.8845C51.7241 79.3644 51.5452 78.865 51.2543 78.4309C50.9634 77.9967 50.5695 77.6414 50.1078 77.3967C49.646 77.152 49.1308 77.0255 48.6083 77.0284C42.3524 76.8753 36.3019 74.7654 31.3073 70.9954C30.9265 70.6847 30.4787 70.4669 29.9992 70.3592C29.5198 70.2515 29.0218 70.2569 28.5448 70.3749C28.0677 70.4929 27.6247 70.7204 27.2508 71.0392C26.8768 71.358 26.5822 71.7596 26.3903 72.2119L23.8253 78.2689C23.5471 78.9259 23.4994 79.6576 23.6901 80.345C23.8808 81.0325 24.2985 81.6351 24.8753 82.0549C30.467 85.9147 36.8362 88.5028 43.5353 89.6374C44.7603 89.8276 46.0138 89.6022 47.0958 88.997C48.1778 88.3918 49.0261 87.4418 49.5053 86.2984L51.5453 81.4114Z" fill="#22A595" stroke="#2A4547" stroke-linejoin="round"/>
<path d="M38.6 82.575C38.2713 82.91 37.8506 83.1401 37.3911 83.236C36.9317 83.3319 36.4541 83.2894 36.0188 83.1139C35.5835 82.9384 35.21 82.6377 34.9456 82.2499C34.6812 81.8621 34.5377 81.4046 34.5333 80.9353C34.5289 80.466 34.6638 80.0059 34.9209 79.6132C35.178 79.2205 35.5457 78.9129 35.9776 78.7293C36.4096 78.5456 36.8863 78.4942 37.3474 78.5814C37.8086 78.6687 38.2335 78.8908 38.5685 79.2195C38.791 79.4377 38.9684 79.6976 39.0904 79.9844C39.2125 80.2711 39.2768 80.5791 39.2797 80.8908C39.2826 81.2024 39.2241 81.5116 39.1075 81.8006C38.9908 82.0896 38.8184 82.3527 38.6 82.575Z" fill="white"/>
<path d="M59.2188 121.194C59.2188 121.95 60.8217 122.676 63.675 123.211C66.5282 123.746 70.3981 124.047 74.4333 124.047C78.4684 124.047 82.3383 123.746 85.1915 123.211C88.0448 122.676 89.6478 121.95 89.6478 121.194C89.6478 120.437 88.0448 119.711 85.1915 119.176C82.3383 118.641 78.4684 118.341 74.4333 118.341C70.3981 118.341 66.5282 118.641 63.675 119.176C60.8217 119.711 59.2188 120.437 59.2188 121.194Z" fill="#22A595"/>
<path d="M108.657 100.8C108.657 99.6962 108.218 98.6381 107.438 97.8578C106.658 97.0776 105.6 96.6391 104.496 96.6387H90.6258C89.5223 96.6387 88.4639 97.0771 87.6836 97.8574C86.9032 98.6377 86.4648 99.6961 86.4648 100.8C86.4648 101.903 86.9032 102.962 87.6836 103.742C88.4639 104.522 89.5223 104.961 90.6258 104.961H104.496C105.6 104.96 106.658 104.522 107.438 103.742C108.218 102.961 108.657 101.903 108.657 100.8Z" fill="white"/>
<path d="M130.85 100.8C130.85 99.6961 130.411 98.6377 129.631 97.8574C128.851 97.0771 127.792 96.6387 126.689 96.6387H112.818C111.715 96.6387 110.656 97.0771 109.876 97.8574C109.096 98.6377 108.657 99.6961 108.657 100.8C108.657 101.903 109.096 102.962 109.876 103.742C110.656 104.522 111.715 104.961 112.818 104.961H126.687C127.234 104.961 127.775 104.853 128.28 104.644C128.785 104.435 129.244 104.129 129.63 103.742C130.017 103.356 130.324 102.897 130.533 102.392C130.742 101.887 130.85 101.346 130.85 100.8Z" fill="white"/>
<path d="M128.073 92.4745C128.074 91.928 127.967 91.3867 127.758 90.8816C127.549 90.3765 127.243 89.9175 126.856 89.5309C126.47 89.1442 126.011 88.8374 125.507 88.628C125.002 88.4186 124.46 88.3107 123.914 88.3105H110.043C108.953 88.3312 107.915 88.7788 107.151 89.557C106.388 90.3353 105.96 91.382 105.96 92.4723C105.96 93.5626 106.388 94.6093 107.151 95.3876C107.915 96.1658 108.953 96.6133 110.043 96.634H123.914C124.46 96.6342 125.001 96.5268 125.506 96.3178C126.011 96.1089 126.469 95.8025 126.856 95.4162C127.242 95.0299 127.548 94.5713 127.757 94.0666C127.966 93.5618 128.074 93.0208 128.073 92.4745Z" fill="white"/>
<path d="M105.882 92.4745C105.882 91.928 105.775 91.3867 105.566 90.8816C105.357 90.3765 105.051 89.9175 104.665 89.5309C104.279 89.1442 103.82 88.8374 103.315 88.628C102.81 88.4186 102.269 88.3107 101.723 88.3105H87.852C86.762 88.3312 85.7235 88.7788 84.9599 89.557C84.1963 90.3353 83.7686 91.382 83.7686 92.4723C83.7686 93.5626 84.1963 94.6093 84.9599 95.3876C85.7235 96.1658 86.762 96.6133 87.852 96.634H101.723C102.269 96.6342 102.81 96.5268 103.315 96.3178C103.819 96.1089 104.278 95.8025 104.664 95.4162C105.05 95.0299 105.357 94.5713 105.566 94.0666C105.775 93.5618 105.882 93.0208 105.882 92.4745Z" fill="white"/>
<path d="M108.657 100.8C108.657 99.6962 108.218 98.6381 107.438 97.8578C106.658 97.0776 105.6 96.6391 104.496 96.6387H90.6258C89.5223 96.6387 88.4639 97.0771 87.6836 97.8574C86.9032 98.6377 86.4648 99.6961 86.4648 100.8C86.4648 101.903 86.9032 102.962 87.6836 103.742C88.4639 104.522 89.5223 104.961 90.6258 104.961H104.496C105.6 104.96 106.658 104.522 107.438 103.742C108.218 102.961 108.657 101.903 108.657 100.8Z" stroke="#2A4547" stroke-linecap="round" stroke-linejoin="round"/>
<path d="M130.85 100.8C130.85 99.6961 130.411 98.6377 129.631 97.8574C128.851 97.0771 127.792 96.6387 126.689 96.6387H112.818C111.715 96.6387 110.656 97.0771 109.876 97.8574C109.096 98.6377 108.657 99.6961 108.657 100.8C108.657 101.903 109.096 102.962 109.876 103.742C110.656 104.522 111.715 104.961 112.818 104.961H126.687C127.234 104.961 127.775 104.853 128.28 104.644C128.785 104.435 129.244 104.129 129.63 103.742C130.017 103.356 130.324 102.897 130.533 102.392C130.742 101.887 130.85 101.346 130.85 100.8V100.8Z" stroke="#2A4547" stroke-linecap="round" stroke-linejoin="round"/>
<path d="M128.073 92.4745C128.074 91.928 127.967 91.3867 127.758 90.8816C127.549 90.3765 127.243 89.9175 126.856 89.5309C126.47 89.1442 126.011 88.8374 125.507 88.628C125.002 88.4186 124.46 88.3107 123.914 88.3105H110.043C108.953 88.3312 107.915 88.7788 107.151 89.557C106.388 90.3353 105.96 91.382 105.96 92.4723C105.96 93.5626 106.388 94.6093 107.151 95.3876C107.915 96.1658 108.953 96.6133 110.043 96.634H123.914C124.46 96.6342 125.001 96.5268 125.506 96.3178C126.011 96.1089 126.469 95.8025 126.856 95.4162C127.242 95.0299 127.548 94.5713 127.757 94.0666C127.966 93.5618 128.074 93.0208 128.073 92.4745V92.4745Z" stroke="#2A4547" stroke-linecap="round" stroke-linejoin="round"/>
<path d="M129.463 84.1505C129.462 83.047 129.023 81.9891 128.243 81.2091C127.462 80.4291 126.404 79.991 125.3 79.991H111.431C110.878 79.9805 110.329 80.0803 109.815 80.2847C109.301 80.489 108.833 80.7938 108.438 81.1812C108.043 81.5685 107.73 82.0307 107.516 82.5407C107.302 83.0506 107.191 83.5982 107.191 84.1512C107.191 84.7043 107.302 85.2518 107.516 85.7618C107.73 86.2718 108.043 86.734 108.438 87.1213C108.833 87.5087 109.301 87.8134 109.815 88.0178C110.329 88.2221 110.878 88.322 111.431 88.3115H125.3C125.847 88.3117 126.388 88.2042 126.893 87.9952C127.398 87.7862 127.857 87.4797 128.244 87.0933C128.63 86.7069 128.937 86.2481 129.146 85.7432C129.355 85.2382 129.463 84.697 129.463 84.1505Z" fill="white"/>
<path d="M129.463 84.1505C129.462 83.047 129.023 81.9891 128.243 81.2091C127.462 80.4291 126.404 79.991 125.3 79.991H111.431C110.878 79.9805 110.329 80.0803 109.815 80.2847C109.301 80.489 108.833 80.7938 108.438 81.1812C108.043 81.5685 107.73 82.0307 107.516 82.5407C107.302 83.0506 107.191 83.5982 107.191 84.1512C107.191 84.7043 107.302 85.2518 107.516 85.7618C107.73 86.2718 108.043 86.734 108.438 87.1213C108.833 87.5087 109.301 87.8134 109.815 88.0178C110.329 88.2221 110.878 88.322 111.431 88.3115H125.3C125.847 88.3117 126.388 88.2042 126.893 87.9952C127.398 87.7862 127.857 87.4797 128.244 87.0933C128.63 86.7069 128.937 86.2481 129.146 85.7432C129.355 85.2382 129.463 84.697 129.463 84.1505V84.1505Z" stroke="#2A4547" stroke-linecap="round" stroke-linejoin="round"/>
<path d="M105.882 92.4745C105.882 91.928 105.775 91.3867 105.566 90.8816C105.357 90.3765 105.051 89.9175 104.665 89.5309C104.279 89.1442 103.82 88.8374 103.315 88.628C102.81 88.4186 102.269 88.3107 101.723 88.3105H87.852C86.762 88.3312 85.7235 88.7788 84.9599 89.557C84.1963 90.3353 83.7686 91.382 83.7686 92.4723C83.7686 93.5626 84.1963 94.6093 84.9599 95.3876C85.7235 96.1658 86.762 96.6133 87.852 96.634H101.723C102.269 96.6342 102.81 96.5268 103.315 96.3178C103.819 96.1089 104.278 95.8025 104.664 95.4162C105.05 95.0299 105.357 94.5713 105.566 94.0666C105.775 93.5618 105.882 93.0208 105.882 92.4745V92.4745Z" stroke="#2A4547" stroke-linecap="round" stroke-linejoin="round"/>
<path d="M75.6496 21.9394C75.1692 21.5787 74.5846 21.3838 73.9839 21.3838C73.3831 21.3838 72.7986 21.5787 72.3181 21.9394C63.3458 28.6911 52.8089 33.0591 41.6911 34.6354C41.029 34.7278 40.4228 35.0569 39.9846 35.5619C39.5464 36.0668 39.3059 36.7133 39.3076 37.3819V61.6399C39.3094 72.3774 42.5081 82.8713 48.496 91.7841C54.484 100.697 62.99 107.625 72.9301 111.686C73.603 111.961 74.3573 111.961 75.0301 111.686C84.9711 107.626 93.4781 100.698 99.4669 91.7851C105.456 82.8722 108.655 72.3779 108.657 61.6399V37.3789C108.657 36.7103 108.416 36.0643 107.977 35.56C107.538 35.0558 106.931 34.7273 106.269 34.6354C95.1539 33.0583 84.6195 28.6904 75.6496 21.9394Z" fill="white"/>
<path d="M75.6496 21.9394C75.1692 21.5787 74.5846 21.3838 73.9839 21.3838C73.3831 21.3838 72.7986 21.5787 72.3181 21.9394C63.3458 28.6911 52.8089 33.0591 41.6911 34.6354C41.029 34.7278 40.4228 35.0569 39.9846 35.5619C39.5464 36.0668 39.3059 36.7133 39.3076 37.3819V61.6399C39.3094 72.3774 42.5081 82.8713 48.496 91.7841C54.484 100.697 62.99 107.625 72.9301 111.686C73.603 111.961 74.3573 111.961 75.0301 111.686C84.9711 107.626 93.4781 100.698 99.4669 91.7851C105.456 82.8722 108.655 72.3779 108.657 61.6399V37.3789C108.657 36.7103 108.416 36.0643 107.977 35.56C107.538 35.0558 106.931 34.7273 106.269 34.6354C95.1539 33.0583 84.6195 28.6904 75.6496 21.9394V21.9394Z" stroke="#2A4547"/>
<path d="M97.2828 70.1546C97.2825 74.7634 95.9155 79.2686 93.3547 83.1005C90.794 86.9324 87.1544 89.9189 82.8963 91.6824C78.6383 93.4458 73.9529 93.907 69.4327 93.0075C64.9125 92.1081 60.7605 89.8885 57.5018 86.6294C54.2431 83.3703 52.024 79.218 51.1252 74.6977C50.2264 70.1774 50.6881 65.4921 52.4521 61.2342C54.2161 56.9764 57.2031 53.3372 61.0353 50.7769C64.8676 48.2167 69.3729 46.8503 73.9817 46.8506C77.042 46.8504 80.0723 47.4531 82.8996 48.6242C85.7269 49.7953 88.2958 51.5119 90.4595 53.6759C92.6233 55.84 94.3396 58.4091 95.5103 61.2365C96.6811 64.064 97.2833 67.0944 97.2828 70.1546Z" fill="#22A595"/>
<path d="M97.2828 70.1546C97.2825 74.7634 95.9155 79.2686 93.3547 83.1005C90.794 86.9324 87.1544 89.9189 82.8963 91.6824C78.6383 93.4458 73.9529 93.907 69.4327 93.0075C64.9125 92.1081 60.7605 89.8885 57.5018 86.6294C54.2431 83.3703 52.024 79.218 51.1252 74.6977C50.2264 70.1774 50.6881 65.4921 52.4521 61.2342C54.2161 56.9764 57.2031 53.3372 61.0353 50.7769C64.8676 48.2167 69.3729 46.8503 73.9817 46.8506C77.042 46.8504 80.0723 47.4531 82.8996 48.6242C85.7269 49.7953 88.2958 51.5119 90.4595 53.6759C92.6233 55.84 94.3396 58.4091 95.5103 61.2365C96.6811 64.064 97.2833 67.0944 97.2828 70.1546Z" stroke="#2A4547" stroke-linejoin="round"/>
<path d="M68.0635 76.0713C68.0629 77.2422 68.4096 78.3869 69.0597 79.3607C69.7098 80.3345 70.6341 81.0936 71.7156 81.542C72.7972 81.9904 73.9875 82.108 75.1359 81.8798C76.2843 81.6517 77.3393 81.088 78.1673 80.2602C78.9953 79.4324 79.5592 78.3776 79.7877 77.2292C80.0162 76.0809 79.8989 74.8906 79.4508 73.8089C79.0026 72.7272 78.2438 71.8027 77.2701 71.1523C76.2965 70.502 75.1518 70.155 73.981 70.1553C72.8107 70.155 71.6669 69.8077 70.694 69.1574C69.7211 68.5071 68.9628 67.5829 68.5151 66.5016C68.0674 65.4204 67.9504 64.2307 68.1788 63.083C68.4071 61.9353 68.9707 60.881 69.7982 60.0535C70.6257 59.226 71.6799 58.6625 72.8277 58.4341C73.9754 58.2057 75.1651 58.3228 76.2463 58.7705C77.3275 59.2182 78.2517 59.9764 78.9021 60.9493C79.5524 61.9222 79.8997 63.0661 79.9 64.2363" stroke="white" stroke-linecap="round"/>
<path d="M73.9805 58.32V54.3945" stroke="white" stroke-linecap="round"/>
<path d="M73.9805 85.914V81.9885" stroke="white" stroke-linecap="round"/>
<path d="M132.134 44.0835C132.368 43.0706 132.881 42.1437 133.617 41.4086C134.352 40.6735 135.279 40.1596 136.292 39.9255L144.638 37.9995C144.79 37.9641 144.926 37.8781 145.023 37.7555C145.121 37.633 145.174 37.481 145.174 37.3245C145.174 37.168 145.121 37.0161 145.023 36.8935C144.926 36.771 144.79 36.685 144.638 36.6495L136.292 34.725C135.278 34.4912 134.351 33.9775 133.616 33.2423C132.88 32.5071 132.366 31.5802 132.132 30.567L130.208 22.2255C130.172 22.0731 130.086 21.9371 129.964 21.8398C129.841 21.7424 129.689 21.6895 129.533 21.6895C129.376 21.6895 129.224 21.7424 129.102 21.8398C128.979 21.9371 128.893 22.0731 128.858 22.2255L126.933 30.567C126.699 31.5802 126.185 32.5071 125.449 33.2423C124.714 33.9775 123.787 34.4912 122.774 34.725L114.434 36.6495C114.281 36.685 114.145 36.771 114.048 36.8935C113.95 37.0161 113.897 37.168 113.897 37.3245C113.897 37.481 113.95 37.633 114.048 37.7555C114.145 37.8781 114.281 37.9641 114.434 37.9995L122.774 39.9255C123.786 40.1596 124.713 40.6735 125.448 41.4086C126.184 42.1437 126.697 43.0706 126.932 44.0835L128.858 52.4295C128.893 52.582 128.979 52.7179 129.102 52.8153C129.224 52.9126 129.376 52.9656 129.533 52.9656C129.689 52.9656 129.841 52.9126 129.964 52.8153C130.086 52.7179 130.172 52.582 130.208 52.4295L132.134 44.0835Z" fill="white" stroke="#2A4547" stroke-linecap="round" stroke-linejoin="round"/>
<path d="M18.2942 52.1442L24.8237 49.9677C24.9453 49.9266 25.0509 49.8484 25.1258 49.7442C25.2006 49.6399 25.2409 49.5148 25.2409 49.3864C25.2409 49.2581 25.2006 49.1329 25.1258 49.0287C25.0509 48.9244 24.9453 48.8462 24.8237 48.8052L19.4567 47.0157C19.0945 46.8958 18.7652 46.6933 18.495 46.4241C18.2247 46.1548 18.0209 45.8264 17.8997 45.4647L16.1102 40.0992C16.0698 39.9768 15.992 39.8703 15.8876 39.7948C15.7832 39.7193 15.6577 39.6787 15.5289 39.6787C15.4001 39.6787 15.2746 39.7193 15.1702 39.7948C15.0659 39.8703 14.988 39.9768 14.9477 40.0992L13.1657 45.4647C13.0451 45.8257 12.8421 46.1538 12.573 46.423C12.3038 46.6921 11.9757 46.895 11.6147 47.0157L6.24467 48.8052C6.12233 48.8455 6.01584 48.9234 5.94035 49.0277C5.86486 49.1321 5.82422 49.2576 5.82422 49.3864C5.82422 49.5152 5.86486 49.6407 5.94035 49.7451C6.01584 49.8495 6.12233 49.9273 6.24467 49.9677L11.6132 51.7572C11.9742 51.8778 12.3023 52.0807 12.5715 52.3499C12.8406 52.619 13.0436 52.9471 13.1642 53.3082L14.9537 58.6782C14.994 58.8005 15.0719 58.907 15.1762 58.9825C15.2806 59.058 15.4061 59.0986 15.5349 59.0986C15.6637 59.0986 15.7892 59.058 15.8936 58.9825C15.998 58.907 16.0759 58.8005 16.1162 58.6782L18.2942 52.1442Z" fill="white" stroke="#2A4547" stroke-linecap="round" stroke-linejoin="round"/>
</svg>
