<svg width="88" height="88" viewBox="0 0 88 88" fill="none" xmlns="http://www.w3.org/2000/svg">
<rect width="88" height="88" rx="4" fill="#E6F0ED"/>
<rect opacity="0.4" x="25.667" y="32.3334" width="36.6667" height="23.3333" rx="3" fill="#068576"/>
<path fill-rule="evenodd" clip-rule="evenodd" d="M33.0744 42.6143C33.3485 42.4311 33.6707 42.3334 34.0003 42.3334C34.4424 42.3334 34.8663 42.509 35.1788 42.8215C35.4914 43.1341 35.667 43.558 35.667 44C35.667 44.3297 35.5692 44.6519 35.3861 44.926C35.203 45.2001 34.9427 45.4137 34.6381 45.5398C34.3336 45.666 33.9985 45.699 33.6752 45.6347C33.3519 45.5704 33.0549 45.4116 32.8218 45.1786C32.5887 44.9455 32.43 44.6485 32.3657 44.3252C32.3014 44.0019 32.3344 43.6668 32.4605 43.3622C32.5867 43.0577 32.8003 42.7974 33.0744 42.6143ZM53.0744 42.6143C53.3485 42.4311 53.6707 42.3334 54.0003 42.3334C54.4424 42.3334 54.8663 42.509 55.1788 42.8215C55.4914 43.1341 55.667 43.558 55.667 44C55.667 44.3297 55.5692 44.6519 55.3861 44.926C55.203 45.2001 54.9427 45.4137 54.6381 45.5398C54.3336 45.666 53.9985 45.699 53.6752 45.6347C53.3519 45.5704 53.0549 45.4116 52.8218 45.1786C52.5887 44.9455 52.43 44.6485 52.3657 44.3252C52.3014 44.0019 52.3344 43.6668 52.4605 43.3622C52.5867 43.0577 52.8003 42.7974 53.0744 42.6143ZM41.2225 39.8427C42.0447 39.2933 43.0114 39 44.0003 39C45.3264 39 46.5982 39.5268 47.5359 40.4645C48.4735 41.4022 49.0003 42.674 49.0003 44C49.0003 44.9889 48.7071 45.9556 48.1577 46.7779C47.6083 47.6001 46.8274 48.241 45.9137 48.6194C45.0001 48.9979 43.9948 49.0969 43.0249 48.904C42.055 48.711 41.1641 48.2348 40.4648 47.5356C39.7655 46.8363 39.2893 45.9454 39.0964 44.9755C38.9035 44.0056 39.0025 43.0003 39.3809 42.0866C39.7594 41.173 40.4002 40.3921 41.2225 39.8427ZM43.0744 45.3858C43.3485 45.569 43.6707 45.6667 44.0003 45.6667C44.4424 45.6667 44.8663 45.4911 45.1788 45.1786C45.4914 44.866 45.667 44.4421 45.667 44C45.667 43.6704 45.5692 43.3482 45.3861 43.0741C45.203 42.8 44.9427 42.5864 44.6381 42.4602C44.3336 42.3341 43.9985 42.3011 43.6752 42.3654C43.3519 42.4297 43.0549 42.5884 42.8218 42.8215C42.5887 43.0546 42.43 43.3516 42.3657 43.6749C42.3014 43.9982 42.3344 44.3333 42.4605 44.6378C42.5867 44.9424 42.8003 45.2027 43.0744 45.3858Z" fill="#068576"/>
</svg>
