<svg width="151" height="150" viewBox="0 0 151 150" fill="none" xmlns="http://www.w3.org/2000/svg">
<path d="M135.5 74.7469C135.501 65.7922 133.498 56.9506 129.637 48.8708C125.776 40.7911 120.156 33.6781 113.188 28.0532C106.221 22.4284 98.0823 18.4345 89.3701 16.3645C80.658 14.2944 71.5929 14.2007 62.8396 16.0901C54.0865 17.9797 45.8673 21.8045 38.7849 27.284C31.7023 32.7637 25.9362 39.7591 21.9093 47.7574C17.8824 55.7555 15.6967 64.5538 15.5127 73.5065C15.3288 82.4594 17.1511 91.34 20.8461 99.4969H130.154C133.683 91.7234 135.506 83.284 135.5 74.7469Z" fill="#E6F0ED"/>
<path d="M20.8457 99.4961C25.6048 110.002 33.2909 118.914 42.9841 125.164C52.6771 131.414 63.9662 134.738 75.4997 134.738C87.0332 134.738 98.3224 131.414 108.015 125.164C117.709 118.914 125.395 110.002 130.154 99.4961H20.8457Z" fill="white"/>
<path d="M17 99.4961H134" stroke="#2A4547" stroke-linecap="round" stroke-linejoin="round"/>
<path d="M10.25 99.4961H14" stroke="#2A4547" stroke-linecap="round" stroke-linejoin="round"/>
<path d="M137 99.4961H140.75" stroke="#2A4547" stroke-linecap="round" stroke-linejoin="round"/>
<path d="M70.9961 38.1259L103.486 27.2959" stroke="#2A4547" stroke-linecap="round" stroke-linejoin="round"/>
<path d="M119.733 38.1259L103.488 27.2959" stroke="#2A4547" stroke-linecap="round" stroke-linejoin="round"/>
<path d="M98.0701 41.7344L96.2656 48.0524H108.902V41.7344H98.0701Z" fill="white"/>
<path d="M124.251 39.9301C124.251 40.4076 124.061 40.8654 123.723 41.2029C123.386 41.5405 122.928 41.7301 122.451 41.7301H71.3006C70.8221 41.7301 70.3631 41.5399 70.0247 41.2015C69.6863 40.8631 69.4961 40.4041 69.4961 39.9256C69.4961 39.447 69.6863 38.988 70.0247 38.6496C70.3631 38.3112 70.8221 38.1211 71.3006 38.1211H122.44C122.678 38.1198 122.914 38.1655 123.134 38.256C123.354 38.3464 123.554 38.4795 123.723 38.6478C123.891 38.8161 124.025 39.016 124.115 39.2361C124.206 39.4561 124.252 39.6921 124.251 39.9301Z" fill="#22A595"/>
<path d="M124.251 39.9301C124.251 40.4076 124.061 40.8654 123.723 41.2029C123.386 41.5405 122.928 41.7301 122.451 41.7301H71.3006C70.8221 41.7301 70.3631 41.5399 70.0247 41.2015C69.6863 40.8631 69.4961 40.4041 69.4961 39.9256C69.4961 39.447 69.6863 38.988 70.0247 38.6496C70.3631 38.3112 70.8221 38.1211 71.3006 38.1211H122.44C122.678 38.1198 122.914 38.1655 123.134 38.256C123.354 38.3464 123.554 38.4795 123.723 38.6478C123.891 38.8161 124.025 39.016 124.115 39.2361C124.206 39.4561 124.252 39.6921 124.251 39.9301Z" stroke="#2A4547" stroke-linecap="round" stroke-linejoin="round"/>
<path d="M107.098 51.6631H99.877V86.8606H107.098V51.6631Z" fill="white"/>
<path d="M107.098 51.6631H99.877V86.8606H107.098V51.6631Z" stroke="#2A4547" stroke-linecap="round" stroke-linejoin="round"/>
<path d="M107.096 38.1258H99.877L102.577 27.5058C102.628 27.3016 102.746 27.1204 102.912 26.9908C103.078 26.8614 103.283 26.791 103.493 26.791C103.704 26.791 103.909 26.8614 104.075 26.9908C104.241 27.1204 104.359 27.3016 104.41 27.5058L107.096 38.1258Z" fill="white" stroke="#2A4547" stroke-linecap="round" stroke-linejoin="round"/>
<path d="M96.2656 50.1632C96.2656 50.561 96.4237 50.9426 96.705 51.2239C96.9862 51.5051 97.3678 51.6632 97.7656 51.6632H107.402C107.799 51.6632 108.181 51.5051 108.462 51.2239C108.744 50.9426 108.902 50.561 108.902 50.1632V48.0527H96.2656V50.1632Z" fill="#22A595" stroke="#2A4547" stroke-linecap="round" stroke-linejoin="round"/>
<path d="M98.0701 41.7344L96.2656 48.0524H108.902V41.7344H98.0701Z" stroke="#2A4547" stroke-linecap="round" stroke-linejoin="round"/>
<path d="M83.6301 43.845C83.6301 44.2428 83.472 44.6244 83.1908 44.9056C82.9095 45.1869 82.5279 45.345 82.1301 45.345H77.9121C77.5143 45.345 77.1327 45.1869 76.8515 44.9056C76.5702 44.6244 76.4121 44.2428 76.4121 43.845V41.7345H83.6301V43.845Z" fill="white" stroke="#2A4547" stroke-linecap="round" stroke-linejoin="round"/>
<path d="M80.0215 45.3447V71.5182C80.0215 71.9969 80.2117 72.4557 80.5501 72.7941C80.8885 73.1327 81.3475 73.3227 81.826 73.3227C82.3046 73.3227 82.7636 73.1327 83.102 72.7941C83.4404 72.4557 83.6305 71.9969 83.6305 71.5182V70.6182" stroke="#2A4547" stroke-linecap="round" stroke-linejoin="round"/>
<path d="M81.8246 67.005C81.8246 67.361 81.719 67.709 81.5213 68.0051C81.3234 68.301 81.0423 68.5317 80.7134 68.6681C80.3844 68.8043 80.0226 68.8398 79.6734 68.7704C79.3242 68.7009 79.0035 68.5296 78.7518 68.2778C78.5001 68.0261 78.3287 67.7054 78.2592 67.3562C78.1898 67.007 78.2253 66.6452 78.3615 66.3162C78.4979 65.9873 78.7286 65.7062 79.0245 65.5083C79.3206 65.3106 79.6686 65.205 80.0246 65.205C80.502 65.205 80.9598 65.3946 81.2973 65.7323C81.635 66.0698 81.8246 66.5276 81.8246 67.005Z" fill="white" stroke="#2A4547" stroke-linecap="round" stroke-linejoin="round"/>
<path d="M99.877 68.8105L107.096 76.03" stroke="#2A4547" stroke-linecap="round" stroke-linejoin="round"/>
<path d="M107.096 68.8105L99.877 76.03" stroke="#2A4547" stroke-linecap="round" stroke-linejoin="round"/>
<path d="M99.877 76.9336L107.096 84.1531" stroke="#2A4547" stroke-linecap="round" stroke-linejoin="round"/>
<path d="M107.096 76.9336L99.877 84.1531" stroke="#2A4547" stroke-linecap="round" stroke-linejoin="round"/>
<path d="M99.877 60.6885L107.096 67.908" stroke="#2A4547" stroke-linecap="round" stroke-linejoin="round"/>
<path d="M107.096 60.6885L99.877 67.908" stroke="#2A4547" stroke-linecap="round" stroke-linejoin="round"/>
<path d="M99.877 52.5664L107.096 59.7859" stroke="#2A4547" stroke-linecap="round" stroke-linejoin="round"/>
<path d="M107.096 52.5664L99.877 59.7859" stroke="#2A4547" stroke-linecap="round" stroke-linejoin="round"/>
<path d="M111.608 94.0813H95.3633V91.3813C95.3633 89.2271 96.219 87.161 97.7423 85.6378C99.2655 84.1145 101.332 83.2588 103.486 83.2588C105.64 83.2588 107.706 84.1145 109.229 85.6378C110.753 87.161 111.608 89.2271 111.608 91.3813V94.0813Z" fill="#22A595"/>
<path d="M111.608 94.0813H95.3633V91.3813C95.3633 89.2271 96.219 87.161 97.7423 85.6378C99.2655 84.1145 101.332 83.2588 103.486 83.2588C105.64 83.2588 107.706 84.1145 109.229 85.6378C110.753 87.161 111.608 89.2271 111.608 91.3813V94.0813Z" stroke="#2A4547" stroke-linecap="round" stroke-linejoin="round"/>
<path d="M117.026 99.4961H89.9492V97.0811C89.9492 96.2855 90.2653 95.5224 90.8279 94.9598C91.3906 94.3971 92.1536 94.0811 92.9492 94.0811H114.026C114.821 94.0811 115.584 94.3971 116.147 94.9598C116.71 95.5224 117.026 96.2855 117.026 97.0811V99.4961Z" fill="#22A595"/>
<path d="M117.026 99.4961H89.9492V97.0811C89.9492 96.2855 90.2653 95.5224 90.8279 94.9598C91.3906 94.3971 92.1536 94.0811 92.9492 94.0811H114.026C114.821 94.0811 115.584 94.3971 116.147 94.9598C116.71 95.5224 117.026 96.2855 117.026 97.0811V99.4961Z" stroke="#2A4547" stroke-linecap="round" stroke-linejoin="round"/>
<path d="M53.4717 52.2559C47.4489 52.2559 41.6727 54.6484 37.4139 58.9069C33.155 63.1655 30.7622 68.9416 30.7617 74.9644V93.8869H39.5937V129.212H49.6857L50.8377 102.716C50.8593 102.436 50.9262 102.161 51.0357 101.903C51.7019 101.464 52.3016 100.933 52.8162 100.323C53.0283 100.253 53.2487 100.21 53.4717 100.196C53.6939 100.21 53.9132 100.253 54.1242 100.323C54.6405 100.931 55.2405 101.463 55.9062 101.903C56.016 102.161 56.0825 102.436 56.1027 102.716L57.2562 129.212H67.3482V93.8869H76.1802V74.9644C76.1798 68.9419 73.7873 63.1661 69.5286 58.9075C65.27 54.6488 59.4942 52.2563 53.4717 52.2559Z" fill="white"/>
<path d="M53.1154 135.716C64.6951 135.716 74.0824 134.307 74.0824 132.57C74.0824 130.833 64.6951 129.425 53.1154 129.425C41.5357 129.425 32.1484 130.833 32.1484 132.57C32.1484 134.307 41.5357 135.716 53.1154 135.716Z" fill="#22A595"/>
<path d="M53.4717 52.2559C47.4489 52.2559 41.6727 54.6484 37.4139 58.9069C33.155 63.1655 30.7622 68.9416 30.7617 74.9644V93.8869H39.5937V129.212H49.6857L50.8377 102.716C50.8593 102.436 50.9262 102.161 51.0357 101.903C51.7019 101.464 52.3016 100.933 52.8162 100.323C53.0283 100.253 53.2487 100.21 53.4717 100.196C53.6939 100.21 53.9132 100.253 54.1242 100.323C54.6405 100.931 55.2405 101.463 55.9062 101.903C56.016 102.161 56.0825 102.436 56.1027 102.716L57.2562 129.212H67.3482V93.8869H76.1802V74.9644C76.1798 68.9419 73.7873 63.1661 69.5286 58.9075C65.27 54.6488 59.4942 52.2563 53.4717 52.2559Z" stroke="#2A4547" stroke-linecap="round" stroke-linejoin="round"/>
<path d="M38.0004 127.23C37.795 127.547 37.6788 127.913 37.6638 128.29C37.6488 128.667 37.7356 129.041 37.9152 129.373C38.0947 129.705 38.3604 129.982 38.6842 130.175C39.0081 130.369 39.3781 130.472 39.7554 130.473H48.3864C48.7459 130.472 49.0992 130.379 49.4125 130.203C49.7257 130.026 49.9884 129.772 50.1754 129.465C50.3623 129.158 50.4673 128.808 50.4802 128.449C50.4933 128.09 50.4138 127.733 50.2494 127.413C47.9619 122.991 40.6194 123.237 38.0004 127.23Z" fill="#22A595" stroke="#2A4547" stroke-linecap="round" stroke-linejoin="round"/>
<path d="M68.9363 127.23C69.1418 127.547 69.2581 127.913 69.2731 128.29C69.2879 128.667 69.2009 129.041 69.0212 129.373C68.8414 129.705 68.5756 129.983 68.2516 130.176C67.9274 130.37 67.5572 130.472 67.1798 130.473H58.5503C58.1908 130.472 57.8375 130.379 57.5242 130.203C57.211 130.026 56.9483 129.772 56.7613 129.465C56.5744 129.158 56.4694 128.808 56.4565 128.449C56.4434 128.09 56.5229 127.733 56.6873 127.413C58.9778 122.991 66.3218 123.237 68.9363 127.23Z" fill="#22A595" stroke="#2A4547" stroke-linecap="round" stroke-linejoin="round"/>
<path d="M67.3477 93.8865V72.4395" stroke="#2A4547" stroke-linecap="round" stroke-linejoin="round"/>
<path d="M39.5938 93.8865V72.4395" stroke="#2A4547" stroke-linecap="round" stroke-linejoin="round"/>
<path d="M53.4682 72.4396L62.4487 54.1006C59.612 52.8829 56.5574 52.2549 53.4704 52.2549C50.3834 52.2549 47.3288 52.8829 44.4922 54.1006L53.4682 72.4396Z" fill="#22A595" stroke="#2A4547" stroke-linecap="round" stroke-linejoin="round"/>
<path d="M44.5308 64.8716L53.4693 72.4391L44.4918 54.1016L39.4863 64.8716H44.5308Z" fill="#22A595" stroke="#2A4547" stroke-linecap="round" stroke-linejoin="round"/>
<path d="M62.4058 64.8716L53.4688 72.4391L62.4463 54.1016L67.4517 64.8716H62.4058Z" fill="#22A595" stroke="#2A4547" stroke-linecap="round" stroke-linejoin="round"/>
<path d="M53.4707 100.195V72.4395" stroke="#2A4547" stroke-linecap="round" stroke-linejoin="round"/>
<path d="M67.3477 98.301C67.3477 99.4722 67.813 100.595 68.6411 101.424C69.4693 102.252 70.5925 102.717 71.7637 102.717C72.9349 102.717 74.0581 102.252 74.8862 101.424C75.7144 100.595 76.1797 99.4722 76.1797 98.301V93.8865H67.3477V98.301Z" fill="#22A595" stroke="#2A4547" stroke-linecap="round" stroke-linejoin="round"/>
<path d="M39.5937 98.3012C39.5937 99.4724 39.1284 100.596 38.3003 101.424C37.4721 102.252 36.3489 102.717 35.1777 102.717C34.0065 102.717 32.8833 102.252 32.0552 101.424C31.227 100.596 30.7617 99.4724 30.7617 98.3012V93.8867H39.5937V98.3012Z" fill="#22A595" stroke="#2A4547" stroke-linecap="round" stroke-linejoin="round"/>
<path d="M44.3107 113.788L41.0557 109.612C40.9593 109.489 40.8364 109.388 40.696 109.318C40.5555 109.248 40.4011 109.21 40.2442 109.207L28.6657 109.033C28.5001 109.031 28.3365 109.068 28.1878 109.141C28.0393 109.214 27.91 109.321 27.8107 109.453L24.5557 113.793C24.4197 113.974 24.346 114.195 24.3457 114.421V122.071C24.3457 122.628 24.567 123.163 24.9609 123.556C25.3546 123.95 25.8888 124.171 26.4457 124.171H42.4342C42.9912 124.171 43.5253 123.95 43.9192 123.556C44.313 123.163 44.5342 122.628 44.5342 122.071V114.432C44.5333 114.199 44.4547 113.972 44.3107 113.788Z" fill="#22A595"/>
<path d="M44.3107 113.788L41.0557 109.612C40.9593 109.489 40.8364 109.388 40.696 109.318C40.5555 109.248 40.4011 109.21 40.2442 109.207L28.6657 109.033C28.5001 109.031 28.3365 109.068 28.1878 109.141C28.0393 109.214 27.91 109.321 27.8107 109.453L24.5557 113.793C24.4197 113.974 24.346 114.195 24.3457 114.421V122.071C24.3457 122.628 24.567 123.163 24.9609 123.556C25.3546 123.95 25.8888 124.171 26.4457 124.171H42.4342C42.9912 124.171 43.5253 123.95 43.9192 123.556C44.313 123.163 44.5342 122.628 44.5342 122.071V114.432C44.5333 114.199 44.4547 113.972 44.3107 113.788Z" stroke="#2A4547" stroke-linecap="round" stroke-linejoin="round"/>
<path d="M30.6445 114.11L33.2725 102.288" stroke="#2A4547" stroke-linecap="round" stroke-linejoin="round"/>
<path d="M38.2569 114.223L35.6934 102.687" stroke="#2A4547" stroke-linecap="round" stroke-linejoin="round"/>
<path d="M59.4495 53.0373C59.0976 52.9432 58.7867 52.7353 58.5653 52.4461C58.3439 52.1569 58.2245 51.8024 58.2255 51.4382L58.233 42.7188H48.8625V51.4353C48.863 51.799 48.7431 52.1527 48.5219 52.4413C48.3005 52.7299 47.99 52.9374 47.6385 53.0312C46.5879 53.3131 45.5592 53.671 44.5605 54.1023C45.3554 55.8139 46.6229 57.2626 48.2138 58.2778C49.8045 59.293 51.6524 59.8324 53.5395 59.8324C55.4267 59.8324 57.2745 59.293 58.8653 58.2778C60.4562 57.2626 61.7237 55.8139 62.5185 54.1023C61.5227 53.6736 60.497 53.3176 59.4495 53.0373Z" fill="white" stroke="#2A4547" stroke-linecap="round" stroke-linejoin="round"/>
<path d="M68.2108 37.35C68.2057 36.7526 67.9936 36.1754 67.6108 35.7167C67.2279 35.258 66.6978 34.9463 66.1108 34.8345V33.15C66.1108 29.8134 64.7854 26.6136 62.4261 24.2543C60.0667 21.8949 56.8669 20.5695 53.5303 20.5695C50.1937 20.5695 46.9939 21.8949 44.6346 24.2543C42.2752 26.6136 40.9498 29.8134 40.9498 33.15V34.8285C40.3386 34.9433 39.7897 35.2758 39.4051 35.7647C39.0205 36.2535 38.8266 36.8654 38.859 37.4864C38.8914 38.1075 39.1482 38.6957 39.5815 39.1418C40.0149 39.5879 40.5954 39.8616 41.2153 39.912C41.8053 42.7419 43.3518 45.2823 45.5947 47.106C47.8377 48.9296 50.6403 49.9251 53.5311 49.9251C56.4219 49.9251 59.2245 48.9296 61.4674 47.106C63.7104 45.2823 65.2569 42.7419 65.8468 39.912C66.4887 39.8547 67.0861 39.5606 67.5231 39.087C67.96 38.6135 68.2051 37.9943 68.2108 37.35Z" fill="white" stroke="#2A4547" stroke-linecap="round" stroke-linejoin="round"/>
<path d="M48.8142 36.3003C49.6824 36.3003 50.3862 35.5965 50.3862 34.7283C50.3862 33.8601 49.6824 33.1562 48.8142 33.1562C47.946 33.1562 47.2422 33.8601 47.2422 34.7283C47.2422 35.5965 47.946 36.3003 48.8142 36.3003Z" fill="#2A4547"/>
<path d="M58.2497 36.3003C59.1179 36.3003 59.8217 35.5965 59.8217 34.7283C59.8217 33.8601 59.1179 33.1562 58.2497 33.1562C57.3815 33.1562 56.6777 33.8601 56.6777 34.7283C56.6777 35.5965 57.3815 36.3003 58.2497 36.3003Z" fill="#2A4547"/>
<path d="M46.7185 40.4936C47.5867 40.4936 48.2905 39.7898 48.2905 38.9216C48.2905 38.0534 47.5867 37.3496 46.7185 37.3496C45.8503 37.3496 45.1465 38.0534 45.1465 38.9216C45.1465 39.7898 45.8503 40.4936 46.7185 40.4936Z" fill="#22A595"/>
<path d="M60.3474 40.4936C61.2156 40.4936 61.9194 39.7898 61.9194 38.9216C61.9194 38.0534 61.2156 37.3496 60.3474 37.3496C59.4792 37.3496 58.7754 38.0534 58.7754 38.9216C58.7754 39.7898 59.4792 40.4936 60.3474 40.4936Z" fill="#22A595"/>
<path d="M50.3867 42.6865C51.3181 43.3078 52.4126 43.6393 53.5322 43.6393C54.6518 43.6393 55.7464 43.3078 56.6777 42.6865" stroke="#2A4547" stroke-linecap="round" stroke-linejoin="round"/>
<path d="M37.8066 31.0586H69.2586" stroke="#2A4547" stroke-linecap="round" stroke-linejoin="round"/>
<path d="M67.1623 28.962C67.1623 25.3473 65.7263 21.8808 63.1705 19.3248C60.6145 16.769 57.148 15.333 53.5333 15.333C49.9186 15.333 46.4521 16.769 43.8961 19.3248C41.3402 21.8808 39.9043 25.3473 39.9043 28.962V31.062H67.1623V28.962Z" fill="#22A595"/>
<path d="M67.1623 28.962C67.1623 25.3473 65.7263 21.8808 63.1705 19.3248C60.6145 16.769 57.148 15.333 53.5333 15.333C49.9186 15.333 46.4521 16.769 43.8961 19.3248C41.3402 21.8808 39.9043 25.3473 39.9043 28.962V31.062H67.1623V28.962Z" stroke="#2A4547" stroke-linecap="round" stroke-linejoin="round"/>
<path d="M56.6786 31.0591H50.3876L48.5141 17.0056C48.4412 16.5077 48.5517 16.0004 48.8253 15.5782C49.0988 15.1559 49.5165 14.8476 50.0006 14.7106C52.3253 14.1421 54.7529 14.1421 57.0776 14.7106C57.5606 14.8488 57.9768 15.1577 58.2492 15.5798C58.5215 16.0019 58.6313 16.5086 58.5581 17.0056L56.6786 31.0591Z" fill="#22A595"/>
<path d="M56.6786 31.0591H50.3876L48.5141 17.0056C48.4412 16.5077 48.5517 16.0004 48.8253 15.5782C49.0988 15.1559 49.5165 14.8476 50.0006 14.7106C52.3253 14.1421 54.7529 14.1421 57.0776 14.7106C57.5606 14.8488 57.9768 15.1577 58.2492 15.5798C58.5215 16.0019 58.6313 16.5086 58.5581 17.0056L56.6786 31.0591Z" stroke="#2A4547" stroke-linecap="round" stroke-linejoin="round"/>
<path d="M63.0194 19.176L61.9199 26.865" stroke="#2A4547" stroke-linecap="round" stroke-linejoin="round"/>
<path d="M44.0469 19.1758L45.1464 26.8648" stroke="#2A4547" stroke-linecap="round" stroke-linejoin="round"/>
</svg>
