<svg width="151" height="151" viewBox="0 0 151 151" fill="none" xmlns="http://www.w3.org/2000/svg">
<path d="M75.5 135.999C108.637 135.999 135.5 109.136 135.5 75.9988C135.5 42.8617 108.637 15.9988 75.5 15.9988C42.3629 15.9988 15.5 42.8617 15.5 75.9988C15.5 109.136 42.3629 135.999 75.5 135.999Z" fill="#E6F0ED"/>
<path d="M65.3003 126.843C77.8187 126.843 87.9668 125.6 87.9668 124.068C87.9668 122.535 77.8187 121.293 65.3003 121.293C52.7819 121.293 42.6338 122.535 42.6338 124.068C42.6338 125.6 52.7819 126.843 65.3003 126.843Z" fill="#22A595"/>
<path d="M36.0499 106.572C36.0497 106.832 36.1007 107.089 36.2002 107.33C36.2996 107.57 36.4454 107.789 36.6293 107.973C36.8132 108.157 37.0315 108.303 37.2718 108.402C37.5121 108.502 37.7698 108.553 38.0299 108.553H95.4799C96.0055 108.553 96.5095 108.344 96.881 107.973C97.2526 107.601 97.4614 107.097 97.4614 106.572V42.1841L80.6269 25.3436H38.0269C37.5016 25.3439 36.998 25.5528 36.6268 25.9244C36.2554 26.2961 36.0469 26.7998 36.0469 27.3251L36.0499 106.572Z" fill="white" stroke="#2A4547" stroke-linecap="round" stroke-linejoin="round"/>
<path d="M97.4674 42.1841H82.4765C81.9864 42.1824 81.5169 41.9871 81.1704 41.6406C80.8239 41.2941 80.6285 40.8246 80.627 40.3346V25.3436L97.4674 42.1841Z" fill="#22A595" stroke="#2A4547" stroke-linecap="round" stroke-linejoin="round"/>
<path d="M132.883 49.131C133.396 49.6829 133.795 50.3309 134.056 51.0375C134.318 51.7442 134.437 52.4955 134.407 53.2485C134.377 54.0014 134.198 54.7409 133.881 55.4244C133.564 56.108 133.114 56.7219 132.559 57.231L90.409 96.135H90.3835L82.627 87.735V87.7095L124.777 48.804C125.329 48.2901 125.977 47.8905 126.685 47.6286C127.392 47.3667 128.144 47.2475 128.898 47.2779C129.652 47.3084 130.392 47.4878 131.076 47.8058C131.76 48.1239 132.374 48.5742 132.883 49.131Z" fill="#22A595"/>
<path d="M114.243 58.5311L122.024 66.9611" stroke="#2A4547" stroke-linecap="round" stroke-linejoin="round"/>
<path d="M104.111 58.1269L111.487 51.3169C112.179 50.678 112.99 50.1818 113.873 49.8565C114.757 49.5311 115.696 49.3829 116.637 49.4206C117.578 49.4582 118.502 49.6808 119.357 50.0756C120.212 50.4704 120.981 51.0298 121.619 51.7219" stroke="#2A4547" stroke-linecap="round" stroke-linejoin="round"/>
<path d="M90.3891 96.1396L79.8591 99.2043C78.8811 99.4878 78.3786 98.9418 78.7386 97.9908L82.6386 87.7381L90.3891 96.1396Z" fill="white" stroke="#2A4547" stroke-linecap="round" stroke-linejoin="round"/>
<path d="M132.883 49.131C133.396 49.6829 133.795 50.3309 134.056 51.0375C134.318 51.7442 134.437 52.4955 134.407 53.2485C134.377 54.0014 134.198 54.7409 133.881 55.4244C133.564 56.108 133.114 56.7219 132.559 57.231L90.409 96.135H90.3835L82.627 87.735V87.7095L124.777 48.804C125.329 48.2901 125.977 47.8905 126.685 47.6286C127.392 47.3667 128.144 47.2475 128.898 47.2779C129.652 47.3084 130.392 47.4878 131.076 47.8058C131.76 48.1239 132.374 48.5742 132.883 49.131Z" stroke="#2A4547" stroke-linecap="round" stroke-linejoin="round"/>
<path d="M45.8359 68.0454L48.3499 70.4289L55.0279 62.3709" stroke="#2A4547" stroke-linecap="round" stroke-linejoin="round"/>
<path d="M58.0996 68.6113L59.2996 69.7768C59.6853 70.1497 60.2031 70.3545 60.7395 70.3458C61.2759 70.3369 61.7869 70.1157 62.1601 69.7303L63.3256 68.5303C63.5104 68.3391 63.7309 68.1862 63.9748 68.0803C64.2186 67.9746 64.4809 67.9177 64.7467 67.9134C65.0125 67.9089 65.2765 67.9567 65.5237 68.0544C65.7711 68.152 65.9967 68.2974 66.1876 68.4823L67.3876 69.6478C67.5787 69.8326 67.8043 69.978 68.0515 70.0756C68.2987 70.1733 68.5629 70.2211 68.8287 70.2168C69.0943 70.2123 69.3567 70.1554 69.6006 70.0497C69.8443 69.9438 70.065 69.7909 70.2496 69.5998L71.4151 68.3998C71.5998 68.2074 71.8207 68.0533 72.0651 67.9465C72.3096 67.8397 72.5727 67.7823 72.8394 67.7775C73.1059 67.7728 73.371 67.8208 73.6191 67.9188C73.867 68.0169 74.0932 68.163 74.2846 68.3488L75.7231 69.6553C75.9141 69.8404 76.1395 69.9861 76.3867 70.0839C76.6339 70.1818 76.8979 70.23 77.1639 70.2256C77.4297 70.2213 77.692 70.1646 77.9359 70.0587C78.1798 69.9529 78.4005 69.7999 78.5851 69.6088L79.7506 68.4088C79.9354 68.2176 80.1559 68.0647 80.3998 67.959C80.6436 67.8531 80.9059 67.7962 81.1717 67.7919C81.4375 67.7874 81.7015 67.8354 81.9487 67.9329C82.1961 68.0305 82.4217 68.1759 82.6126 68.3608L84.1441 69.7858" stroke="#2A4547" stroke-linecap="round" stroke-linejoin="round"/>
<path d="M45.8359 47.5452L48.3499 49.9287L55.0279 41.8707" stroke="#2A4547" stroke-linecap="round" stroke-linejoin="round"/>
<path d="M58.0996 48.1119L59.2996 49.2774C59.4906 49.4622 59.716 49.6075 59.9631 49.705C60.2103 49.8027 60.4743 49.8507 60.7399 49.8462C61.0056 49.8417 61.2676 49.785 61.5114 49.6791C61.7551 49.5733 61.9756 49.4205 62.1601 49.2294L63.3256 48.0294C63.5104 47.8383 63.7309 47.6854 63.9748 47.5795C64.2186 47.4736 64.4809 47.4169 64.7467 47.4124C65.0125 47.4079 65.2765 47.4559 65.5237 47.5536C65.7711 47.6511 65.9967 47.7966 66.1876 47.9814L67.3876 49.1469C67.5787 49.3317 67.8043 49.477 68.0515 49.5747C68.2987 49.6723 68.5629 49.7203 68.8287 49.7158C69.0943 49.7113 69.3567 49.6546 69.6006 49.5487C69.8443 49.4428 70.065 49.29 70.2496 49.0989L71.4151 47.8989C71.7886 47.5134 72.2998 47.292 72.8365 47.2833C73.3732 47.2746 73.8913 47.4792 74.2771 47.8524L75.7156 49.1589C76.1014 49.5319 76.6197 49.7367 77.1562 49.728C77.6929 49.7193 78.2041 49.4979 78.5776 49.1124L79.7431 47.9124C79.9279 47.7213 80.1484 47.5684 80.3923 47.4625C80.6361 47.3566 80.8984 47.2999 81.1642 47.2954C81.43 47.2909 81.694 47.3389 81.9412 47.4366C82.1886 47.5341 82.4142 47.6796 82.6051 47.8644L84.1366 49.2894" stroke="#2A4547" stroke-linecap="round" stroke-linejoin="round"/>
<path d="M45.8359 86.0787L48.3499 88.4622L55.0279 80.4042" stroke="#2A4547" stroke-linecap="round" stroke-linejoin="round"/>
<path d="M58.0996 85.7204L59.2996 86.8859C59.4906 87.0707 59.716 87.2161 59.9631 87.3137C60.2103 87.4112 60.4743 87.4592 60.7399 87.4547C61.0056 87.4504 61.2676 87.3935 61.5114 87.2876C61.7551 87.1819 61.9756 87.029 62.1601 86.8379L63.3256 85.6379C63.6991 85.2524 64.2103 85.031 64.747 85.0223C65.2837 85.0136 65.8018 85.2184 66.1876 85.5914L67.3876 86.7569C67.5787 86.9417 67.8043 87.0871 68.0515 87.1847C68.2987 87.2824 68.5629 87.3304 68.8287 87.3259C69.0943 87.3214 69.3567 87.2647 69.6006 87.1588C69.8443 87.0529 70.065 86.9 70.2496 86.7089L71.4151 85.5089C71.5992 85.3159 71.8197 85.1611 72.0637 85.0535C72.3078 84.946 72.5707 84.8878 72.8374 84.8821C73.1041 84.8765 73.3693 84.9238 73.6176 85.021C73.866 85.1183 74.0926 85.2637 74.2846 85.4489" stroke="#2A4547" stroke-linecap="round" stroke-linejoin="round"/>
</svg>
