<svg width="80" height="80" viewBox="0 0 80 80" fill="none" xmlns="http://www.w3.org/2000/svg">
<path d="M40 72C57.6731 72 72 57.6731 72 40C72 22.3269 57.6731 8 40 8C22.3269 8 8 22.3269 8 40C8 57.6731 22.3269 72 40 72Z" fill="#E6F0ED"/>
<path d="M34.5605 67.1167C41.237 67.1167 46.6493 66.4541 46.6493 65.6367C46.6493 64.8194 41.237 64.1567 34.5605 64.1567C27.884 64.1567 22.4717 64.8194 22.4717 65.6367C22.4717 66.4541 27.884 67.1167 34.5605 67.1167Z" fill="#22A595"/>
<path d="M18.9596 56.3056C18.9595 56.4443 18.9867 56.5818 19.0398 56.7099C19.0928 56.8382 19.1706 56.9547 19.2686 57.0528C19.3667 57.151 19.4831 57.2288 19.6113 57.2819C19.7394 57.3351 19.8769 57.3624 20.0156 57.3624H50.6556C50.9359 57.3624 51.2047 57.251 51.4029 57.0529C51.601 56.8547 51.7124 56.5859 51.7124 56.3056V21.9656L42.734 12.984H20.014C19.7338 12.9842 19.4653 13.0956 19.2673 13.2938C19.0692 13.492 18.958 13.7606 18.958 14.0408L18.9596 56.3056Z" fill="white" stroke="#2A4547" stroke-linecap="round" stroke-linejoin="round"/>
<path d="M51.716 21.9656H43.7208C43.4594 21.9647 43.209 21.8606 43.0242 21.6758C42.8394 21.491 42.7352 21.2406 42.7344 20.9792V12.984L51.716 21.9656Z" fill="#22A595" stroke="#2A4547" stroke-linecap="round" stroke-linejoin="round"/>
<path d="M70.604 25.6704C70.8776 25.9647 71.0903 26.3103 71.2297 26.6872C71.3693 27.064 71.4328 27.4648 71.4167 27.8664C71.4007 28.2679 71.3053 28.6623 71.1361 29.0268C70.967 29.3914 70.7274 29.7188 70.4312 29.9904L47.9512 50.7392H47.9376L43.8008 46.2592V46.2456L66.2808 25.496C66.5752 25.2219 66.921 25.0088 67.2983 24.8691C67.6756 24.7294 68.0768 24.6658 68.4787 24.682C68.8807 24.6983 69.2754 24.794 69.6402 24.9636C70.005 25.1332 70.3325 25.3734 70.604 25.6704Z" fill="#22A595"/>
<path d="M60.6631 30.684L64.8127 35.18" stroke="#2A4547" stroke-linecap="round" stroke-linejoin="round"/>
<path d="M55.2588 30.4681L59.1924 26.8361C59.5613 26.4954 59.9938 26.2307 60.4652 26.0572C60.9365 25.8837 61.4373 25.8046 61.9391 25.8247C62.441 25.8448 62.9339 25.9635 63.3898 26.1741C63.8458 26.3846 64.2558 26.683 64.5964 27.0521" stroke="#2A4547" stroke-linecap="round" stroke-linejoin="round"/>
<path d="M47.9408 50.7415L42.3248 52.376C41.8032 52.5272 41.5352 52.236 41.7272 51.7288L43.8072 46.2607L47.9408 50.7415Z" fill="white" stroke="#2A4547" stroke-linecap="round" stroke-linejoin="round"/>
<path d="M70.604 25.6704C70.8776 25.9647 71.0903 26.3103 71.2297 26.6872C71.3693 27.064 71.4328 27.4648 71.4167 27.8664C71.4007 28.2679 71.3053 28.6623 71.1361 29.0268C70.967 29.3914 70.7274 29.7188 70.4312 29.9904L47.9512 50.7392H47.9376L43.8008 46.2592V46.2456L66.2808 25.496C66.5752 25.2219 66.921 25.0088 67.2983 24.8691C67.6756 24.7294 68.0768 24.6658 68.4787 24.682C68.8807 24.6983 69.2754 24.794 69.6402 24.9636C70.005 25.1332 70.3325 25.3734 70.604 25.6704Z" stroke="#2A4547" stroke-linecap="round" stroke-linejoin="round"/>
<path d="M24.1797 35.7583L25.5205 37.0295L29.0821 32.7319" stroke="#2A4547" stroke-linecap="round" stroke-linejoin="round"/>
<path d="M30.7197 36.06L31.3597 36.6816C31.5654 36.8805 31.8416 36.9897 32.1276 36.985C32.4137 36.9803 32.6863 36.8623 32.8853 36.6568L33.5069 36.0168C33.6055 35.9148 33.7231 35.8333 33.8532 35.7768C33.9832 35.7204 34.1231 35.6901 34.2648 35.6878C34.4066 35.6854 34.5474 35.7109 34.6792 35.763C34.8112 35.815 34.9315 35.8926 35.0333 35.9912L35.6733 36.6128C35.7752 36.7114 35.8956 36.7889 36.0274 36.841C36.1592 36.893 36.3001 36.9186 36.4419 36.9162C36.5836 36.9138 36.7235 36.8835 36.8536 36.8271C36.9836 36.7706 37.1012 36.6891 37.1997 36.5872L37.8213 35.9472C37.9198 35.8446 38.0376 35.7624 38.168 35.7054C38.2984 35.6485 38.4387 35.6178 38.5809 35.6153C38.7231 35.6128 38.8644 35.6384 38.9968 35.6906C39.129 35.743 39.2496 35.8209 39.3517 35.92L40.1189 36.6168C40.2208 36.7155 40.341 36.7932 40.4728 36.8454C40.6047 36.8976 40.7455 36.9233 40.8873 36.921C41.0291 36.9186 41.169 36.8884 41.2991 36.8319C41.4292 36.7755 41.5468 36.6939 41.6453 36.592L42.2669 35.952C42.3655 35.85 42.4831 35.7685 42.6132 35.7121C42.7432 35.6556 42.8831 35.6253 43.0248 35.623C43.1666 35.6206 43.3074 35.6462 43.4392 35.6982C43.5712 35.7502 43.6915 35.8278 43.7933 35.9264L44.6101 36.6864" stroke="#2A4547" stroke-linecap="round" stroke-linejoin="round"/>
<path d="M24.1797 24.8247L25.5205 26.0959L29.0821 21.7983" stroke="#2A4547" stroke-linecap="round" stroke-linejoin="round"/>
<path d="M30.7197 25.1271L31.3597 25.7487C31.4616 25.8473 31.5818 25.9248 31.7136 25.9768C31.8454 26.0289 31.9862 26.0545 32.1279 26.0521C32.2696 26.0497 32.4093 26.0194 32.5393 25.963C32.6693 25.9066 32.7869 25.825 32.8853 25.7231L33.5069 25.0831C33.6055 24.9812 33.7231 24.8997 33.8532 24.8432C33.9832 24.7867 34.1231 24.7565 34.2648 24.7541C34.4066 24.7517 34.5474 24.7773 34.6792 24.8294C34.8112 24.8814 34.9315 24.959 35.0333 25.0575L35.6733 25.6791C35.7752 25.7777 35.8956 25.8552 36.0274 25.9073C36.1592 25.9594 36.3001 25.985 36.4419 25.9826C36.5836 25.9802 36.7235 25.9499 36.8536 25.8934C36.9836 25.837 37.1012 25.7554 37.1997 25.6535L37.8213 25.0135C38.0205 24.8079 38.2932 24.6898 38.5794 24.6852C38.8656 24.6806 39.142 24.7897 39.3477 24.9887L40.1149 25.6855C40.3207 25.8845 40.5971 25.9937 40.8832 25.989C41.1695 25.9844 41.4421 25.8663 41.6413 25.6607L42.2629 25.0207C42.3615 24.9188 42.4791 24.8373 42.6092 24.7808C42.7392 24.7243 42.8791 24.6941 43.0208 24.6917C43.1626 24.6893 43.3034 24.7149 43.4352 24.767C43.5672 24.819 43.6875 24.8966 43.7893 24.9951L44.6061 25.7551" stroke="#2A4547" stroke-linecap="round" stroke-linejoin="round"/>
<path d="M24.1797 45.3759L25.5205 46.6471L29.0821 42.3495" stroke="#2A4547" stroke-linecap="round" stroke-linejoin="round"/>
<path d="M30.7197 45.1847L31.3597 45.8063C31.4616 45.9048 31.5818 45.9823 31.7136 46.0344C31.8454 46.0864 31.9862 46.112 32.1279 46.1096C32.2696 46.1073 32.4093 46.077 32.5393 46.0205C32.6693 45.9641 32.7869 45.8826 32.8853 45.7807L33.5069 45.1407C33.7061 44.9351 33.9788 44.817 34.265 44.8123C34.5512 44.8077 34.8276 44.9169 35.0333 45.1159L35.6733 45.7375C35.7752 45.836 35.8956 45.9135 36.0274 45.9656C36.1592 46.0177 36.3001 46.0433 36.4419 46.0409C36.5836 46.0385 36.7235 46.0083 36.8536 45.9518C36.9836 45.8953 37.1012 45.8138 37.1997 45.7119L37.8213 45.0719C37.9195 44.9689 38.0371 44.8863 38.1672 44.829C38.2974 44.7716 38.4376 44.7406 38.5799 44.7375C38.7221 44.7346 38.8636 44.7598 38.996 44.8116C39.1284 44.8635 39.2493 44.9411 39.3517 45.0399" stroke="#2A4547" stroke-linecap="round" stroke-linejoin="round"/>
</svg>
