<svg width="88" height="88" viewBox="0 0 88 88" fill="none" xmlns="http://www.w3.org/2000/svg">
<rect width="88" height="88" rx="4" fill="#E6F0ED"/>
<rect x="27.333" y="27.3365" width="33.3333" height="33.3333" rx="16.6667" fill="#068576" fill-opacity="0.4"/>
<path d="M43.1441 32.7204C42.8886 32.9961 37.333 39.5183 37.333 44.8208C37.333 48.872 40.6663 51.1839 42.8886 52.1596V54.6094C42.8886 54.8906 43.0056 55.1604 43.214 55.3593C43.4224 55.5581 43.705 55.6699 43.9997 55.6699C44.2944 55.6699 44.577 55.5581 44.7854 55.3593C44.9937 55.1604 45.1108 54.8906 45.1108 54.6094V52.1596C47.333 51.2369 50.6663 48.872 50.6663 44.8208C50.6663 39.5183 45.1108 32.9961 44.8552 32.7204C44.751 32.6003 44.6202 32.5036 44.4724 32.4373C44.3245 32.3709 44.1631 32.3365 43.9997 32.3365C43.8363 32.3365 43.6749 32.3709 43.527 32.4373C43.3791 32.5036 43.2484 32.6003 43.1441 32.7204ZM45.1108 49.7946V41.8832C45.1108 41.602 44.9937 41.3322 44.7854 41.1333C44.577 40.9344 44.2944 40.8227 43.9997 40.8227C43.705 40.8227 43.4224 40.9344 43.214 41.1333C43.0056 41.3322 42.8886 41.602 42.8886 41.8832V49.7946C36.9552 46.5601 40.0108 40.3985 43.9997 35.149C48.0219 40.4303 51.0219 46.5707 45.1108 49.7946Z" fill="#068576"/>
</svg>
