<svg width="88" height="88" viewBox="0 0 88 88" fill="none" xmlns="http://www.w3.org/2000/svg">
<rect width="88" height="88" rx="4" fill="#E6F0ED"/>
<path d="M39.0003 35.6666C39.0003 32.8333 41.167 30.6666 44.0003 30.6666C46.8337 30.6666 49.0003 32.8333 49.0003 35.6666V39H52.3337V35.6666C52.3337 31 48.667 27.3333 44.0003 27.3333C39.3337 27.3333 35.667 31 35.667 35.6666V39H39.0003V35.6666ZM46.5003 48.1666C46.5003 46.8333 45.3337 45.6666 44.0003 45.6666C42.667 45.6666 41.5003 46.8333 41.5003 48.1666C41.5003 48.8333 41.8337 49.5 42.3337 50V52.3333C42.3337 53.3333 43.0003 54 44.0003 54C45.0003 54 45.667 53.3333 45.667 52.3333V50C46.167 49.5 46.5003 48.8333 46.5003 48.1666Z" fill="#068576" fill-opacity="0.4"/>
<path d="M52.3337 39H35.667C32.8337 39 30.667 41.1667 30.667 44V55.6667C30.667 58.5 32.8337 60.6667 35.667 60.6667H52.3337C55.167 60.6667 57.3337 58.5 57.3337 55.6667V44C57.3337 41.1667 55.167 39 52.3337 39ZM45.667 50V52.3333C45.667 53.3333 45.0003 54 44.0003 54C43.0003 54 42.3337 53.3333 42.3337 52.3333V50C41.8337 49.5 41.5003 48.8333 41.5003 48.1667C41.5003 46.8333 42.667 45.6667 44.0003 45.6667C45.3337 45.6667 46.5003 46.8333 46.5003 48.1667C46.5003 48.8333 46.167 49.5 45.667 50Z" fill="#068576"/>
</svg>
