<svg width="151" height="150" viewBox="0 0 151 150" fill="none" xmlns="http://www.w3.org/2000/svg">
<path d="M134.99 77.0145C134.991 68.0598 132.988 59.2183 129.127 51.1385C125.267 43.0588 119.646 35.9457 112.679 30.3208C105.711 24.696 97.5725 20.7021 88.8603 18.6321C80.1481 16.562 71.083 16.4683 62.3298 18.3578C53.5767 20.2473 45.3575 24.0721 38.275 29.5517C31.1925 35.0313 25.4264 42.0268 21.3994 50.025C17.3725 58.0232 15.1869 66.8214 15.0029 75.7742C14.8189 84.7271 16.6413 93.6076 20.3362 101.765H129.65C133.178 93.9908 134.999 85.5513 134.99 77.0145Z" fill="#E6F0ED"/>
<path d="M16.4961 101.765H133.496M9.74609 101.765H13.4961M136.496 101.765H140.246" stroke="#2A4547" stroke-linecap="round" stroke-linejoin="round"/>
<path d="M128.582 52.9362C128.81 51.9525 129.309 51.0524 130.023 50.3388C130.738 49.6251 131.638 49.1264 132.622 48.8997L140.722 47.0292C140.87 46.9943 141.002 46.9104 141.096 46.7912C141.191 46.6719 141.242 46.5243 141.242 46.3722C141.242 46.2201 141.191 46.0724 141.096 45.9532C141.002 45.8339 140.87 45.7501 140.722 45.7152L132.622 43.8462C131.638 43.6192 130.737 43.1201 130.023 42.4059C129.308 41.6916 128.809 40.791 128.582 39.8067L126.712 31.7067C126.677 31.5586 126.593 31.4267 126.474 31.3323C126.355 31.2379 126.207 31.1865 126.055 31.1865C125.903 31.1865 125.755 31.2379 125.636 31.3323C125.517 31.4267 125.433 31.5586 125.398 31.7067L123.529 39.8067C123.302 40.791 122.803 41.6916 122.088 42.4059C121.374 43.1201 120.474 43.6192 119.489 43.8462L111.389 45.7152C111.241 45.7501 111.109 45.8339 111.015 45.9532C110.921 46.0724 110.869 46.2201 110.869 46.3722C110.869 46.5243 110.921 46.6719 111.015 46.7912C111.109 46.9104 111.241 46.9943 111.389 47.0292L119.489 48.8997C120.474 49.1267 121.374 49.6258 122.088 50.34C122.803 51.0543 123.302 51.9549 123.529 52.9392L125.398 61.0392C125.433 61.1872 125.517 61.3191 125.636 61.4136C125.755 61.508 125.903 61.5593 126.055 61.5593C126.207 61.5593 126.355 61.508 126.474 61.4136C126.593 61.3191 126.677 61.1872 126.712 61.0392L128.582 52.9362Z" fill="white" stroke="#2A4547" stroke-linecap="round" stroke-linejoin="round"/>
<path d="M82.4453 88.4892C83.4458 84.0867 85.5773 78.5547 89.9618 78.5547" stroke="#2A4547" stroke-linecap="round" stroke-linejoin="round"/>
<path d="M89.9639 78.555C89.6894 78.1785 91.5239 73.005 96.8999 73.005C102.276 73.005 108.573 78.555 112.155 78.555C115.737 78.555 98.6339 90.345 89.9639 78.555Z" fill="#22A595" stroke="#2A4547" stroke-linecap="round" stroke-linejoin="round"/>
<path d="M72.7645 74.9025C71.9462 73.4606 70.7544 72.2659 69.3144 71.4442C67.8745 70.6225 66.2397 70.2041 64.582 70.233" stroke="#2A4547" stroke-linecap="round" stroke-linejoin="round"/>
<path d="M64.5833 70.2326C64.8593 69.8576 63.0233 64.6826 57.6488 64.6826C52.2743 64.6826 45.9743 70.2326 42.3923 70.2326C38.8103 70.2326 55.9148 82.0226 64.5833 70.2326Z" fill="#22A595" stroke="#2A4547" stroke-linecap="round" stroke-linejoin="round"/>
<path d="M79.3526 54.9765C79.3526 85.317 86.2871 103.521 86.2871 103.521H66.8711C66.8711 103.521 73.8056 85.722 73.8056 54.9765H79.3526Z" fill="#22A595"/>
<path d="M79.3526 54.9765C79.3526 85.317 86.2871 103.521 86.2871 103.521H66.8711C66.8711 103.521 73.8056 85.722 73.8056 54.9765H79.3526Z" stroke="#2A4547" stroke-linecap="round" stroke-linejoin="round"/>
<path d="M98.7711 42.4933C98.7726 46.8843 97.4718 51.1772 95.0334 54.829C92.5949 58.4807 89.1283 61.3273 85.0719 63.0088C81.0155 64.6902 76.5516 65.1309 72.2447 64.2751C67.9378 63.4194 63.9815 61.3056 60.876 58.2012C57.7705 55.0968 55.6554 51.1411 54.7982 46.8345C53.941 42.528 54.3802 38.0639 56.0603 34.0069C57.7403 29.95 60.5857 26.4824 64.2367 24.0427C67.8876 21.603 72.18 20.3008 76.5711 20.3008C79.4861 20.2996 82.3729 20.8728 85.0663 21.9875C87.7598 23.1023 90.2073 24.7368 92.2689 26.7977C94.3305 28.8586 95.9658 31.3055 97.0815 33.9986C98.1972 36.6917 98.7713 39.5782 98.7711 42.4933Z" fill="white"/>
<path d="M98.7711 42.4933C98.7726 46.8843 97.4718 51.1772 95.0334 54.829C92.5949 58.4807 89.1283 61.3273 85.0719 63.0088C81.0155 64.6902 76.5516 65.1309 72.2447 64.2751C67.9378 63.4194 63.9815 61.3056 60.876 58.2012C57.7705 55.0968 55.6554 51.1411 54.7982 46.8345C53.941 42.528 54.3802 38.0639 56.0603 34.0069C57.7403 29.95 60.5857 26.4824 64.2367 24.0427C67.8876 21.603 72.18 20.3008 76.5711 20.3008C79.4861 20.2996 82.3729 20.8728 85.0663 21.9875C87.7598 23.1023 90.2073 24.7368 92.2689 26.7977C94.3305 28.8586 95.9658 31.3055 97.0815 33.9986C98.1972 36.6917 98.7713 39.5782 98.7711 42.4933V42.4933Z" stroke="#2A4547" stroke-linecap="round" stroke-linejoin="round"/>
<path d="M76.5778 59.6279C75.8721 59.6267 75.1958 59.3458 74.697 58.8467C74.1981 58.3476 73.9176 57.6711 73.9168 56.9654V55.5254C72.3382 54.9718 70.9692 53.9439 69.9975 52.5822C69.0257 51.2205 68.4986 49.5918 68.4883 47.9189C68.4883 47.2128 68.7688 46.5356 69.2681 46.0362C69.7674 45.5369 70.4446 45.2564 71.1508 45.2564C71.8569 45.2564 72.5341 45.5369 73.0335 46.0362C73.5328 46.5356 73.8133 47.2128 73.8133 47.9189C73.8139 48.466 73.9767 49.0006 74.2811 49.4551C74.5855 49.9097 75.0179 50.2637 75.5235 50.4725C76.0292 50.6813 76.5854 50.7355 77.1218 50.6282C77.6583 50.5209 78.1508 50.2569 78.5373 49.8697C78.9237 49.4824 79.1866 48.9893 79.2927 48.4526C79.3989 47.9159 79.3435 47.3598 79.1336 46.8546C78.9237 46.3495 78.5687 45.9178 78.1135 45.6144C77.6583 45.311 77.1233 45.1493 76.5763 45.1499C74.6672 45.1543 72.8184 44.4817 71.3585 43.2515C69.8986 42.0213 68.9223 40.3134 68.6029 38.4312C68.2835 36.549 68.6419 34.6146 69.6143 32.9717C70.5867 31.3288 72.1101 30.084 73.9138 29.4584V28.0199C73.9138 27.3138 74.1943 26.6366 74.6936 26.1372C75.1929 25.6379 75.8701 25.3574 76.5763 25.3574C77.2824 25.3574 77.9596 25.6379 78.459 26.1372C78.9583 26.6366 79.2388 27.3138 79.2388 28.0199V29.4584C80.3907 29.8451 81.4379 30.4924 82.2988 31.3499C83.0522 32.0987 83.6495 32.9895 84.056 33.9708C84.4626 34.952 84.6704 36.0043 84.6673 37.0664C84.6757 37.4213 84.6131 37.7742 84.4831 38.1046C84.3531 38.4349 84.1584 38.7358 83.9104 38.9898C83.6624 39.2438 83.3661 39.4456 83.039 39.5834C82.7119 39.7211 82.3605 39.7921 82.0055 39.7921C81.6506 39.7921 81.2992 39.7211 80.9721 39.5834C80.6449 39.4456 80.3486 39.2438 80.1006 38.9898C79.8526 38.7358 79.6579 38.4349 79.528 38.1046C79.398 37.7742 79.3354 37.4213 79.3438 37.0664C79.3418 36.3342 79.0501 35.6326 78.5323 35.1149C78.0146 34.5971 77.313 34.3054 76.5808 34.3034C76.0337 34.3035 75.499 34.4657 75.0441 34.7695C74.5892 35.0733 74.2345 35.5051 74.0249 36.0104C73.8152 36.5157 73.7601 37.0718 73.8663 37.6084C73.9725 38.145 74.2354 38.6381 74.6218 39.0254C74.8775 39.2819 75.1815 39.4852 75.5162 39.6237C75.8508 39.7622 76.2096 39.8331 76.5718 39.8324C78.4869 39.818 80.3446 40.4856 81.8125 41.7156C83.2805 42.9457 84.2628 44.6579 84.5838 46.546C84.9047 48.4341 84.5434 50.3747 83.5644 52.0207C82.5853 53.6667 81.0526 54.9107 79.2403 55.5299V56.9684C79.2405 57.3181 79.1717 57.6644 79.038 57.9875C78.9043 58.3107 78.7082 58.6043 78.4609 58.8515C78.2136 59.0988 77.92 59.2949 77.5969 59.4286C77.2738 59.5624 76.9275 59.6311 76.5778 59.6309V59.6279Z" fill="#22A595" stroke="#2A4547" stroke-miterlimit="10"/>
<path d="M72.1885 128.904C104.106 128.904 129.98 127.351 129.98 125.436C129.98 123.52 104.106 121.968 72.1885 121.968C40.2708 121.968 14.3965 123.52 14.3965 125.436C14.3965 127.351 40.2708 128.904 72.1885 128.904Z" fill="#E6F0ED"/>
<path d="M51.6143 112.027C51.6143 111.481 51.5066 110.939 51.2973 110.434C51.088 109.929 50.7812 109.47 50.3945 109.084C50.0078 108.697 49.5487 108.391 49.0436 108.182C48.5384 107.973 47.997 107.866 47.4503 107.866H30.8003C29.7102 107.887 28.6718 108.334 27.9082 109.113C27.1446 109.891 26.7168 110.938 26.7168 112.028C26.7168 113.118 27.1446 114.165 27.9082 114.943C28.6718 115.721 29.7102 116.169 30.8003 116.19H47.4503C47.997 116.19 48.5385 116.082 49.0437 115.873C49.5489 115.664 50.0079 115.358 50.3946 114.971C50.7813 114.585 51.088 114.126 51.2973 113.62C51.5066 113.115 51.6143 112.574 51.6143 112.027Z" fill="white"/>
<path d="M51.6143 112.027C51.6143 111.481 51.5066 110.939 51.2973 110.434C51.088 109.929 50.7812 109.47 50.3945 109.084C50.0078 108.697 49.5487 108.391 49.0436 108.182C48.5384 107.973 47.997 107.866 47.4503 107.866H30.8003C29.7102 107.887 28.6718 108.334 27.9082 109.113C27.1446 109.891 26.7168 110.938 26.7168 112.028C26.7168 113.118 27.1446 114.165 27.9082 114.943C28.6718 115.721 29.7102 116.169 30.8003 116.19H47.4503C47.997 116.19 48.5385 116.082 49.0437 115.873C49.5489 115.664 50.0079 115.358 50.3946 114.971C50.7813 114.585 51.088 114.126 51.2973 113.62C51.5066 113.115 51.6143 112.574 51.6143 112.027V112.027Z" stroke="#2A4547" stroke-linecap="round" stroke-linejoin="round"/>
<path d="M62.7088 103.707C62.7088 102.604 62.2706 101.546 61.4907 100.765C60.7107 99.9846 59.6527 99.5457 58.5493 99.5449H41.8993C40.7957 99.5449 39.7373 99.9833 38.957 100.764C38.1767 101.544 37.7383 102.602 37.7383 103.706C37.7383 104.809 38.1767 105.868 38.957 106.648C39.7373 107.429 40.7957 107.867 41.8993 107.867H58.5493C59.6525 107.867 60.7104 107.429 61.4905 106.649C62.2706 105.869 62.7088 104.811 62.7088 103.707Z" fill="white"/>
<path d="M62.7088 103.707C62.7088 102.604 62.2706 101.546 61.4907 100.765C60.7107 99.9846 59.6527 99.5457 58.5493 99.5449H41.8993C40.7957 99.5449 39.7373 99.9833 38.957 100.764C38.1767 101.544 37.7383 102.602 37.7383 103.706C37.7383 104.809 38.1767 105.868 38.957 106.648C39.7373 107.429 40.7957 107.867 41.8993 107.867H58.5493C59.6525 107.867 60.7104 107.429 61.4905 106.649C62.2706 105.869 62.7088 104.811 62.7088 103.707V103.707Z" stroke="#2A4547" stroke-linecap="round" stroke-linejoin="round"/>
<path d="M75.201 95.385C75.2014 94.8385 75.0941 94.2973 74.8852 93.7923C74.6763 93.2873 74.37 92.8284 73.9837 92.4418C73.5975 92.0553 73.1388 91.7486 72.6339 91.5394C72.1291 91.3302 71.588 91.2225 71.0415 91.2225H54.3915C53.2879 91.2225 52.2295 91.6609 51.4492 92.4412C50.6689 93.2215 50.2305 94.2799 50.2305 95.3835C50.2305 96.487 50.6689 97.5454 51.4492 98.3257C52.2295 99.1061 53.2879 99.5445 54.3915 99.5445H71.0415C72.1446 99.5445 73.2026 99.1062 73.9827 98.3262C74.7627 97.5461 75.201 96.4881 75.201 95.385Z" fill="white"/>
<path d="M75.201 95.385C75.2014 94.8385 75.0941 94.2973 74.8852 93.7923C74.6764 93.2873 74.37 92.8284 73.9837 92.4418C73.5975 92.0553 73.1388 91.7486 72.6339 91.5394C72.1291 91.3302 71.588 91.2225 71.0415 91.2225H54.3915C53.2879 91.2225 52.2295 91.6609 51.4492 92.4412C50.6689 93.2215 50.2305 94.2799 50.2305 95.3835C50.2305 96.487 50.6689 97.5454 51.4492 98.3257C52.2295 99.1061 53.2879 99.5445 54.3915 99.5445H71.0415C72.1446 99.5445 73.2026 99.1062 73.9827 98.3262C74.7627 97.5461 75.201 96.4881 75.201 95.385V95.385Z" stroke="#2A4547" stroke-linecap="round" stroke-linejoin="round"/>
<path d="M100.158 95.385C100.158 94.8384 100.05 94.2972 99.8412 93.7922C99.6322 93.2872 99.3258 92.8283 98.9394 92.4417C98.5529 92.0552 98.0942 91.7486 97.5892 91.5394C97.0843 91.3302 96.5431 91.2225 95.9965 91.2225H79.3465C78.8001 91.2225 78.259 91.3301 77.7542 91.5392C77.2494 91.7483 76.7907 92.0548 76.4043 92.4412C76.0179 92.8276 75.7114 93.2863 75.5023 93.7911C75.2932 94.296 75.1855 94.837 75.1855 95.3835C75.1855 95.9299 75.2932 96.471 75.5023 96.9758C75.7114 97.4807 76.0179 97.9394 76.4043 98.3257C76.7907 98.7121 77.2494 99.0186 77.7542 99.2277C78.259 99.4368 78.8001 99.5445 79.3465 99.5445H95.9965C97.0999 99.5445 98.158 99.1063 98.9383 98.3263C99.7186 97.5463 100.157 96.4883 100.158 95.385Z" fill="white"/>
<path d="M100.158 95.385C100.158 94.8384 100.05 94.2972 99.8412 93.7922C99.6322 93.2872 99.3258 92.8283 98.9394 92.4417C98.5529 92.0552 98.0942 91.7486 97.5892 91.5394C97.0843 91.3302 96.5431 91.2225 95.9965 91.2225H79.3465C78.8001 91.2225 78.259 91.3301 77.7542 91.5392C77.2494 91.7483 76.7907 92.0548 76.4043 92.4412C76.0179 92.8276 75.7114 93.2863 75.5023 93.7911C75.2932 94.296 75.1855 94.837 75.1855 95.3835C75.1855 95.9299 75.2932 96.471 75.5023 96.9758C75.7114 97.4807 76.0179 97.9394 76.4043 98.3257C76.7907 98.7121 77.2494 99.0186 77.7542 99.2277C78.259 99.4368 78.8001 99.5445 79.3465 99.5445H95.9965C97.0999 99.5445 98.158 99.1063 98.9383 98.3263C99.7186 97.5463 100.157 96.4883 100.158 95.385V95.385Z" stroke="#2A4547" stroke-linecap="round" stroke-linejoin="round"/>
<path d="M87.6766 103.707C87.6762 102.604 87.2375 101.545 86.457 100.765C85.6765 99.984 84.618 99.5453 83.5141 99.5449H66.8641C65.7606 99.5449 64.7022 99.9833 63.9219 100.764C63.1415 101.544 62.7031 102.602 62.7031 103.706C62.7031 104.809 63.1415 105.868 63.9219 106.648C64.7022 107.429 65.7606 107.867 66.8641 107.867H83.5141C84.0606 107.867 84.6017 107.76 85.1066 107.551C85.6115 107.342 86.0703 107.035 86.4568 106.649C86.8434 106.263 87.15 105.804 87.3593 105.3C87.5686 104.795 87.6764 104.254 87.6766 103.707Z" fill="white"/>
<path d="M87.6766 103.707C87.6762 102.604 87.2375 101.545 86.457 100.765C85.6765 99.984 84.618 99.5453 83.5141 99.5449H66.8641C65.7606 99.5449 64.7022 99.9833 63.9219 100.764C63.1415 101.544 62.7031 102.602 62.7031 103.706C62.7031 104.809 63.1415 105.868 63.9219 106.648C64.7022 107.429 65.7606 107.867 66.8641 107.867H83.5141C84.0606 107.867 84.6017 107.76 85.1066 107.551C85.6115 107.342 86.0703 107.035 86.4568 106.649C86.8434 106.263 87.15 105.804 87.3593 105.3C87.5686 104.795 87.6764 104.254 87.6766 103.707V103.707Z" stroke="#2A4547" stroke-linecap="round" stroke-linejoin="round"/>
<path d="M112.644 103.707C112.643 102.604 112.205 101.546 111.425 100.765C110.645 99.9846 109.586 99.5457 108.483 99.5449H91.8329C90.7293 99.5449 89.6709 99.9833 88.8906 100.764C88.1103 101.544 87.6719 102.602 87.6719 103.706C87.6719 104.809 88.1103 105.868 88.8906 106.648C89.6709 107.429 90.7293 107.867 91.8329 107.867H108.483C109.586 107.867 110.644 107.429 111.425 106.649C112.205 105.869 112.643 104.811 112.644 103.707Z" fill="white"/>
<path d="M112.644 103.707C112.643 102.604 112.205 101.546 111.425 100.765C110.645 99.9846 109.586 99.5457 108.483 99.5449H91.8329C90.7293 99.5449 89.6709 99.9833 88.8906 100.764C88.1103 101.544 87.6719 102.602 87.6719 103.706C87.6719 104.809 88.1103 105.868 88.8906 106.648C89.6709 107.429 90.7293 107.867 91.8329 107.867H108.483C109.586 107.867 110.644 107.429 111.425 106.649C112.205 105.869 112.643 104.811 112.644 103.707Z" stroke="#2A4547" stroke-linecap="round" stroke-linejoin="round"/>
<path d="M76.5785 112.027C76.5787 111.481 76.4713 110.94 76.2623 110.435C76.0534 109.93 75.747 109.471 75.3608 109.085C74.9745 108.699 74.5159 108.392 74.0112 108.183C73.5064 107.974 72.9654 107.866 72.419 107.866H55.769C54.679 107.887 53.6405 108.334 52.8769 109.113C52.1133 109.891 51.6855 110.938 51.6855 112.028C51.6855 113.118 52.1133 114.165 52.8769 114.943C53.6405 115.721 54.679 116.169 55.769 116.19H72.419C72.9655 116.19 73.5065 116.082 74.0113 115.872C74.516 115.663 74.9746 115.356 75.3609 114.97C75.7471 114.583 76.0534 114.125 76.2624 113.62C76.4713 113.115 76.5787 112.574 76.5785 112.027Z" fill="white"/>
<path d="M76.5785 112.027C76.5787 111.481 76.4713 110.94 76.2623 110.435C76.0534 109.93 75.747 109.471 75.3608 109.085C74.9745 108.699 74.5159 108.392 74.0112 108.183C73.5064 107.974 72.9654 107.866 72.419 107.866H55.769C54.679 107.887 53.6405 108.334 52.8769 109.113C52.1133 109.891 51.6855 110.938 51.6855 112.028C51.6855 113.118 52.1133 114.165 52.8769 114.943C53.6405 115.721 54.679 116.169 55.769 116.19H72.419C72.9655 116.19 73.5065 116.082 74.0113 115.872C74.516 115.663 74.9746 115.356 75.3609 114.97C75.7471 114.583 76.0534 114.125 76.2624 113.62C76.4713 113.115 76.5787 112.574 76.5785 112.027V112.027Z" stroke="#2A4547" stroke-linecap="round" stroke-linejoin="round"/>
<path d="M101.545 112.028C101.545 110.924 101.106 109.866 100.326 109.086C99.545 108.305 98.4865 107.867 97.3828 107.867H80.7493C80.1961 107.856 79.6464 107.956 79.1323 108.161C78.6182 108.365 78.15 108.67 77.755 109.058C77.3601 109.445 77.0464 109.907 76.8323 110.418C76.6181 110.928 76.5078 111.475 76.5078 112.029C76.5078 112.582 76.6181 113.13 76.8323 113.64C77.0464 114.15 77.3601 114.612 77.755 115C78.15 115.387 78.6182 115.692 79.1323 115.897C79.6464 116.101 80.1961 116.201 80.7493 116.19H97.3828C98.4867 116.19 99.5452 115.751 100.326 114.971C101.106 114.19 101.545 113.132 101.545 112.028Z" fill="white"/>
<path d="M101.545 112.028C101.545 110.924 101.106 109.866 100.326 109.086C99.545 108.305 98.4865 107.867 97.3828 107.867H80.7493C80.1961 107.856 79.6464 107.956 79.1323 108.161C78.6182 108.365 78.15 108.67 77.755 109.058C77.3601 109.445 77.0464 109.907 76.8323 110.418C76.6181 110.928 76.5078 111.475 76.5078 112.029C76.5078 112.582 76.6181 113.13 76.8323 113.64C77.0464 114.15 77.3601 114.612 77.755 115C78.15 115.387 78.6182 115.692 79.1323 115.897C79.6464 116.101 80.1961 116.201 80.7493 116.19H97.3828C98.4867 116.19 99.5452 115.751 100.326 114.971C101.106 114.19 101.545 113.132 101.545 112.028Z" stroke="#2A4547" stroke-linecap="round" stroke-linejoin="round"/>
<path d="M126.512 112.027C126.511 110.924 126.073 109.866 125.293 109.085C124.512 108.305 123.454 107.867 122.351 107.866H105.701C104.611 107.887 103.572 108.334 102.809 109.113C102.045 109.891 101.617 110.938 101.617 112.028C101.617 113.118 102.045 114.165 102.809 114.943C103.572 115.721 104.611 116.169 105.701 116.19H122.351C123.454 116.189 124.512 115.75 125.293 114.97C126.073 114.189 126.511 113.131 126.512 112.027Z" fill="white"/>
<path d="M126.512 112.027C126.511 110.924 126.073 109.866 125.293 109.085C124.512 108.305 123.454 107.867 122.351 107.866H105.701C104.611 107.887 103.572 108.334 102.809 109.113C102.045 109.891 101.617 110.938 101.617 112.028C101.617 113.118 102.045 114.165 102.809 114.943C103.572 115.721 104.611 116.169 105.701 116.19H122.351C123.454 116.189 124.512 115.75 125.293 114.97C126.073 114.189 126.511 113.131 126.512 112.027V112.027Z" stroke="#2A4547" stroke-linecap="round" stroke-linejoin="round"/>
<path d="M128.18 122.344C128.77 121.411 128.965 120.282 128.723 119.205C128.48 118.129 127.821 117.192 126.888 116.601L112.824 107.7C112.363 107.399 111.846 107.193 111.304 107.093C110.761 106.993 110.205 107.002 109.666 107.12C109.128 107.237 108.618 107.46 108.166 107.776C107.714 108.092 107.33 108.495 107.035 108.961C106.741 109.427 106.541 109.946 106.449 110.49C106.357 111.033 106.374 111.59 106.498 112.127C106.623 112.664 106.853 113.17 107.175 113.618C107.498 114.065 107.906 114.444 108.375 114.732L122.436 123.633C123.369 124.224 124.498 124.42 125.575 124.178C126.652 123.936 127.589 123.277 128.18 122.344Z" fill="white"/>
<path d="M128.18 122.344C128.77 121.411 128.965 120.282 128.723 119.205C128.48 118.129 127.821 117.192 126.888 116.601L112.824 107.7C112.363 107.399 111.846 107.193 111.304 107.093C110.761 106.993 110.205 107.002 109.666 107.12C109.128 107.237 108.618 107.46 108.166 107.776C107.714 108.092 107.33 108.495 107.035 108.961C106.741 109.427 106.541 109.946 106.449 110.49C106.357 111.033 106.374 111.59 106.498 112.127C106.623 112.664 106.853 113.17 107.175 113.618C107.498 114.065 107.906 114.444 108.375 114.732L122.436 123.633C123.369 124.224 124.498 124.42 125.575 124.178C126.652 123.936 127.589 123.277 128.18 122.344V122.344Z" stroke="#2A4547" stroke-linecap="round" stroke-linejoin="round"/>
<path d="M62.9407 119.194C62.9404 118.091 62.5018 117.033 61.7216 116.252C60.9413 115.472 59.8832 115.034 58.7798 115.033H42.1298C41.0262 115.033 39.9678 115.472 39.1875 116.252C38.4071 117.032 37.9688 118.091 37.9688 119.194C37.9688 120.298 38.4071 121.356 39.1875 122.136C39.9678 122.917 41.0262 123.355 42.1298 123.355H58.7798C59.8832 123.355 60.9413 122.916 61.7216 122.136C62.5018 121.356 62.9404 120.298 62.9407 119.194Z" fill="white"/>
<path d="M62.9407 119.194C62.9404 118.091 62.5018 117.033 61.7216 116.252C60.9413 115.472 59.8832 115.034 58.7798 115.033H42.1298C41.0262 115.033 39.9678 115.472 39.1875 116.252C38.4071 117.032 37.9688 118.091 37.9688 119.194C37.9688 120.298 38.4071 121.356 39.1875 122.136C39.9678 122.917 41.0262 123.355 42.1298 123.355H58.7798C59.8832 123.355 60.9413 122.916 61.7216 122.136C62.5018 121.356 62.9404 120.298 62.9407 119.194V119.194Z" stroke="#2A4547" stroke-linecap="round" stroke-linejoin="round"/>
<path d="M38.9544 116.016C38.7369 114.934 38.0987 113.983 37.1799 113.372C36.2612 112.76 35.1373 112.539 34.0554 112.756L17.7384 116.038C17.2025 116.146 16.6931 116.358 16.2392 116.663C15.7854 116.968 15.3959 117.359 15.0932 117.814C14.7905 118.269 14.5803 118.779 14.4748 119.315C14.3693 119.852 14.3704 120.404 14.4782 120.94C14.5859 121.475 14.7982 121.985 15.1028 122.439C15.4074 122.893 15.7984 123.282 16.2536 123.585C16.7087 123.888 17.219 124.098 17.7553 124.203C18.2916 124.309 18.8435 124.308 19.3794 124.2L35.6964 120.915C36.232 120.807 36.7412 120.595 37.1949 120.291C37.6485 119.986 38.0377 119.595 38.3403 119.14C38.6428 118.685 38.8528 118.175 38.9581 117.639C39.0635 117.103 39.0623 116.551 38.9544 116.016Z" fill="white"/>
<path d="M38.9544 116.016C38.7369 114.934 38.0987 113.983 37.1799 113.372C36.2612 112.76 35.1373 112.539 34.0554 112.756L17.7384 116.038C17.2025 116.146 16.6931 116.358 16.2392 116.663C15.7854 116.968 15.3959 117.359 15.0932 117.814C14.7905 118.269 14.5803 118.779 14.4748 119.315C14.3693 119.852 14.3704 120.404 14.4782 120.94C14.5859 121.475 14.7982 121.985 15.1028 122.439C15.4074 122.893 15.7984 123.282 16.2536 123.585C16.7087 123.888 17.219 124.098 17.7553 124.203C18.2916 124.309 18.8435 124.308 19.3794 124.2L35.6964 120.915C36.232 120.807 36.7412 120.595 37.1949 120.291C37.6485 119.986 38.0377 119.595 38.3403 119.14C38.6428 118.685 38.8528 118.175 38.9581 117.639C39.0635 117.103 39.0623 116.551 38.9544 116.016V116.016Z" stroke="#2A4547" stroke-linecap="round" stroke-linejoin="round"/>
<path d="M87.907 119.194C87.9074 118.091 87.4697 117.033 86.6903 116.253C85.9108 115.473 84.8534 115.034 83.7505 115.033H67.1005C65.9969 115.033 64.9385 115.472 64.1582 116.252C63.3778 117.032 62.9395 118.091 62.9395 119.194C62.9395 120.298 63.3778 121.356 64.1582 122.136C64.9385 122.917 65.9969 123.355 67.1005 123.355H83.7505C84.8534 123.354 85.9108 122.916 86.6903 122.135C87.4697 121.355 87.9074 120.297 87.907 119.194Z" fill="white"/>
<path d="M87.907 119.194C87.9074 118.091 87.4697 117.033 86.6903 116.253C85.9108 115.473 84.8534 115.034 83.7505 115.033H67.1005C65.9969 115.033 64.9385 115.472 64.1582 116.252C63.3778 117.032 62.9395 118.091 62.9395 119.194C62.9395 120.298 63.3778 121.356 64.1582 122.136C64.9385 122.917 65.9969 123.355 67.1005 123.355H83.7505C84.8534 123.354 85.9108 122.916 86.6903 122.135C87.4697 121.355 87.9074 120.297 87.907 119.194V119.194Z" stroke="#2A4547" stroke-linecap="round" stroke-linejoin="round"/>
<path d="M113.335 119.194C113.335 118.091 112.897 117.032 112.117 116.252C111.336 115.472 110.278 115.033 109.174 115.033H92.5243C91.4207 115.033 90.3623 115.472 89.582 116.252C88.8017 117.032 88.3633 118.091 88.3633 119.194C88.3633 120.298 88.8017 121.356 89.582 122.136C90.3623 122.917 91.4207 123.355 92.5243 123.355H109.174C109.721 123.355 110.262 123.248 110.767 123.038C111.271 122.829 111.73 122.523 112.117 122.136C112.503 121.75 112.809 121.291 113.019 120.787C113.228 120.282 113.335 119.741 113.335 119.194Z" fill="white"/>
<path d="M113.335 119.194C113.335 118.091 112.897 117.032 112.117 116.252C111.336 115.472 110.278 115.033 109.174 115.033H92.5243C91.4207 115.033 90.3623 115.472 89.582 116.252C88.8017 117.032 88.3633 118.091 88.3633 119.194C88.3633 120.298 88.8017 121.356 89.582 122.136C90.3623 122.917 91.4207 123.355 92.5243 123.355H109.174C109.721 123.355 110.262 123.248 110.767 123.038C111.271 122.829 111.73 122.523 112.117 122.136C112.503 121.75 112.809 121.291 113.019 120.787C113.228 120.282 113.335 119.741 113.335 119.194V119.194Z" stroke="#2A4547" stroke-linecap="round" stroke-linejoin="round"/>
<path d="M45.2403 23.7567L51.7698 21.5787C51.8914 21.5376 51.9971 21.4594 52.0719 21.3552C52.1468 21.2509 52.187 21.1258 52.187 20.9974C52.187 20.8691 52.1468 20.744 52.0719 20.6397C51.9971 20.5354 51.8914 20.4572 51.7698 20.4162L46.3998 18.6267C46.0385 18.5066 45.7101 18.3039 45.4409 18.0346C45.1717 17.7654 44.9689 17.437 44.8488 17.0757L43.0623 11.7102C43.0213 11.5886 42.9431 11.4829 42.8388 11.4081C42.7346 11.3332 42.6094 11.293 42.4811 11.293C42.3527 11.293 42.2276 11.3332 42.1233 11.4081C42.0191 11.4829 41.9409 11.5886 41.8998 11.7102L40.1103 17.0757C39.9899 17.4368 39.7871 17.765 39.5179 18.0342C39.2487 18.3034 38.9205 18.5063 38.5593 18.6267L33.1893 20.4162C33.0677 20.4572 32.9621 20.5354 32.8872 20.6397C32.8124 20.744 32.7721 20.8691 32.7721 20.9974C32.7721 21.1258 32.8124 21.2509 32.8872 21.3552C32.9621 21.4594 33.0677 21.5376 33.1893 21.5787L38.5593 23.3682C38.9204 23.4888 39.2485 23.6917 39.5176 23.9609C39.7868 24.23 39.9897 24.5581 40.1103 24.9192L41.8998 30.2892C41.9402 30.4115 42.018 30.518 42.1224 30.5935C42.2268 30.669 42.3523 30.7096 42.4811 30.7096C42.6099 30.7096 42.7354 30.669 42.8398 30.5935C42.9441 30.518 43.022 30.4115 43.0623 30.2892L45.2403 23.7567ZM26.0583 70.6767L32.5878 68.5002C32.71 68.4594 32.8162 68.3813 32.8915 68.2769C32.9668 68.1724 33.0073 68.0469 33.0073 67.9182C33.0073 67.7894 32.9668 67.6639 32.8915 67.5595C32.8162 67.455 32.71 67.3769 32.5878 67.3362L27.2208 65.5497C26.8598 65.4291 26.5317 65.2262 26.2625 64.957C25.9934 64.6878 25.7904 64.3597 25.6698 63.9987L23.8803 58.6317C23.8393 58.5101 23.7611 58.4044 23.6568 58.3296C23.5526 58.2547 23.4274 58.2145 23.2991 58.2145C23.1707 58.2145 23.0456 58.2547 22.9413 58.3296C22.8371 58.4044 22.7589 58.5101 22.7178 58.6317L20.9283 63.9987C20.8083 64.3601 20.6057 64.6885 20.3364 64.9577C20.0671 65.227 19.7387 65.4297 19.3773 65.5497L14.0073 67.3392C13.8852 67.3799 13.779 67.458 13.7037 67.5625C13.6284 67.6669 13.5879 67.7924 13.5879 67.9212C13.5879 68.0499 13.6284 68.1754 13.7037 68.2799C13.779 68.3843 13.8852 68.4624 14.0073 68.5032L19.3773 70.2927C19.7384 70.4133 20.0665 70.6162 20.3356 70.8854C20.6048 71.1545 20.8077 71.4826 20.9283 71.8437L22.7178 77.2137C22.7589 77.3353 22.8371 77.4409 22.9413 77.5158C23.0456 77.5906 23.1707 77.6309 23.2991 77.6309C23.4274 77.6309 23.5526 77.5906 23.6568 77.5158C23.7611 77.4409 23.8393 77.3353 23.8803 77.2137L26.0583 70.6767Z" fill="white" stroke="#2A4547" stroke-linecap="round" stroke-linejoin="round"/>
</svg>
