<svg width="88" height="88" viewBox="0 0 88 88" fill="none" xmlns="http://www.w3.org/2000/svg">
<rect width="88" height="88" rx="4" fill="#E6F0ED"/>
<g clip-path="url(#clip0_506_8675)">
<path d="M40.6673 34V32.3333H47.334V34H50.6673V32.3333C50.6652 30.4932 49.1741 29.0021 47.334 29H40.6673C38.8272 29.0021 37.3361 30.4932 37.334 32.3333V34H40.6673Z" fill="#068576"/>
<path d="M39.0007 49C38.0804 49.0003 37.3342 48.2545 37.334 47.3342V44C37.334 43.0796 38.0802 42.3334 39.0007 42.3334C39.9211 42.3334 40.6673 43.0796 40.6673 44V47.3334C40.6676 48.2536 39.9209 48.9998 39.0007 49ZM49.0007 49C48.0804 49.0003 47.3342 48.2545 47.334 47.3342V44C47.334 43.0796 48.0802 42.3334 49.0007 42.3334C49.9211 42.3334 50.6673 43.0796 50.6673 44V47.3334C50.6676 48.2536 49.9209 48.9998 49.0007 49Z" fill="#047366"/>
<path opacity="0.7" d="M57.334 34H30.6673C28.8264 34 27.334 35.4924 27.334 37.3333V42.3333C27.334 44.1743 28.8264 45.6667 30.6673 45.6667H37.334V44C37.334 43.0795 38.0802 42.3333 39.0007 42.3333C39.9211 42.3333 40.6673 43.0795 40.6673 44V45.6667H47.334V44C47.334 43.0795 48.0802 42.3333 49.0007 42.3333C49.9211 42.3333 50.6673 43.0795 50.6673 44V45.6667H57.334C59.1749 45.6667 60.6673 44.1743 60.6673 42.3333V37.3333C60.6673 35.4924 59.1749 34 57.334 34Z" fill="#068576"/>
<path opacity="0.4" d="M57.334 45.6667H50.6673V47.3334C50.6673 48.2539 49.9211 49 49.0007 49C48.0802 49 47.334 48.2539 47.334 47.3334V45.6667H40.6673V47.3334C40.6673 48.2539 39.9211 49 39.0007 49C38.0802 49 37.334 48.2539 37.334 47.3334V45.6667H30.6673C28.8264 45.6667 27.334 44.1743 27.334 42.3334V55.6667C27.334 57.5077 28.8264 59 30.6673 59H57.334C59.1749 59 60.6673 57.5077 60.6673 55.6667V42.3334C60.6673 44.1743 59.1749 45.6667 57.334 45.6667Z" fill="#068576"/>
</g>
<defs>
<clipPath id="clip0_506_8675">
<rect width="40" height="40" fill="white" transform="translate(24 24)"/>
</clipPath>
</defs>
</svg>
