<svg width="88" height="88" viewBox="0 0 88 88" fill="none" xmlns="http://www.w3.org/2000/svg">
<rect width="88" height="88" rx="4" fill="#E6F0ED"/>
<path d="M47.3333 42.3333H45.6667V40.6667C45.6667 40.2246 45.4911 39.8007 45.1785 39.4882C44.866 39.1756 44.442 39 44 39C43.558 39 43.134 39.1756 42.8215 39.4882C42.5089 39.8007 42.3333 40.2246 42.3333 40.6667V42.3333H40.6667C40.2246 42.3333 39.8007 42.5089 39.4882 42.8215C39.1756 43.134 39 43.558 39 44C39 44.442 39.1756 44.866 39.4882 45.1785C39.8007 45.4911 40.2246 45.6667 40.6667 45.6667H42.3333V47.3333C42.3333 47.7754 42.5089 48.1993 42.8215 48.5118C43.134 48.8244 43.558 49 44 49C44.442 49 44.866 48.8244 45.1785 48.5118C45.4911 48.1993 45.6667 47.7754 45.6667 47.3333V45.6667H47.3333C47.7754 45.6667 48.1993 45.4911 48.5118 45.1785C48.8244 44.866 49 44.442 49 44C49 43.558 48.8244 43.134 48.5118 42.8215C48.1993 42.5089 47.7754 42.3333 47.3333 42.3333Z" fill="#068576"/>
<path opacity="0.4" d="M56.7174 30.0832C56.5249 29.927 56.2999 29.8157 56.0589 29.7573C55.8179 29.6988 55.5669 29.6948 55.3242 29.7455C53.543 30.1216 51.7036 30.1282 49.9197 29.7649C48.1358 29.4017 46.4455 28.6763 44.9531 27.6337C44.6735 27.4382 44.3405 27.3334 43.9993 27.3334C43.6582 27.3334 43.3252 27.4382 43.0456 27.6337C41.5535 28.6768 39.8631 29.4024 38.0791 29.7656C36.2952 30.1289 34.4557 30.122 32.6745 29.7455C32.4318 29.6946 32.1809 29.6984 31.9399 29.7568C31.6989 29.8152 31.474 29.9266 31.2816 30.0829C31.0892 30.2393 30.934 30.4366 30.8275 30.6605C30.721 30.8844 30.6659 31.1292 30.666 31.3772V43.8055C30.6685 46.1926 31.2395 48.5449 32.3317 50.6675C33.4239 52.7901 35.006 54.6221 36.9469 56.0117L43.031 60.3567C43.3137 60.5584 43.6522 60.6668 43.9994 60.6668C44.3466 60.6668 44.6852 60.5584 44.9678 60.3567L51.0518 56.011C52.9928 54.6216 54.5749 52.7898 55.6672 50.6673C56.7594 48.5447 57.3303 46.1926 57.3327 43.8055V31.3772C57.3327 31.1294 57.2775 30.8846 57.171 30.6608C57.0646 30.437 56.9097 30.2397 56.7174 30.0832ZM47.3327 45.6667H45.666V47.3334C45.666 47.7754 45.4904 48.1993 45.1779 48.5119C44.8653 48.8244 44.4414 49 43.9993 49C43.5573 49 43.1334 48.8244 42.8208 48.5119C42.5083 48.1993 42.3327 47.7754 42.3327 47.3334V45.6667H40.666C40.224 45.6667 39.8001 45.4911 39.4875 45.1786C39.1749 44.866 38.9993 44.4421 38.9993 44C38.9993 43.558 39.1749 43.1341 39.4875 42.8215C39.8001 42.509 40.224 42.3334 40.666 42.3334H42.3327V40.6667C42.3327 40.2247 42.5083 39.8008 42.8208 39.4882C43.1334 39.1756 43.5573 39 43.9993 39C44.4414 39 44.8653 39.1756 45.1779 39.4882C45.4904 39.8008 45.666 40.2247 45.666 40.6667V42.3334H47.3327C47.7747 42.3334 48.1986 42.509 48.5112 42.8215C48.8238 43.1341 48.9993 43.558 48.9993 44C48.9993 44.4421 48.8238 44.866 48.5112 45.1786C48.1986 45.4911 47.7747 45.6667 47.3327 45.6667Z" fill="#068576"/>
</svg>
