<svg width="151" height="151" viewBox="0 0 151 151" fill="none" xmlns="http://www.w3.org/2000/svg">
<path d="M15.5 75.8789C15.5 91.7919 21.8214 107.053 33.0736 118.305C44.3258 129.557 59.587 135.879 75.5 135.879C91.413 135.879 106.674 129.557 117.926 118.305C129.179 107.053 135.5 91.7919 135.5 75.8789C135.5 59.9659 129.179 44.7047 117.926 33.4525C106.674 22.2003 91.413 15.8789 75.5 15.8789C59.587 15.8789 44.3258 22.2003 33.0736 33.4525C21.8214 44.7047 15.5 59.9659 15.5 75.8789Z" fill="#E6F0ED"/>
<path d="M75.4995 26.0479L109.34 37.8529C110.36 38.2087 111.245 38.8734 111.871 39.7547C112.497 40.6361 112.833 41.6903 112.833 42.7714V79.0098C112.833 104.187 75.4995 118.079 75.4995 118.079C75.4995 118.079 38.166 104.187 38.166 79.0098V42.7714C38.1658 41.6903 38.5021 40.6361 39.1281 39.7547C39.754 38.8734 40.6388 38.2087 41.6595 37.8529L75.4995 26.0479Z" fill="white"/>
<path d="M75.4995 26.0479L109.34 37.8529C110.36 38.2087 111.245 38.8734 111.871 39.7547C112.497 40.6361 112.833 41.6903 112.833 42.7714V79.0099C112.833 104.187 75.4995 118.079 75.4995 118.079C75.4995 118.079 38.166 104.187 38.166 79.0099V42.7714C38.1658 41.6903 38.5021 40.6361 39.1281 39.7547C39.754 38.8734 40.6388 38.2087 41.6595 37.8529L75.4995 26.0479Z" stroke="#2A4547" stroke-linecap="round" stroke-linejoin="round"/>
<path d="M50.3213 70.3274C50.3213 73.634 50.9726 76.9082 52.2379 79.963C53.5033 83.0179 55.358 85.7936 57.696 88.1317C60.0341 90.4698 62.8098 92.3244 65.8647 93.5898C68.9196 94.8552 72.1937 95.5064 75.5003 95.5064C78.8068 95.5064 82.081 94.8552 85.1359 93.5898C88.1907 92.3244 90.9664 90.4698 93.3045 88.1317C95.6426 85.7936 97.4973 83.0179 98.7626 79.963C100.028 76.9082 100.679 73.634 100.679 70.3274C100.679 67.0209 100.028 63.7467 98.7626 60.6918C97.4973 57.637 95.6426 54.8613 93.3045 52.5232C90.9664 50.1851 88.1907 48.3304 85.1359 47.0651C82.081 45.7997 78.8068 45.1484 75.5003 45.1484C72.1937 45.1484 68.9196 45.7997 65.8647 47.0651C62.8098 48.3304 60.0341 50.1851 57.696 52.5232C55.358 54.8613 53.5033 57.637 52.2379 60.6918C50.9726 63.7467 50.3213 67.0209 50.3213 70.3274Z" fill="#22A595"/>
<path d="M50.3213 70.3274C50.3213 73.634 50.9726 76.9082 52.2379 79.963C53.5033 83.0179 55.358 85.7936 57.696 88.1317C60.0341 90.4698 62.8098 92.3244 65.8647 93.5898C68.9196 94.8552 72.1937 95.5064 75.5003 95.5064C78.8068 95.5064 82.081 94.8552 85.1359 93.5898C88.1907 92.3244 90.9664 90.4698 93.3045 88.1317C95.6426 85.7936 97.4973 83.0179 98.7626 79.963C100.028 76.9082 100.679 73.634 100.679 70.3274C100.679 67.0209 100.028 63.7467 98.7626 60.6918C97.4973 57.637 95.6426 54.8613 93.3045 52.5232C90.9664 50.1851 88.1907 48.3304 85.1359 47.0651C82.081 45.7997 78.8068 45.1484 75.5003 45.1484C72.1937 45.1484 68.9196 45.7997 65.8647 47.0651C62.8098 48.3304 60.0341 50.1851 57.696 52.5232C55.358 54.8613 53.5033 57.637 52.2379 60.6918C50.9726 63.7467 50.3213 67.0209 50.3213 70.3274V70.3274Z" stroke="#2A4547" stroke-linecap="round" stroke-linejoin="round"/>
<path d="M64.2139 65.9864H86.7874V86.8229H64.2139V65.9864Z" fill="white"/>
<path d="M85.0502 61.6452C85.0502 60.391 84.8032 59.1491 84.3232 57.9904C83.8433 56.8317 83.1398 55.7788 82.2529 54.892C81.3661 54.0052 80.3133 53.3017 79.1545 52.8217C77.9958 52.3418 76.7539 52.0947 75.4997 52.0947C74.2455 52.0947 73.0036 52.3418 71.8449 52.8217C70.6862 53.3017 69.6333 54.0052 68.7465 54.892C67.8597 55.7788 67.1562 56.8317 66.6762 57.9904C66.1963 59.1491 65.9492 60.391 65.9492 61.6452V65.9862H71.1587V61.6452C71.1587 60.4939 71.6161 59.3898 72.4302 58.5757C73.2443 57.7616 74.3484 57.3042 75.4997 57.3042C76.651 57.3042 77.7552 57.7616 78.5693 58.5757C79.3834 59.3898 79.8407 60.4939 79.8407 61.6452V65.9862H85.0502V61.6452Z" fill="white" stroke="#2A4547" stroke-linecap="round" stroke-linejoin="round"/>
<path d="M64.2139 65.9864H86.7874V86.8229H64.2139V65.9864Z" stroke="#2A4547" stroke-linecap="round" stroke-linejoin="round"/>
<path d="M78.1055 75.5369C78.1068 75.1024 77.9994 74.6745 77.7931 74.2921C77.5868 73.9096 77.2881 73.5849 76.9243 73.3474C76.5604 73.1099 76.143 72.9671 75.7099 72.9321C75.2767 72.8971 74.8418 72.971 74.4445 73.147C74.0472 73.3231 73.7003 73.5956 73.4353 73.94C73.1703 74.2843 72.9956 74.6895 72.9271 75.1185C72.8586 75.5476 72.8985 75.987 73.0432 76.3967C73.1879 76.8065 73.4328 77.1735 73.7555 77.4644V79.8779C73.7555 80.3386 73.9385 80.7804 74.2643 81.1062C74.59 81.4319 75.0318 81.6149 75.4925 81.6149C75.9532 81.6149 76.395 81.4319 76.7208 81.1062C77.0465 80.7804 77.2295 80.3386 77.2295 79.8779V77.4644C77.5034 77.2233 77.7231 76.9268 77.8741 76.5946C78.0251 76.2623 78.104 75.9019 78.1055 75.5369Z" fill="#22A595" stroke="#2A4547" stroke-linecap="round" stroke-linejoin="round"/>
<path d="M54.6631 127.457C54.6631 127.799 55.202 128.137 56.2492 128.453C57.2963 128.769 58.8311 129.056 60.766 129.298C62.7008 129.54 64.9978 129.731 67.5258 129.862C70.0538 129.993 72.7633 130.061 75.4996 130.061C78.2359 130.061 80.9454 129.993 83.4734 129.862C86.0014 129.731 88.2984 129.54 90.2332 129.298C92.1681 129.056 93.7029 128.769 94.75 128.453C95.7971 128.137 96.3361 127.799 96.3361 127.457C96.3361 127.115 95.7971 126.776 94.75 126.46C93.7029 126.144 92.1681 125.857 90.2332 125.615C88.2984 125.373 86.0014 125.182 83.4734 125.051C80.9454 124.92 78.2359 124.853 75.4996 124.853C72.7633 124.853 70.0538 124.92 67.5258 125.051C64.9978 125.182 62.7008 125.373 60.766 125.615C58.8311 125.857 57.2963 126.144 56.2492 126.46C55.202 126.776 54.6631 127.115 54.6631 127.457Z" fill="#22A595"/>
</svg>
