<svg width="150" height="151" viewBox="0 0 150 151" fill="none" xmlns="http://www.w3.org/2000/svg">
<path d="M135 79.1648C135.001 70.2101 132.998 61.3686 129.137 53.2889C125.276 45.2091 119.656 38.096 112.688 32.4712C105.721 26.8463 97.5823 22.8524 88.87 20.7824C80.1578 18.7123 71.0927 18.6186 62.3396 20.5081C53.5865 22.3977 45.3673 26.2225 38.2848 31.7021C31.2023 37.1817 25.4361 44.1771 21.4092 52.1753C17.3822 60.1735 15.1966 68.9717 15.0127 77.9246C14.8287 86.8774 16.651 95.7579 20.346 103.915H129.654C133.183 96.1413 135.006 87.702 135 79.1648Z" fill="#E6F0ED"/>
<path d="M16.5 103.914H133.5" stroke="#2A4547" stroke-linecap="round" stroke-linejoin="round"/>
<path d="M9.75 103.914H13.5" stroke="#2A4547" stroke-linecap="round" stroke-linejoin="round"/>
<path d="M136.5 103.914H140.25" stroke="#2A4547" stroke-linecap="round" stroke-linejoin="round"/>
<path d="M51.6963 104.122H81.9393V45.3698C81.9393 44.9094 81.7565 44.4678 81.4311 44.1421C81.1056 43.8164 80.6642 43.6332 80.2038 43.6328H55.5753C54.5465 43.6328 53.5599 44.0415 52.8324 44.7689C52.105 45.4964 51.6963 46.483 51.6963 47.5118V104.122Z" fill="white"/>
<path d="M51.6963 104.122H81.9393V45.3698C81.9393 44.9094 81.7565 44.4678 81.4311 44.1421C81.1056 43.8164 80.6642 43.6332 80.2038 43.6328H55.5753C54.5465 43.6328 53.5599 44.0415 52.8324 44.7689C52.105 45.4964 51.6963 46.483 51.6963 47.5118V104.122Z" stroke="#2A4547" stroke-linecap="round" stroke-linejoin="round"/>
<path d="M120.6 26.6725C120.6 28.268 120.127 29.8276 119.24 31.1543C118.354 32.4809 117.094 33.5148 115.62 34.1254C114.146 34.736 112.524 34.8957 110.959 34.5845C109.394 34.2732 107.957 33.5049 106.829 32.3767C105.7 31.2485 104.932 29.8111 104.621 28.2463C104.31 26.6814 104.469 25.0594 105.08 23.5854C105.69 22.1113 106.724 20.8514 108.051 19.965C109.378 19.0786 110.937 18.6055 112.533 18.6055C114.672 18.6055 116.724 19.4554 118.237 20.9682C119.75 22.4811 120.6 24.533 120.6 26.6725Z" fill="white"/>
<path d="M120.6 26.6725C120.6 28.268 120.127 29.8276 119.24 31.1543C118.354 32.4809 117.094 33.5148 115.62 34.1254C114.146 34.736 112.524 34.8957 110.959 34.5845C109.394 34.2732 107.957 33.5049 106.829 32.3767C105.7 31.2485 104.932 29.8111 104.621 28.2463C104.31 26.6814 104.469 25.0594 105.08 23.5854C105.69 22.1113 106.724 20.8514 108.051 19.965C109.378 19.0786 110.937 18.6055 112.533 18.6055C114.672 18.6055 116.724 19.4554 118.237 20.9682C119.75 22.4811 120.6 24.533 120.6 26.6725V26.6725Z" stroke="#2A4547" stroke-linecap="round" stroke-linejoin="round"/>
<path d="M112.53 15.379V12.958" stroke="#2A4547" stroke-linecap="round" stroke-linejoin="round"/>
<path d="M120.516 18.6861L122.227 16.9746" stroke="#2A4547" stroke-linecap="round" stroke-linejoin="round"/>
<path d="M123.823 26.6719H126.244" stroke="#2A4547" stroke-linecap="round" stroke-linejoin="round"/>
<path d="M120.516 34.6562L122.227 36.3678" stroke="#2A4547" stroke-linecap="round" stroke-linejoin="round"/>
<path d="M112.53 37.9658V40.3853" stroke="#2A4547" stroke-linecap="round" stroke-linejoin="round"/>
<path d="M104.544 34.6562L102.834 36.3678" stroke="#2A4547" stroke-linecap="round" stroke-linejoin="round"/>
<path d="M101.237 26.6719H98.8174" stroke="#2A4547" stroke-linecap="round" stroke-linejoin="round"/>
<path d="M104.544 18.6861L102.834 16.9746" stroke="#2A4547" stroke-linecap="round" stroke-linejoin="round"/>
<path d="M44.1346 69.2236C40.1629 69.2236 36.2301 70.0059 32.5608 71.5259C28.8914 73.0458 25.5574 75.2737 22.749 78.0821C19.9407 80.8906 17.713 84.2248 16.1933 87.8942C14.6735 91.5636 13.8914 95.4964 13.8916 99.4681V104.118H74.3791V99.4681C74.3791 91.4468 71.1926 83.754 65.5207 78.082C59.8488 72.4101 52.1559 69.2236 44.1346 69.2236Z" fill="white"/>
<path d="M44.1346 69.2236C40.1629 69.2236 36.2301 70.0059 32.5608 71.5259C28.8914 73.0458 25.5574 75.2737 22.749 78.0821C19.9407 80.8906 17.713 84.2248 16.1933 87.8942C14.6735 91.5636 13.8914 95.4964 13.8916 99.4681V104.118H74.3791V99.4681C74.3791 91.4468 71.1926 83.754 65.5207 78.082C59.8488 72.4101 52.1559 69.2236 44.1346 69.2236V69.2236Z" stroke="#2A4547" stroke-linecap="round" stroke-linejoin="round"/>
<path d="M78.9149 49.6816H66.8174" stroke="#2A4547" stroke-linecap="round" stroke-linejoin="round"/>
<path d="M16.5273 87.0996L33.5493 104.122" stroke="#2A4547" stroke-linecap="round" stroke-linejoin="round"/>
<path d="M24.252 76.6777L51.696 104.122" stroke="#2A4547" stroke-linecap="round" stroke-linejoin="round"/>
<path d="M37.2451 70.0127L71.3536 104.121" stroke="#2A4547" stroke-linecap="round" stroke-linejoin="round"/>
<path d="M48.4786 69.5332L13.8916 104.122" stroke="#2A4547" stroke-linecap="round" stroke-linejoin="round"/>
<path d="M62.3488 75.3213L33.5488 104.121" stroke="#2A4547" stroke-linecap="round" stroke-linejoin="round"/>
<path d="M53.1689 104.122L71.2589 86.0303" stroke="#2A4547" stroke-linecap="round" stroke-linejoin="round"/>
<path d="M77.4033 43.6325V34.5605" stroke="#2A4547" stroke-linecap="round" stroke-linejoin="round"/>
<path d="M71.3535 43.6328V25.4873" stroke="#2A4547" stroke-linecap="round" stroke-linejoin="round"/>
<path d="M59.0328 60.2673H51.6963V54.2178H59.0328C59.4932 54.2182 59.9346 54.4014 60.2601 54.7271C60.5855 55.0528 60.7683 55.4944 60.7683 55.9548V58.5303C60.7685 58.7583 60.7237 58.9842 60.6366 59.1949C60.5495 59.4056 60.4217 59.5971 60.2605 59.7584C60.0993 59.9197 59.9079 60.0477 59.6973 60.135C59.4866 60.2223 59.2608 60.2673 59.0328 60.2673Z" fill="#22A595"/>
<path d="M58.7521 54.2178H51.7021V60.2673H52.9022L58.9426 54.2268C58.8794 54.2204 58.8158 54.2174 58.7521 54.2178Z" fill="white"/>
<path d="M59.0328 60.2673H51.6963V54.2178H59.0328C59.4932 54.2182 59.9346 54.4014 60.2601 54.7271C60.5855 55.0528 60.7683 55.4944 60.7683 55.9548V58.5303C60.7685 58.7583 60.7237 58.9842 60.6366 59.1949C60.5495 59.4056 60.4217 59.5971 60.2605 59.7584C60.0993 59.9197 59.9079 60.0477 59.6973 60.135C59.4866 60.2223 59.2608 60.2673 59.0328 60.2673Z" stroke="#2A4547" stroke-linecap="round" stroke-linejoin="round"/>
<path d="M66.8174 57.2432H92.5244V104.063H66.8174V57.2432Z" fill="white"/>
<path d="M66.8174 57.2432H92.5244V104.121H66.8174V57.2432Z" stroke="#2A4547" stroke-linecap="round" stroke-linejoin="round"/>
<path d="M92.5244 57.2476H66.8174L68.6174 54.9976C69.9441 53.3397 71.6267 52.0015 73.5405 51.0818C75.4544 50.1621 77.5505 49.6846 79.6739 49.6846C81.7967 49.6851 83.8923 50.1628 85.8056 51.0824C87.7189 52.0021 89.401 53.3401 90.7274 54.9976L92.5244 57.2476Z" fill="white" stroke="#2A4547" stroke-linecap="round" stroke-linejoin="round"/>
<path d="M104.86 88.999H130.596C130.969 88.9998 131.336 89.1044 131.653 89.3012C131.971 89.498 132.228 89.7792 132.396 90.1135L137.946 101.203C138.099 101.51 138.171 101.852 138.156 102.195C138.141 102.538 138.038 102.871 137.858 103.163C137.678 103.456 137.426 103.697 137.126 103.865C136.826 104.033 136.489 104.121 136.146 104.122H110.4C110.026 104.121 109.659 104.017 109.341 103.819C109.023 103.622 108.767 103.341 108.6 103.006L103.05 91.918C102.896 91.61 102.823 91.2678 102.839 90.9238C102.855 90.5799 102.958 90.2457 103.14 89.9531C103.321 89.6605 103.575 89.4192 103.876 89.2522C104.177 89.0852 104.516 88.9981 104.86 88.999Z" fill="#22A595"/>
<path d="M104.86 88.999H130.596C130.969 88.9998 131.336 89.1044 131.653 89.3012C131.971 89.498 132.228 89.7792 132.396 90.1135L137.946 101.203C138.099 101.51 138.171 101.852 138.156 102.195C138.141 102.538 138.038 102.871 137.858 103.163C137.678 103.456 137.426 103.697 137.126 103.865C136.826 104.033 136.489 104.121 136.146 104.122H110.4C110.026 104.121 109.659 104.017 109.341 103.819C109.023 103.622 108.767 103.341 108.6 103.006L103.05 91.918C102.896 91.61 102.823 91.2678 102.839 90.9238C102.855 90.5799 102.958 90.2457 103.14 89.9531C103.321 89.6605 103.575 89.4192 103.876 89.2522C104.177 89.0852 104.516 88.9981 104.86 88.999V88.999Z" stroke="#2A4547" stroke-linecap="round" stroke-linejoin="round"/>
<path d="M84.0948 82.709L77.4033 104.121" stroke="#2A4547" stroke-linecap="round" stroke-linejoin="round"/>
<path d="M103.361 92.5234L98.5741 104.121L91.5166 92.5234L86.4766 104.121" stroke="#2A4547" stroke-linecap="round" stroke-linejoin="round"/>
<path d="M81.4736 91.0928L87.1796 102.503" stroke="#2A4547" stroke-linecap="round" stroke-linejoin="round"/>
<path d="M135.622 96.5596H105.378" stroke="#2A4547" stroke-linecap="round" stroke-linejoin="round"/>
<path d="M122.769 88.999L130.329 104.122" stroke="#2A4547" stroke-linecap="round" stroke-linejoin="round"/>
<path d="M112.184 88.999L119.744 104.122" stroke="#2A4547" stroke-linecap="round" stroke-linejoin="round"/>
<path d="M74.3789 63.292V81.439" stroke="#2A4547" stroke-linecap="round" stroke-linejoin="round"/>
<path d="M83.4512 63.292V69.3415" stroke="#2A4547" stroke-linecap="round" stroke-linejoin="round"/>
<path d="M84.7017 77.4004H110.437C110.811 77.401 111.177 77.5055 111.495 77.7023C111.813 77.8992 112.07 78.1805 112.237 78.5149L117.787 89.6044C117.941 89.9116 118.013 90.2529 117.998 90.596C117.982 90.9391 117.88 91.2725 117.7 91.5648C117.519 91.8571 117.267 92.0986 116.968 92.2663C116.668 92.4341 116.331 92.5226 115.987 92.5234H90.2472C89.8734 92.5226 89.5071 92.418 89.1893 92.2212C88.8714 92.0244 88.6145 91.7432 88.4472 91.4089L82.8972 80.3194C82.7436 80.0118 82.6711 79.6701 82.6866 79.3267C82.7022 78.9832 82.8052 78.6495 82.986 78.357C83.1668 78.0646 83.4193 77.8232 83.7196 77.6558C84.0198 77.4884 84.3579 77.4005 84.7017 77.4004Z" fill="#22A595"/>
<path d="M115.464 84.9619H85.2207" stroke="#2A4547" stroke-linecap="round" stroke-linejoin="round"/>
<path d="M102.61 77.4004L110.172 92.5234" stroke="#2A4547" stroke-linecap="round" stroke-linejoin="round"/>
<path d="M92.0254 77.4004L99.5869 92.5234" stroke="#2A4547" stroke-linecap="round" stroke-linejoin="round"/>
<path d="M84.7017 77.4004H110.437C110.811 77.401 111.177 77.5055 111.495 77.7023C111.813 77.8992 112.07 78.1805 112.237 78.5149L117.787 89.6044C117.941 89.9116 118.013 90.2529 117.998 90.596C117.982 90.9391 117.88 91.2725 117.7 91.5648C117.519 91.8571 117.267 92.0986 116.968 92.2663C116.668 92.4341 116.331 92.5226 115.987 92.5234H90.2472C89.8734 92.5226 89.5071 92.418 89.1893 92.2212C88.8714 92.0244 88.6145 91.7432 88.4472 91.4089L82.8972 80.3194C82.7436 80.0118 82.6711 79.6701 82.6866 79.3267C82.7022 78.9832 82.8052 78.6495 82.986 78.357C83.1668 78.0646 83.4193 77.8232 83.7196 77.6558C84.0198 77.4884 84.3579 77.4005 84.7017 77.4004V77.4004Z" stroke="#2A4547"/>
</svg>
