<svg width="88" height="88" viewBox="0 0 88 88" fill="none" xmlns="http://www.w3.org/2000/svg">
<rect width="88" height="88" rx="4" fill="#E6F0ED"/>
<path opacity="0.99" d="M41.1864 50.823C40.9675 50.8233 40.7507 50.7803 40.5485 50.6965C40.3463 50.6127 40.1626 50.4897 40.0081 50.3347L35.3206 45.6473C35.0113 45.3341 34.8385 44.9113 34.8399 44.4711C34.8412 44.0309 35.0167 43.6092 35.3279 43.2979C35.6392 42.9867 36.0609 42.8112 36.501 42.8098C36.9412 42.8084 37.364 42.9812 37.6772 43.2905L41.1864 46.7996L50.3206 37.6655C50.6338 37.3562 51.0566 37.1834 51.4968 37.1848C51.9369 37.1862 52.3587 37.3617 52.6699 37.6729C52.9811 37.9842 53.1566 38.4059 53.158 38.8461C53.1593 39.2863 52.9865 39.7091 52.6772 40.0223L42.3647 50.3348C42.2102 50.4898 42.0265 50.6127 41.8243 50.6965C41.6221 50.7803 41.4053 50.8233 41.1864 50.823Z" fill="#068576"/>
<path opacity="0.4" d="M43.9997 27.3333C40.7033 27.3333 37.481 28.3108 34.7402 30.1422C31.9994 31.9735 29.8632 34.5765 28.6017 37.6219C27.3402 40.6674 27.0102 44.0185 27.6533 47.2515C28.2963 50.4845 29.8837 53.4542 32.2146 55.7851C34.5454 58.116 37.5152 59.7033 40.7482 60.3464C43.9812 60.9895 47.3323 60.6594 50.3777 59.398C53.4232 58.1365 56.0261 56.0003 57.8575 53.2595C59.6889 50.5187 60.6663 47.2963 60.6663 44C60.6613 39.5813 58.9037 35.345 55.7792 32.2204C52.6547 29.0959 48.4184 27.3384 43.9997 27.3333ZM52.678 40.0221L42.3655 50.3346C42.2108 50.4894 42.0271 50.6122 41.8249 50.696C41.6227 50.7798 41.406 50.8229 41.1871 50.8229C40.9683 50.8229 40.7516 50.7798 40.5494 50.696C40.3472 50.6122 40.1635 50.4894 40.0087 50.3346L35.3213 45.6471C35.0121 45.3339 34.8392 44.9111 34.8406 44.4709C34.842 44.0308 35.0175 43.609 35.3287 43.2978C35.6399 42.9865 36.0617 42.8111 36.5018 42.8097C36.942 42.8083 37.3648 42.9811 37.678 43.2903L41.1871 46.7995L50.3213 37.6653C50.6346 37.3561 51.0574 37.1833 51.4975 37.1847C51.9377 37.1861 52.3594 37.3615 52.6707 37.6728C52.9819 37.984 53.1574 38.4058 53.1587 38.8459C53.1601 39.2861 52.9873 39.7089 52.678 40.0221Z" fill="#068576"/>
</svg>
