<svg width="151" height="150" viewBox="0 0 151 150" fill="none" xmlns="http://www.w3.org/2000/svg">
<path d="M15.5 76.2012C15.5 92.1142 21.8214 107.375 33.0736 118.628C44.3258 129.88 59.587 136.201 75.5 136.201C91.413 136.201 106.674 129.88 117.926 118.628C129.179 107.375 135.5 92.1142 135.5 76.2012C135.5 60.2882 129.179 45.0269 117.926 33.7748C106.674 22.5226 91.413 16.2012 75.5 16.2012C59.587 16.2012 44.3258 22.5226 33.0736 33.7748C21.8214 45.0269 15.5 60.2882 15.5 76.2012Z" fill="#E6F0ED"/>
<path d="M75.6295 102.228C72.0806 102.168 68.5552 102.815 65.2589 104.131C61.9626 105.448 58.9614 107.407 56.4303 109.896C53.8993 112.384 51.8889 115.351 50.5167 118.625C49.1444 121.898 48.4376 125.412 48.4375 128.961V134.85H102.82V128.961C102.82 125.412 102.114 121.898 100.741 118.625C99.3693 115.351 97.3591 112.384 94.8281 109.896C92.2972 107.407 89.2961 105.448 85.9999 104.131C82.7037 102.815 79.1783 102.168 75.6295 102.228Z" fill="#22A595"/>
<path d="M102.82 134.85V128.961C102.82 125.412 102.114 121.898 100.741 118.625C99.3693 115.351 97.3591 112.384 94.8281 109.896C92.2972 107.407 89.2961 105.448 85.9999 104.131C82.7037 102.815 79.1783 102.168 75.6295 102.228C72.0806 102.168 68.5552 102.815 65.2589 104.131C61.9626 105.448 58.9614 107.407 56.4303 109.896C53.8993 112.384 51.8889 115.351 50.5167 118.625C49.1444 121.898 48.4376 125.412 48.4375 128.961V134.85" stroke="#2A4547" stroke-linecap="round" stroke-linejoin="round"/>
<path d="M58.4082 134.853V126.695" stroke="#2A4547" stroke-linecap="round" stroke-linejoin="round"/>
<path d="M92.8496 134.853V126.695" stroke="#2A4547" stroke-linecap="round" stroke-linejoin="round"/>
<path d="M82.1463 102.96C82.1253 102.929 82.1133 102.908 82.1103 102.903C79.9866 102.414 77.8108 102.187 75.6318 102.228C73.4477 102.187 71.2668 102.415 69.1383 102.906L69.1188 102.954L67.1133 111.654L75.6318 134.85L84.1503 111.656L82.1463 102.96Z" fill="white" stroke="#2A4547" stroke-linecap="round" stroke-linejoin="round"/>
<path d="M75.6302 97.6904H69.2852V107.308L75.6302 111.537L81.9737 107.308V97.6904H75.6302Z" fill="white" stroke="#2A4547" stroke-linecap="round" stroke-linejoin="round"/>
<path d="M75.6304 112.193L72.1504 125.381L75.6304 134.853L79.1089 125.379L75.6304 112.193Z" fill="#22A595" stroke="#2A4547" stroke-linecap="round" stroke-linejoin="round"/>
<path d="M82.2841 116.616L75.6301 112.192L68.9746 116.616" stroke="#2A4547" stroke-linecap="round" stroke-linejoin="round"/>
<path d="M71.0973 134.85L64.0788 129.974C63.7147 129.721 63.4558 129.344 63.351 128.914C63.2463 128.483 63.3029 128.029 63.5103 127.638L66.0228 122.885L59.3463 117.164C59.07 116.926 58.8713 116.612 58.7761 116.26C58.6809 115.909 58.6935 115.537 58.8123 115.193C60.5058 110.309 61.7118 103.818 69.2853 102.221L67.1118 111.656L75.6303 134.85" fill="#22A595"/>
<path d="M71.0973 134.85L64.0788 129.974C63.7147 129.721 63.4558 129.344 63.351 128.914C63.2463 128.483 63.3029 128.029 63.5103 127.638L66.0228 122.885L59.3463 117.164C59.07 116.926 58.8713 116.612 58.7761 116.26C58.6809 115.909 58.6935 115.537 58.8123 115.193C60.5058 110.309 61.7118 103.818 69.2853 102.221L67.1118 111.656L75.6303 134.85" stroke="#2A4547" stroke-linecap="round" stroke-linejoin="round"/>
<path d="M80.1624 134.85L87.1809 129.973C87.5449 129.721 87.8038 129.344 87.9086 128.913C88.0134 128.483 87.9567 128.029 87.7494 127.638L85.2384 122.884L91.9134 117.163C92.1887 116.927 92.387 116.614 92.4827 116.264C92.5784 115.914 92.5672 115.543 92.4504 115.2C90.7569 110.316 89.5509 103.825 81.9774 102.228L84.1509 111.663L75.6309 134.85" fill="#22A595"/>
<path d="M80.1624 134.85L87.1809 129.973C87.5449 129.721 87.8038 129.344 87.9086 128.913C88.0134 128.483 87.9567 128.029 87.7494 127.638L85.2384 122.884L91.9134 117.163C92.1887 116.927 92.387 116.614 92.4827 116.264C92.5784 115.914 92.5672 115.543 92.4504 115.2C90.7569 110.316 89.5509 103.825 81.9774 102.228L84.1509 111.663L75.6309 134.85" stroke="#2A4547" stroke-linecap="round" stroke-linejoin="round"/>
<path d="M93.7594 77.7508V73.2193C93.7594 70.8388 93.2905 68.4815 92.3795 66.2822C91.4685 64.0829 90.1333 62.0845 88.45 60.4012C86.7667 58.7179 84.7683 57.3827 82.569 56.4717C80.3697 55.5607 78.0124 55.0918 75.6319 55.0918C73.2514 55.0918 70.8941 55.5607 68.6948 56.4717C66.4955 57.3827 64.4971 58.7179 62.8138 60.4012C61.1305 62.0845 59.7953 64.0829 58.8843 66.2822C57.9733 68.4815 57.5044 70.8388 57.5044 73.2193V77.7508C56.5429 77.7508 55.6207 78.1328 54.9408 78.8127C54.2609 79.4926 53.8789 80.4148 53.8789 81.3763C53.8789 82.3378 54.2609 83.26 54.9408 83.9399C55.6207 84.6198 56.5429 85.0018 57.5044 85.0018C57.5794 85.0018 57.6544 84.9838 57.7264 84.9793C58.3674 89.2695 60.5276 93.1869 63.8137 96.0185C67.0998 98.8501 71.2934 100.408 75.6312 100.408C79.9689 100.408 84.1625 98.8501 87.4487 96.0185C90.7348 93.1869 92.8949 89.2695 93.5359 84.9793C93.6109 84.9793 93.6859 85.0018 93.7594 85.0018C94.721 85.0018 95.6431 84.6198 96.323 83.9399C97.0029 83.26 97.3849 82.3378 97.3849 81.3763C97.3849 80.4148 97.0029 79.4926 96.323 78.8127C95.6431 78.1328 94.721 77.7508 93.7594 77.7508Z" fill="white" stroke="#2A4547" stroke-linecap="round" stroke-linejoin="round"/>
<path d="M73.8179 78.6575C73.8179 80.8208 72.9585 82.8956 71.4288 84.4253C69.899 85.9551 67.8243 86.8145 65.6609 86.8145C63.4975 86.8145 61.4228 85.9551 59.893 84.4253C58.3633 82.8956 57.5039 80.8208 57.5039 78.6575V74.126H70.1924C71.1539 74.126 72.0761 74.5079 72.756 75.1879C73.4359 75.8678 73.8179 76.7899 73.8179 77.7515V78.6575Z" fill="#22A595" stroke="#2A4547" stroke-linecap="round" stroke-linejoin="round"/>
<path d="M93.7569 78.6573C93.7278 80.8017 92.8556 82.8485 91.3288 84.3546C89.8021 85.8608 87.7438 86.7052 85.5992 86.7052C83.4546 86.7052 81.3962 85.8608 79.8695 84.3546C78.3428 82.8485 77.4705 80.8017 77.4414 78.6573V77.7573C77.4414 76.7958 77.8234 75.8736 78.5033 75.1937C79.1832 74.5138 80.1054 74.1318 81.0669 74.1318H93.7569V78.6573Z" fill="#22A595" stroke="#2A4547" stroke-linecap="round" stroke-linejoin="round"/>
<path d="M73.8164 78.6572H77.4419" stroke="#2A4547" stroke-linecap="round" stroke-linejoin="round"/>
<path d="M75.6312 52.3725C75.6312 52.3725 77.4432 50.5605 82.8822 50.5605C101.841 50.5605 104.412 77.5995 90.5967 80.2605C90.3281 80.3008 90.054 80.2799 89.7947 80.1992C89.5354 80.1185 89.2977 79.9802 89.0995 79.7947C88.9012 79.6091 88.7475 79.3811 88.6499 79.1277C88.5523 78.8743 88.5132 78.6022 88.5357 78.3315C89.8962 60.2475 77.3772 61.569 75.6357 65.0625C73.8882 61.569 61.3692 60.2475 62.7357 78.3315C62.7581 78.6022 62.7191 78.8743 62.6215 79.1277C62.5238 79.3811 62.3701 79.6091 62.1719 79.7947C61.9736 79.9802 61.7359 80.1185 61.4767 80.1992C61.2174 80.2799 60.9432 80.3008 60.6747 80.2605C46.8597 77.5995 49.4247 50.5605 68.3907 50.5605C73.8177 50.5605 75.6312 52.3725 75.6312 52.3725Z" fill="white" stroke="#2A4547" stroke-linecap="round" stroke-linejoin="round"/>
<path d="M86.5067 79.5629C86.2821 79.0248 85.9034 78.5652 85.4181 78.2419C84.9329 77.9186 84.3628 77.7461 83.7797 77.7461C83.1967 77.7461 82.6266 77.9186 82.1413 78.2419C81.6561 78.5652 81.2773 79.0248 81.0527 79.5629" stroke="#2A4547" stroke-linecap="round" stroke-linejoin="round"/>
<path d="M70.2064 79.5625C69.9821 79.0243 69.6036 78.5645 69.1184 78.2411C68.6333 77.9177 68.0632 77.7451 67.4802 77.7451C66.8971 77.7451 66.3271 77.9177 65.8419 78.2411C65.3568 78.5645 64.9782 79.0243 64.7539 79.5625" stroke="#2A4547" stroke-linecap="round" stroke-linejoin="round"/>
<path d="M81.0679 90.0585C79.6075 91.4662 77.6581 92.2528 75.6297 92.2528C73.6012 92.2528 71.6518 91.4662 70.1914 90.0585" stroke="#2A4547" stroke-linecap="round" stroke-linejoin="round"/>
<path d="M82.207 38.6053C82.207 41.8628 82.8486 45.0884 84.0952 48.098C85.3418 51.1075 87.169 53.842 89.4724 56.1454C91.7758 58.4488 94.5103 60.276 97.5199 61.5226C100.529 62.7692 103.755 63.4108 107.013 63.4108C110.27 63.4108 113.496 62.7692 116.505 61.5226C119.515 60.276 122.249 58.4488 124.553 56.1454C126.856 53.842 128.683 51.1075 129.93 48.098C131.176 45.0884 131.818 41.8628 131.818 38.6053C131.818 35.3478 131.176 32.1222 129.93 29.1126C128.683 26.1031 126.856 23.3686 124.553 21.0652C122.249 18.7618 119.515 16.9346 116.505 15.688C113.496 14.4414 110.27 13.7998 107.013 13.7998C103.755 13.7998 100.529 14.4414 97.5199 15.688C94.5103 16.9346 91.7758 18.7618 89.4724 21.0652C87.169 23.3686 85.3418 26.1031 84.0952 29.1126C82.8486 32.1222 82.207 35.3478 82.207 38.6053Z" fill="white" stroke="#2A4547" stroke-linecap="round" stroke-linejoin="round"/>
<path d="M118.63 44.4147L112.821 38.6052L118.63 32.7957C119.38 32.021 119.795 30.9829 119.786 29.9051C119.777 28.8272 119.345 27.7961 118.583 27.0339C117.821 26.2718 116.789 25.8396 115.712 25.8307C114.634 25.8218 113.596 26.2368 112.821 26.9862L107.011 32.7957L101.202 26.9862C100.823 26.5943 100.37 26.2818 99.8684 26.0669C99.3673 25.852 98.8284 25.739 98.2831 25.7345C97.7379 25.73 97.1972 25.8341 96.6926 26.0406C96.188 26.2472 95.7295 26.5522 95.344 26.9377C94.9584 27.3233 94.6535 27.7817 94.4469 28.2863C94.2403 28.791 94.1363 29.3316 94.1408 29.8769C94.1453 30.4221 94.2583 30.961 94.4732 31.4621C94.6881 31.9633 95.0006 32.4166 95.3925 32.7957L101.202 38.6052L95.3925 44.4147C95.0006 44.7938 94.6881 45.2472 94.4732 45.7483C94.2583 46.2494 94.1453 46.7883 94.1408 47.3336C94.1363 47.8788 94.2403 48.4195 94.4469 48.9241C94.6535 49.4287 94.9584 49.8872 95.344 50.2727C95.7295 50.6583 96.188 50.9632 96.6926 51.1698C97.1972 51.3764 97.7379 51.4804 98.2831 51.4759C98.8284 51.4714 99.3673 51.3584 99.8684 51.1435C100.37 50.9286 100.823 50.6161 101.202 50.2242L107.011 44.4147L112.821 50.2242C113.596 50.9737 114.634 51.3887 115.712 51.3797C116.789 51.3708 117.821 50.9387 118.583 50.1765C119.345 49.4144 119.777 48.3832 119.786 47.3054C119.795 46.2276 119.38 45.1894 118.63 44.4147Z" fill="#22A595" stroke="#2A4547" stroke-linecap="round" stroke-linejoin="round"/>
<path d="M19.4707 38.6055C19.4707 41.8631 20.1123 45.0887 21.3589 48.0982C22.6055 51.1077 24.4327 53.8423 26.7361 56.1457C29.0395 58.4491 31.774 60.2763 34.7835 61.5228C37.7931 62.7694 41.0187 63.4111 44.2762 63.411C47.5337 63.4111 50.7593 62.7694 53.7689 61.5228C56.7784 60.2763 59.5129 58.4491 61.8163 56.1457C64.1197 53.8423 65.9469 51.1077 67.1935 48.0982C68.4401 45.0887 69.0817 41.8631 69.0817 38.6055C69.0817 35.348 68.4401 32.1224 67.1935 29.1129C65.9469 26.1034 64.1197 23.3688 61.8163 21.0654C59.5129 18.762 56.7784 16.9348 53.7689 15.6883C50.7593 14.4417 47.5337 13.8 44.2762 13.8C41.0187 13.8 37.7931 14.4417 34.7835 15.6883C31.774 16.9348 29.0395 18.762 26.7361 21.0654C24.4327 23.3688 22.6055 26.1034 21.3589 29.1129C20.1123 32.1224 19.4707 35.348 19.4707 38.6055Z" fill="white" stroke="#2A4547" stroke-linecap="round" stroke-linejoin="round"/>
<path d="M40.7575 50.5707C40.1169 50.5724 39.4823 50.4473 38.8902 50.2028C38.2981 49.9582 37.7602 49.599 37.3075 49.1457L30.8125 42.6492C29.8993 41.7356 29.3864 40.4967 29.3867 39.2049C29.387 37.9132 29.9004 36.6745 30.814 35.7612C31.7276 34.848 32.9666 34.3352 34.2583 34.3354C35.5501 34.3357 36.7888 34.8491 37.702 35.7627L40.7515 38.8122L50.839 28.3842C51.2912 27.9321 51.828 27.5734 52.4188 27.3287C53.0096 27.084 53.6428 26.958 54.2823 26.958C54.9217 26.958 55.555 27.084 56.1457 27.3287C56.7365 27.5734 57.2733 27.9321 57.7255 28.3842C58.1777 28.8364 58.5364 29.3732 58.7811 29.964C59.0258 30.5548 59.1518 31.188 59.1518 31.8275C59.1518 32.467 59.0258 33.1002 58.7811 33.691C58.5364 34.2818 58.1777 34.8186 57.7255 35.2707L44.1955 49.1457C43.7445 49.5979 43.2086 49.9565 42.6186 50.2011C42.0286 50.4456 41.3962 50.5712 40.7575 50.5707Z" fill="#22A595" stroke="#2A4547" stroke-linecap="round" stroke-linejoin="round"/>
</svg>
