<svg width="886" height="863" viewBox="0 0 886 863" fill="none" xmlns="http://www.w3.org/2000/svg">
<g opacity="0.5">
<path d="M235.684 561.717C364.109 692.18 574.565 705.821 717.785 589.915C660.525 631.801 570.984 656.861 529.303 612.25C454.2 531.865 421.536 628.882 368.856 618.75C316.176 608.617 273.92 537.627 244.457 554.617C242.07 555.994 237.292 559.928 235.684 561.717Z" fill="#E6F0ED"/>
<path d="M233.549 598.736C374.844 773.532 628.956 802.282 801.122 662.951C973.289 523.62 998.314 268.971 857.019 94.1754C753.979 -33.2933 590.945 -83.0951 443.445 -46.6849C562.03 -60.8765 685.84 -14.8851 767.317 85.9085C892.522 240.799 870.347 466.451 717.785 589.915C574.565 705.821 364.109 692.18 235.684 561.717C220.766 578.321 228.754 592.409 233.549 598.736Z" fill="#E6F0ED"/>
<path fill-rule="evenodd" clip-rule="evenodd" d="M274.602 627.355C293.489 656.703 317.845 683.224 341.68 681.615C344.12 681.451 347.315 681.308 351.186 681.178C324.08 666.453 298.349 648.489 274.602 627.355ZM663.9 596.862C644.316 602.286 625.049 600.644 607.786 587.895C578.617 566.354 557.031 540.247 538.195 517.467C507.286 480.084 483.784 451.659 446.331 467.067C423.378 476.508 422.228 493.457 421.136 509.541C420.119 524.515 419.153 538.739 400.693 545.458C378.713 553.459 363.138 550.339 350.258 547.759C335.634 544.83 324.484 542.597 311.375 558.124C308.681 561.315 307.553 564.727 307.37 568.222C324.306 581.543 342.892 594.273 362.996 598.14C382.464 601.884 399.199 590.995 416.351 579.835C445.614 560.794 476.095 540.961 523.444 591.64C554.647 625.037 612.674 619.387 663.9 596.862Z" fill="#E6F0ED"/>
</g>
</svg>
