<svg width="343" height="318" viewBox="0 0 343 318" fill="none" xmlns="http://www.w3.org/2000/svg">
<g opacity="0.5">
<path d="M72.6245 233.428C112.195 273.627 177.042 277.83 221.172 242.117C203.529 255.023 175.939 262.745 163.096 248.999C139.955 224.23 129.89 254.124 113.658 251.002C97.426 247.88 84.4057 226.005 75.3276 231.241C74.5919 231.665 73.1198 232.877 72.6245 233.428Z" fill="#E6F0ED"/>
<path d="M71.9664 244.835C115.503 298.694 193.802 307.553 246.851 264.621C299.9 221.69 307.611 143.226 264.074 89.3666C232.325 50.0902 182.089 34.7449 136.641 45.9639C173.18 41.5911 211.329 55.7622 236.434 86.8193C275.013 134.545 268.18 204.074 221.172 242.117C177.042 277.83 112.195 273.627 72.6245 233.428C68.0279 238.545 70.4892 242.885 71.9664 244.835Z" fill="#E6F0ED"/>
<path fill-rule="evenodd" clip-rule="evenodd" d="M84.6149 253.653C90.4343 262.696 97.9393 270.868 105.283 270.372C106.035 270.322 107.02 270.278 108.213 270.238C99.8605 265.7 91.9321 260.165 84.6149 253.653ZM204.567 244.258C198.533 245.929 192.597 245.423 187.278 241.495C178.29 234.857 171.639 226.813 165.835 219.794C156.311 208.275 149.069 199.517 137.529 204.264C130.457 207.174 130.102 212.396 129.766 217.352C129.453 221.966 129.155 226.348 123.467 228.419C116.694 230.884 111.895 229.923 107.927 229.128C103.421 228.225 99.9848 227.537 95.9459 232.321C95.1158 233.305 94.768 234.356 94.7117 235.433C99.9301 239.537 105.657 243.46 111.852 244.651C117.85 245.805 123.006 242.45 128.292 239.011C137.308 233.144 146.7 227.033 161.29 242.648C170.904 252.939 188.784 251.198 204.567 244.258Z" fill="#E6F0ED"/>
</g>
</svg>
