<svg width="768" height="951" viewBox="0 0 768 951" fill="none" xmlns="http://www.w3.org/2000/svg">
<g opacity="0.5">
<path d="M78.7336 794.849C270.69 913.51 526.705 868.278 664.307 687.581C607.99 754.491 508.094 810.696 445.131 769.466C331.677 695.175 320.943 820.91 254.893 824.188C188.844 827.465 117.473 754.815 87.1621 783.781C84.7059 786.128 80.1352 792.236 78.7336 794.849Z" fill="#E6F0ED"/>
<path d="M87.0058 839.805C307.345 1007.79 620.059 967.88 785.471 750.663C950.883 533.445 906.355 221.177 686.015 53.1919C525.334 -69.3104 315.528 -81.2541 149.546 5.49792C287.402 -46.1882 449.121 -27.3326 576.177 69.534C771.426 218.39 810.883 495.099 664.307 687.581C526.705 868.278 270.69 913.51 78.7336 794.849C65.7267 819.097 79.4138 833.631 87.0058 839.805Z" fill="#E6F0ED"/>
<path fill-rule="evenodd" clip-rule="evenodd" d="M144.536 862.068C175.739 891.689 212.666 916.325 240.738 907.425C243.613 906.514 247.398 905.408 251.996 904.12C215.227 894.416 179.157 880.431 144.536 862.068ZM601.806 711.669C579.941 723.892 556.389 727.562 531.988 717.346C490.755 700.083 457.268 675.134 428.048 653.365C380.098 617.641 343.638 590.477 303.294 619.884C278.571 637.905 282.151 658.539 285.548 678.119C288.711 696.348 291.716 713.664 271.576 727.11C247.595 743.121 228.031 743.942 211.852 744.62C193.482 745.391 179.476 745.978 168.321 768.407C166.029 773.016 165.676 777.433 166.479 781.67C190.657 792.668 216.639 802.475 241.845 801.225C266.253 800.013 283.108 782.078 300.384 763.695C329.856 732.333 360.555 699.666 432.082 746.503C479.218 777.368 547.052 753.628 601.806 711.669Z" fill="#E6F0ED"/>
</g>
</svg>
