<svg width="76" height="44" viewBox="0 0 76 44" fill="none" xmlns="http://www.w3.org/2000/svg">
<path opacity="0.7" fill-rule="evenodd" clip-rule="evenodd" d="M0.385864 22V43.158H38H75.6142V22V0.842041H38H0.385864V22ZM13.8152 18.0263C14.469 18.1261 14.9768 18.2943 15.5462 18.5996C15.9566 18.8195 16.665 19.3396 16.6655 19.4213C16.6658 19.454 15.9125 20.4202 15.7816 20.5552C15.7502 20.5875 15.6158 20.5032 15.4473 20.3454C14.8607 19.7967 14.111 19.4799 13.2864 19.4321C12.292 19.3745 11.4523 19.6907 10.759 20.3837C9.91861 21.2239 9.61144 22.3433 9.90563 23.4937C10.059 24.0932 10.2689 24.4692 10.7155 24.9446C11.5793 25.8637 12.9308 26.1974 14.1726 25.7979C14.6463 25.6454 15.2541 25.3006 15.5679 25.006L15.7337 24.8504L16.1133 25.2619C16.3221 25.4881 16.5374 25.7367 16.5918 25.8142C16.6886 25.9521 16.6858 25.9593 16.4579 26.1569C15.7961 26.7305 14.8426 27.2087 14.0061 27.3864C13.4121 27.5126 12.2135 27.4651 11.6136 27.2914C10.2173 26.8876 9.02188 25.8235 8.50346 24.5228C7.46847 21.9264 8.76771 19.1211 11.4125 18.2416C12.2676 17.9574 12.958 17.8954 13.8152 18.0263ZM65.4433 18.0949C66.2732 18.2837 67.1157 18.704 67.6418 19.1915L67.9135 19.4434L67.5548 19.8842C67.3579 20.1267 67.1467 20.388 67.0857 20.465L66.9752 20.6048L66.7249 20.3762C65.3041 19.0766 63.1582 19.1126 61.9141 20.4571C60.6042 21.8726 60.7853 24.1234 62.3025 25.2754C62.9358 25.7564 63.5621 25.9613 64.3887 25.9579C65.1757 25.9548 65.9925 25.6535 66.6733 25.1152L66.9836 24.87L67.2939 25.2128C67.6865 25.6467 67.915 25.9181 67.915 25.9506C67.915 26.0304 67.0946 26.6213 66.6742 26.8442C65.8388 27.2877 65.3638 27.4167 64.4475 27.4489C63.5424 27.4808 63.09 27.4089 62.3627 27.1177C58.9755 25.7613 58.3258 21.1798 61.2103 18.9921C62.3904 18.0969 63.9753 17.761 65.4433 18.0949ZM33.0044 18.7381V19.4728H31.5351H30.0658V23.4399V27.407H29.2429H28.4202V23.4409V19.4747L26.9362 19.4592L25.4522 19.4434L25.4356 18.7234L25.4191 18.0035H29.2117H33.0044V18.7381ZM44.5944 21.7978L46.0344 25.5922L47.2572 22.4002C47.9296 20.6446 48.5846 18.9372 48.712 18.606L48.9439 18.0035H49.7888H50.6341L50.532 18.2604C50.4761 18.4017 49.6237 20.5175 48.6378 22.962L46.8452 27.4068L45.9939 27.3922L45.1427 27.3777L43.3377 22.8522C42.3448 20.3632 41.506 18.254 41.4737 18.1651L41.4149 18.0035H42.2846H43.1544L44.5944 21.7978Z" fill="#02191B"/>
</svg>
