<svg width="158" height="64" viewBox="0 0 158 64" fill="none" xmlns="http://www.w3.org/2000/svg">
<rect width="158" height="64" rx="4" fill="#F8F9F9"/>
<path opacity="0.7" fill-rule="evenodd" clip-rule="evenodd" d="M52.0615 32V47.1528H78.9999H105.938V32V16.8472H78.9999H52.0615V32ZM61.6793 29.1541C62.1475 29.2256 62.5112 29.346 62.919 29.5647C63.2129 29.7222 63.7203 30.0947 63.7206 30.1532C63.7208 30.1766 63.1813 30.8686 63.0876 30.9653C63.0651 30.9884 62.9689 30.928 62.8482 30.815C62.428 30.422 61.8912 30.1951 61.3006 30.1609C60.5884 30.1197 59.9871 30.3462 59.4906 30.8425C58.8887 31.4442 58.6687 32.2459 58.8794 33.0697C58.9892 33.4991 59.1395 33.7684 59.4594 34.1088C60.078 34.7671 61.0459 35.0061 61.9352 34.72C62.2745 34.6108 62.7098 34.3639 62.9346 34.1528L63.0533 34.0414L63.3252 34.3361C63.4747 34.4981 63.6289 34.6762 63.6678 34.7317C63.7372 34.8304 63.7352 34.8355 63.5719 34.9771C63.098 35.3879 62.4151 35.7303 61.816 35.8576C61.3906 35.948 60.5322 35.914 60.1026 35.7896C59.1026 35.5004 58.2464 34.7383 57.8752 33.8068C57.1339 31.9473 58.0644 29.9382 59.9586 29.3083C60.5709 29.1048 61.0654 29.0604 61.6793 29.1541ZM98.6542 29.2033C99.2485 29.3385 99.8519 29.6395 100.229 29.9886L100.423 30.169L100.166 30.4847C100.025 30.6584 99.8741 30.8455 99.8304 30.9007L99.7513 31.0008L99.572 30.8371C98.5545 29.9064 97.0176 29.9321 96.1266 30.895C95.1885 31.9088 95.3182 33.5208 96.4048 34.3458C96.8583 34.6903 97.3069 34.837 97.8989 34.8346C98.4625 34.8323 99.0475 34.6165 99.535 34.231L99.7573 34.0554L99.9795 34.3009C100.261 34.6117 100.424 34.8061 100.424 34.8293C100.424 34.8865 99.8368 35.3097 99.5357 35.4693C98.9374 35.7869 98.5972 35.8793 97.941 35.9024C97.2928 35.9252 96.9688 35.8737 96.4479 35.6652C94.0221 34.6938 93.5568 31.4126 95.6226 29.8458C96.4677 29.2047 97.6028 28.9641 98.6542 29.2033ZM75.4221 29.6639V30.1901H74.3699H73.3176V33.0312V35.8724H72.7283H72.1391V33.0319V30.1915L71.0763 30.1803L70.0134 30.169L70.0016 29.6534L69.9897 29.1378H72.7059H75.4221V29.6639ZM83.7227 31.8552L84.7539 34.5726L85.6297 32.2866C86.1113 31.0293 86.5804 29.8065 86.6716 29.5693L86.8376 29.1378H87.4428H88.0481L87.9751 29.3218C87.935 29.423 87.3245 30.9383 86.6184 32.689L85.3346 35.8722L84.7249 35.8618L84.1153 35.8514L82.8226 32.6103C82.1116 30.8277 81.5108 29.3172 81.4877 29.2536L81.4456 29.1378H82.0685H82.6914L83.7227 31.8552Z" fill="#02191B"/>
</svg>
