<svg width="158" height="64" viewBox="0 0 158 64" fill="none" xmlns="http://www.w3.org/2000/svg">
<rect width="158" height="64" rx="4" fill="#F8F9F9"/>
<g clip-path="url(#clip0_634_25717)">
<path d="M44.3492 26.075V30.8438H49.5065V32.5233H44.3492V39.4165H41.4854V24.3705H50.1207V26.075H44.3492Z" fill="#02191B"/>
<path d="M51.2993 39.4101V27.629H54.0503V39.4101H51.2993Z" fill="#02191B"/>
<path d="M63.5313 39.4101V30.9942C63.5313 29.4839 62.1339 28.9137 60.561 28.9137C59.8077 28.9194 59.0604 29.0485 58.3489 29.2959V39.4101H55.6167V28.1742C57.2505 27.5887 58.9759 27.3001 60.7114 27.322C64.0577 27.322 66.2886 28.3685 66.2886 30.9503V39.4101H63.5313Z" fill="#02191B"/>
<path d="M70.1171 34.4282C70.3803 36.7656 71.784 37.9437 74.1403 37.9437C75.3768 37.9637 76.6045 37.7335 77.7498 37.2669L78.4078 38.8649C76.982 39.4608 75.4471 39.7511 73.9021 39.7171C69.9918 39.7171 67.4727 37.5301 67.4727 33.4882C67.4727 29.5967 69.8163 27.3219 73.3569 27.3219C76.8975 27.3219 78.884 29.3961 78.884 33.3566L70.1171 34.4282ZM73.2504 28.8509C71.3704 28.8509 69.8853 30.2296 69.9542 33.1561L76.2208 32.3477C76.2396 29.9225 75.0614 28.8509 73.2441 28.8509H73.2504Z" fill="#02191B"/>
<path d="M87.8578 39.4101L84.8812 34.9358H84.8373L81.8169 39.4164H78.9092L83.5026 33.2751L79.3917 27.6353H82.3871L85.0755 31.6333H85.1193L87.8954 27.6353H90.5838L86.3852 33.1435L91.0224 39.4101H87.8578Z" fill="#02191B"/>
<path d="M96.4807 39.6734C93.7924 39.6734 92.7646 38.0754 92.7646 36.4774V29.1581H90.9912V27.6291H92.7834V24.9846L95.4969 24.2827V27.6291H98.0035V29.1581H95.4969V36.3521C95.4872 36.5804 95.5271 36.808 95.614 37.0194C95.7008 37.2307 95.8325 37.4207 95.9999 37.5762C96.1673 37.7317 96.3665 37.849 96.5836 37.9201C96.8008 37.9911 97.0308 38.0142 97.2578 37.9877C97.5098 37.983 97.7602 37.9472 98.0035 37.8811V39.429C97.5156 39.6046 96.9991 39.6875 96.4807 39.6734Z" fill="#02191B"/>
<path d="M105.693 29.1768C104.567 28.868 103.373 28.9095 102.271 29.2959V39.4101H99.5518V28.1742C101.283 27.5298 103.127 27.2399 104.972 27.3219C105.436 27.3219 106 27.3658 106.288 27.3846L105.693 29.1768Z" fill="#02191B"/>
<path d="M111.571 39.7171C107.811 39.7171 106.043 38.3385 106.043 36.0888C106.043 32.9179 109.647 32.0657 113.933 31.7022V31.038C113.933 29.4212 112.73 28.9387 110.981 28.9387C109.791 28.951 108.612 29.1803 107.504 29.6155L106.877 28.1741C108.35 27.6135 109.913 27.3248 111.489 27.3219C114.334 27.3219 116.502 28.3935 116.502 31.4077V38.8649C114.933 39.4802 113.255 39.7701 111.571 39.7171ZM113.933 32.8929C110.762 33.1999 108.644 33.7451 108.644 36.0261C108.644 37.6241 109.897 38.3009 111.777 38.3009C112.511 38.3159 113.24 38.1816 113.921 37.9061L113.933 32.8929Z" fill="#02191B"/>
<path d="M51.2993 26.0625V24.3705H54.0503V26.0625H51.2993Z" fill="#02191B"/>
</g>
<defs>
<clipPath id="clip0_634_25717">
<rect width="75.0294" height="15.4345" fill="white" transform="translate(41.4854 24.2827)"/>
</clipPath>
</defs>
</svg>
