<svg width="106" height="22" viewBox="0 0 106 22" fill="none" xmlns="http://www.w3.org/2000/svg">
<path d="M4.61685 2.72692V9.38567H11.8181V11.7307H4.61685V21.3557H0.618103V0.346924H12.6756V2.72692H4.61685Z" fill="#02191B"/>
<path d="M14.3212 21.3468V4.89685H18.1625V21.3468H14.3212Z" fill="#02191B"/>
<path d="M31.4008 21.3469V9.59567C31.4008 7.48692 29.4495 6.69067 27.2533 6.69067C26.2015 6.69862 25.1581 6.87892 24.1645 7.22442V21.3469H20.3495V5.65817C22.6309 4.8406 25.0401 4.43759 27.4633 4.46817C32.1358 4.46817 35.2508 5.92942 35.2508 9.53442V21.3469H31.4008Z" fill="#02191B"/>
<path d="M40.5966 14.3906C40.9641 17.6544 42.9241 19.2994 46.2141 19.2994C47.9406 19.3273 49.655 19.0059 51.2541 18.3544L52.1729 20.5856C50.182 21.4177 48.0388 21.8231 45.8816 21.7756C40.4216 21.7756 36.9041 18.7219 36.9041 13.0781C36.9041 7.64439 40.1766 4.46814 45.1204 4.46814C50.0641 4.46814 52.8379 7.36439 52.8379 12.8944L40.5966 14.3906ZM44.9716 6.60314C42.3466 6.60314 40.2729 8.52814 40.3691 12.6144L49.1191 11.4856C49.1454 8.09939 47.5004 6.60314 44.9629 6.60314H44.9716Z" fill="#02191B"/>
<path d="M65.3679 21.3469L61.2116 15.0994H61.1504L56.9329 21.3556H52.8729L59.2866 12.7806L53.5466 4.90564H57.7291L61.4829 10.4881H61.5441L65.4204 4.90564H69.1741L63.3116 12.5969L69.7866 21.3469H65.3679Z" fill="#02191B"/>
<path d="M77.4081 21.7144C73.6544 21.7144 72.2194 19.4831 72.2194 17.2519V7.03187H69.7431V4.89687H72.2456V1.20437L76.0344 0.224365V4.89687H79.5344V7.03187H76.0344V17.0769C76.0208 17.3956 76.0766 17.7135 76.1979 18.0086C76.3191 18.3037 76.503 18.569 76.7367 18.7861C76.9705 19.0032 77.2486 19.167 77.5518 19.2662C77.8551 19.3654 78.1762 19.3976 78.4931 19.3606C78.845 19.3541 79.1947 19.3042 79.5344 19.2119V21.3731C78.8531 21.6184 78.1319 21.7341 77.4081 21.7144Z" fill="#02191B"/>
<path d="M90.2712 7.05819C88.6988 6.62691 87.0323 6.6849 85.4937 7.22444V21.3469H81.6962V5.65819C84.1139 4.75838 86.6878 4.3537 89.265 4.46819C89.9125 4.46819 90.7 4.52944 91.1025 4.55569L90.2712 7.05819Z" fill="#02191B"/>
<path d="M98.4782 21.7756C93.2282 21.7756 90.7607 19.8506 90.7607 16.7094C90.7607 12.2819 95.7919 11.0919 101.777 10.5844V9.65689C101.777 7.39939 100.097 6.72564 97.6557 6.72564C95.9929 6.7428 94.3473 7.06304 92.7994 7.67064L91.9244 5.65814C93.9815 4.87533 96.1635 4.47214 98.3644 4.46814C102.337 4.46814 105.364 5.96439 105.364 10.1731V20.5856C103.173 21.4448 100.831 21.8496 98.4782 21.7756ZM101.777 12.2469C97.3494 12.6756 94.3919 13.4369 94.3919 16.6219C94.3919 18.8531 96.1419 19.7981 98.7669 19.7981C99.7915 19.8191 100.81 19.6316 101.759 19.2469L101.777 12.2469Z" fill="#02191B"/>
<path d="M14.3212 2.70942V0.346924H18.1625V2.70942H14.3212Z" fill="#02191B"/>
</svg>
