<svg width="26" height="26" viewBox="0 0 26 26" fill="none" xmlns="http://www.w3.org/2000/svg">
<path d="M0 4C0 1.79086 1.79086 0 4 0H22C24.2091 0 26 1.79086 26 4V26H4C1.79086 26 0 24.2091 0 22V4Z" fill="white"/>
<g clip-path="url(#clip0_539_3528)">
<path d="M22 22H18V15.25C18 14.1914 16.8121 13.3058 15.7535 13.3058C14.6949 13.3058 14 14.1914 14 15.25V22H10V10H14V12C14.6623 10.9286 16.3564 10.2373 17.525 10.2373C19.9965 10.2373 22 12.2786 22 14.75V22ZM8 22H4V10H8V22ZM6.00001 4C7.10458 4 8.00001 4.89543 8.00001 6C8.00001 7.10457 7.10458 8 6.00001 8C4.89544 8 4.00001 7.10457 4.00001 6C4.00001 4.89543 4.89544 4 6.00001 4Z" fill="#068576"/>
</g>
<defs>
<clipPath id="clip0_539_3528">
<rect width="18" height="18" fill="white" transform="translate(4 4)"/>
</clipPath>
</defs>
</svg>
