<svg width="80" height="80" viewBox="0 0 80 80" fill="none" xmlns="http://www.w3.org/2000/svg">
<path d="M72 39.8648C72.0007 35.0889 70.9323 30.3734 68.8731 26.0642C66.8141 21.755 63.8166 17.9614 60.1005 14.9615C56.3843 11.9616 52.0439 9.83151 47.3974 8.72751C42.7509 7.62344 37.9162 7.57347 33.2478 8.58119C28.5795 9.58895 24.1959 11.6289 20.4186 14.5513C16.6412 17.4737 13.5659 21.2046 11.4183 25.4704C9.27059 29.7361 8.10491 34.4285 8.00675 39.2033C7.90867 43.9781 8.88059 48.7145 10.8512 53.0648H69.1488C71.0311 48.9189 72.0033 44.4179 72 39.8648Z" fill="#E6F0ED"/>
<path d="M10.8516 53.0648C13.3897 58.6679 17.489 63.4208 22.6587 66.7543C27.8283 70.0879 33.8492 71.8607 40.0004 71.8607C46.1516 71.8607 52.1724 70.0879 57.342 66.7543C62.5117 63.4208 66.611 58.6679 69.1492 53.0648H10.8516Z" fill="white"/>
<path d="M8.7998 53.0648H71.1998" stroke="#2A4547" stroke-linecap="round" stroke-linejoin="round"/>
<path d="M5.2002 53.0648H7.2002" stroke="#2A4547" stroke-linecap="round" stroke-linejoin="round"/>
<path d="M72.7998 53.0648H74.7998" stroke="#2A4547" stroke-linecap="round" stroke-linejoin="round"/>
<path d="M37.5986 20.3336L54.9266 14.5576" stroke="#2A4547" stroke-linecap="round" stroke-linejoin="round"/>
<path d="M63.5908 20.3336L54.9268 14.5576" stroke="#2A4547" stroke-linecap="round" stroke-linejoin="round"/>
<path d="M52.0376 22.2584L51.0752 25.628H57.8144V22.2584H52.0376Z" fill="white"/>
<path d="M66.0002 21.296C66.0002 21.5506 65.8991 21.7948 65.719 21.9748C65.539 22.1549 65.2949 22.256 65.0402 22.256H37.7603C37.5051 22.256 37.2602 22.1546 37.0798 21.9741C36.8993 21.7936 36.7979 21.5488 36.7979 21.2936C36.7979 21.0383 36.8993 20.7935 37.0798 20.613C37.2602 20.4326 37.5051 20.3312 37.7603 20.3312H65.0346C65.1616 20.3305 65.2874 20.3549 65.4049 20.4031C65.5223 20.4514 65.629 20.5223 65.7188 20.6121C65.8086 20.7018 65.8797 20.8085 65.928 20.9258C65.9763 21.0432 66.0009 21.169 66.0002 21.296Z" fill="#22A595"/>
<path d="M66.0002 21.296C66.0002 21.5506 65.8991 21.7948 65.719 21.9748C65.539 22.1549 65.2949 22.256 65.0402 22.256H37.7603C37.5051 22.256 37.2602 22.1546 37.0798 21.9741C36.8993 21.7936 36.7979 21.5488 36.7979 21.2936C36.7979 21.0383 36.8993 20.7935 37.0798 20.613C37.2602 20.4326 37.5051 20.3312 37.7603 20.3312H65.0346C65.1616 20.3305 65.2874 20.3549 65.4049 20.4031C65.5223 20.4514 65.629 20.5223 65.7188 20.6121C65.8086 20.7018 65.8797 20.8085 65.928 20.9258C65.9763 21.0432 66.0009 21.169 66.0002 21.296Z" stroke="#2A4547" stroke-linecap="round" stroke-linejoin="round"/>
<path d="M56.8522 27.5536H53.001V46.3256H56.8522V27.5536Z" fill="white"/>
<path d="M56.8522 27.5536H53.001V46.3256H56.8522V27.5536Z" stroke="#2A4547" stroke-linecap="round" stroke-linejoin="round"/>
<path d="M56.8514 20.3337H53.001L54.441 14.6697C54.4683 14.5608 54.5313 14.4641 54.6199 14.395C54.7084 14.326 54.8175 14.2885 54.9298 14.2885C55.0421 14.2885 55.1511 14.326 55.2397 14.395C55.3283 14.4641 55.3912 14.5608 55.4186 14.6697L56.8514 20.3337Z" fill="white" stroke="#2A4547" stroke-linecap="round" stroke-linejoin="round"/>
<path d="M51.0752 26.7537C51.0752 26.9658 51.1595 27.1693 51.3095 27.3193C51.4595 27.4693 51.663 27.5537 51.8752 27.5537H57.0144C57.2266 27.5537 57.4301 27.4693 57.5801 27.3193C57.7301 27.1693 57.8144 26.9658 57.8144 26.7537V25.6281H51.0752V26.7537Z" fill="#22A595" stroke="#2A4547" stroke-linecap="round" stroke-linejoin="round"/>
<path d="M52.0376 22.2584L51.0752 25.628H57.8144V22.2584H52.0376Z" stroke="#2A4547" stroke-linecap="round" stroke-linejoin="round"/>
<path d="M44.3359 23.384C44.3359 23.5962 44.2516 23.7997 44.1016 23.9497C43.9516 24.0997 43.7481 24.184 43.5359 24.184H41.2863C41.0742 24.184 40.8706 24.0997 40.7206 23.9497C40.5706 23.7997 40.4863 23.5962 40.4863 23.384V22.2584H44.3359V23.384Z" fill="white" stroke="#2A4547" stroke-linecap="round" stroke-linejoin="round"/>
<path d="M42.4111 24.184V38.1432C42.4111 38.3984 42.5126 38.6432 42.6931 38.8236C42.8735 39.0042 43.1183 39.1056 43.3735 39.1056C43.6288 39.1056 43.8736 39.0042 44.0541 38.8236C44.2346 38.6432 44.3359 38.3984 44.3359 38.1432V37.6632" stroke="#2A4547" stroke-linecap="round" stroke-linejoin="round"/>
<path d="M43.3741 35.736C43.3741 35.9258 43.3178 36.1114 43.2123 36.2694C43.1068 36.4272 42.9569 36.5502 42.7814 36.623C42.606 36.6956 42.413 36.7146 42.2268 36.6775C42.0406 36.6405 41.8695 36.5491 41.7353 36.4148C41.601 36.2806 41.5096 36.1095 41.4726 35.9233C41.4355 35.737 41.4545 35.5441 41.5271 35.3686C41.5998 35.1932 41.7229 35.0433 41.8807 34.9378C42.0386 34.8323 42.2242 34.776 42.4141 34.776C42.6687 34.776 42.9129 34.8771 43.0929 35.0572C43.273 35.2372 43.3741 35.4814 43.3741 35.736Z" fill="white" stroke="#2A4547" stroke-linecap="round" stroke-linejoin="round"/>
<path d="M53.001 36.6992L56.8514 40.5496" stroke="#2A4547" stroke-linecap="round" stroke-linejoin="round"/>
<path d="M56.8514 36.6992L53.001 40.5496" stroke="#2A4547" stroke-linecap="round" stroke-linejoin="round"/>
<path d="M53.001 41.0312L56.8514 44.8817" stroke="#2A4547" stroke-linecap="round" stroke-linejoin="round"/>
<path d="M56.8514 41.0312L53.001 44.8817" stroke="#2A4547" stroke-linecap="round" stroke-linejoin="round"/>
<path d="M53.001 32.3672L56.8514 36.2176" stroke="#2A4547" stroke-linecap="round" stroke-linejoin="round"/>
<path d="M56.8514 32.3672L53.001 36.2176" stroke="#2A4547" stroke-linecap="round" stroke-linejoin="round"/>
<path d="M53.001 28.0352L56.8514 31.8856" stroke="#2A4547" stroke-linecap="round" stroke-linejoin="round"/>
<path d="M56.8514 28.0352L53.001 31.8856" stroke="#2A4547" stroke-linecap="round" stroke-linejoin="round"/>
<path d="M59.2587 50.1768H50.5947V48.7368C50.5947 47.5879 51.0511 46.486 51.8635 45.6736C52.6759 44.8612 53.7778 44.4048 54.9267 44.4048C56.0757 44.4048 57.1775 44.8612 57.9899 45.6736C58.8023 46.486 59.2587 47.5879 59.2587 48.7368V50.1768Z" fill="#22A595"/>
<path d="M59.2587 50.1768H50.5947V48.7368C50.5947 47.5879 51.0511 46.486 51.8635 45.6736C52.6759 44.8612 53.7778 44.4048 54.9267 44.4048C56.0757 44.4048 57.1775 44.8612 57.9899 45.6736C58.8023 46.486 59.2587 47.5879 59.2587 48.7368V50.1768Z" stroke="#2A4547" stroke-linecap="round" stroke-linejoin="round"/>
<path d="M62.1469 53.0648H47.7061V51.7768C47.7061 51.3524 47.8746 50.9455 48.1747 50.6454C48.4748 50.3453 48.8817 50.1768 49.3061 50.1768H60.5469C60.9712 50.1768 61.3781 50.3453 61.6782 50.6454C61.9783 50.9455 62.1469 51.3524 62.1469 51.7768V53.0648Z" fill="#22A595"/>
<path d="M62.1469 53.0648H47.7061V51.7768C47.7061 51.3524 47.8746 50.9455 48.1747 50.6454C48.4748 50.3453 48.8817 50.1768 49.3061 50.1768H60.5469C60.9712 50.1768 61.3781 50.3453 61.6782 50.6454C61.9783 50.9455 62.1469 51.3524 62.1469 51.7768V53.0648Z" stroke="#2A4547" stroke-linecap="round" stroke-linejoin="round"/>
<path d="M28.2516 27.8696C25.0395 27.8696 21.9588 29.1456 19.6875 31.4168C17.416 33.6881 16.1399 36.7687 16.1396 39.9808V50.0728H20.85V68.9128H26.2324L26.8468 54.7816C26.8584 54.6323 26.894 54.4859 26.9524 54.348C27.3077 54.1142 27.6276 53.8305 27.902 53.5056C28.0152 53.468 28.1327 53.4451 28.2516 53.4376C28.3701 53.445 28.4871 53.4679 28.5996 53.5056C28.875 53.83 29.195 54.1136 29.55 54.348C29.6086 54.4858 29.644 54.6323 29.6548 54.7816L30.27 68.9128H35.6524V50.0728H40.3628V39.9808C40.3626 36.7688 39.0866 33.6884 36.8153 31.4171C34.544 29.1459 31.4636 27.8699 28.2516 27.8696Z" fill="white"/>
<path d="M28.0613 72.3816C34.2371 72.3816 39.2437 71.6304 39.2437 70.704C39.2437 69.7775 34.2371 69.0264 28.0613 69.0264C21.8855 69.0264 16.8789 69.7775 16.8789 70.704C16.8789 71.6304 21.8855 72.3816 28.0613 72.3816Z" fill="#22A595"/>
<path d="M28.2516 27.8696C25.0395 27.8696 21.9588 29.1456 19.6875 31.4168C17.416 33.6881 16.1399 36.7687 16.1396 39.9808V50.0728H20.85V68.9128H26.2324L26.8468 54.7816C26.8584 54.6323 26.894 54.4859 26.9524 54.348C27.3077 54.1142 27.6276 53.8305 27.902 53.5056C28.0152 53.468 28.1327 53.4451 28.2516 53.4376C28.3701 53.445 28.4871 53.4679 28.5996 53.5056C28.875 53.83 29.195 54.1136 29.55 54.348C29.6086 54.4858 29.644 54.6323 29.6548 54.7816L30.27 68.9128H35.6524V50.0728H40.3628V39.9808C40.3626 36.7688 39.0866 33.6884 36.8153 31.4171C34.544 29.1459 31.4636 27.8699 28.2516 27.8696Z" stroke="#2A4547" stroke-linecap="round" stroke-linejoin="round"/>
<path d="M19.9997 67.856C19.8902 68.0248 19.8282 68.22 19.8202 68.4211C19.8122 68.6222 19.8585 68.8217 19.9543 68.9987C20.0501 69.1757 20.1917 69.3235 20.3645 69.4268C20.5372 69.5301 20.7345 69.585 20.9357 69.5856H25.5389C25.7307 69.5852 25.9191 69.5355 26.0862 69.4414C26.2533 69.3473 26.3933 69.2119 26.4931 69.048C26.5928 68.8843 26.6488 68.6976 26.6557 68.506C26.6626 68.3143 26.6202 68.1242 26.5325 67.9536C25.3125 65.5952 21.3965 65.7264 19.9997 67.856Z" fill="#22A595" stroke="#2A4547" stroke-linecap="round" stroke-linejoin="round"/>
<path d="M36.4994 67.856C36.609 68.0249 36.671 68.2202 36.679 68.4213C36.6869 68.6224 36.6405 68.822 36.5447 68.9991C36.4488 69.176 36.307 69.3239 36.1342 69.4271C35.9613 69.5303 35.7639 69.5851 35.5626 69.5856H30.9602C30.7685 69.5852 30.5801 69.5355 30.413 69.4414C30.2459 69.3473 30.1058 69.2119 30.0061 69.048C29.9064 68.8843 29.8504 68.6976 29.8435 68.506C29.8366 68.3143 29.879 68.1242 29.9666 67.9536C31.1882 65.5952 35.105 65.7264 36.4994 67.856Z" fill="#22A595" stroke="#2A4547" stroke-linecap="round" stroke-linejoin="round"/>
<path d="M35.6523 50.0728V38.6344" stroke="#2A4547" stroke-linecap="round" stroke-linejoin="round"/>
<path d="M20.8496 50.0728V38.6344" stroke="#2A4547" stroke-linecap="round" stroke-linejoin="round"/>
<path d="M28.2501 38.6343L33.0397 28.8535C31.5268 28.2041 29.8977 27.8691 28.2513 27.8691C26.6049 27.8691 24.9758 28.2041 23.4629 28.8535L28.2501 38.6343Z" fill="#22A595" stroke="#2A4547" stroke-linecap="round" stroke-linejoin="round"/>
<path d="M23.4834 34.5984L28.2506 38.6344L23.4626 28.8544L20.793 34.5984H23.4834Z" fill="#22A595" stroke="#2A4547" stroke-linecap="round" stroke-linejoin="round"/>
<path d="M33.0164 34.5984L28.25 38.6344L33.038 28.8544L35.7076 34.5984H33.0164Z" fill="#22A595" stroke="#2A4547" stroke-linecap="round" stroke-linejoin="round"/>
<path d="M28.251 53.4376V38.6344" stroke="#2A4547" stroke-linecap="round" stroke-linejoin="round"/>
<path d="M35.6523 52.4272C35.6523 53.0518 35.9005 53.6508 36.3422 54.0925C36.7839 54.5342 37.3829 54.7824 38.0075 54.7824C38.6322 54.7824 39.2312 54.5342 39.6729 54.0925C40.1146 53.6508 40.3627 53.0518 40.3627 52.4272V50.0728H35.6523V52.4272Z" fill="#22A595" stroke="#2A4547" stroke-linecap="round" stroke-linejoin="round"/>
<path d="M20.85 52.4272C20.85 53.0518 20.6019 53.6508 20.1602 54.0925C19.7185 54.5342 19.1195 54.7824 18.4948 54.7824C17.8702 54.7824 17.2712 54.5342 16.8295 54.0925C16.3878 53.6508 16.1396 53.0518 16.1396 52.4272V50.0728H20.85V52.4272Z" fill="#22A595" stroke="#2A4547" stroke-linecap="round" stroke-linejoin="round"/>
<path d="M23.3658 60.6872L21.6298 58.46C21.5783 58.3939 21.5128 58.3402 21.4379 58.3029C21.363 58.2655 21.2807 58.2453 21.197 58.244L15.0218 58.1512C14.9335 58.1499 14.8462 58.1696 14.7669 58.2085C14.6877 58.2474 14.6187 58.3045 14.5658 58.3752L12.8298 60.6896C12.7572 60.7863 12.7179 60.9039 12.7178 61.0248V65.1048C12.7178 65.4018 12.8358 65.6867 13.0459 65.8967C13.2559 66.1068 13.5407 66.2248 13.8378 66.2248H22.365C22.662 66.2248 22.9469 66.1068 23.157 65.8967C23.367 65.6867 23.485 65.4018 23.485 65.1048V61.0304C23.4845 60.9059 23.4426 60.7852 23.3658 60.6872Z" fill="#22A595"/>
<path d="M23.3658 60.6872L21.6298 58.46C21.5783 58.3939 21.5128 58.3402 21.4379 58.3029C21.363 58.2655 21.2807 58.2453 21.197 58.244L15.0218 58.1512C14.9335 58.1499 14.8462 58.1696 14.7669 58.2085C14.6877 58.2474 14.6187 58.3045 14.5658 58.3752L12.8298 60.6896C12.7572 60.7863 12.7179 60.9039 12.7178 61.0248V65.1048C12.7178 65.4018 12.8358 65.6867 13.0459 65.8967C13.2559 66.1068 13.5407 66.2248 13.8378 66.2248H22.365C22.662 66.2248 22.9469 66.1068 23.157 65.8967C23.367 65.6867 23.485 65.4018 23.485 65.1048V61.0304C23.4845 60.9059 23.4426 60.7852 23.3658 60.6872Z" stroke="#2A4547" stroke-linecap="round" stroke-linejoin="round"/>
<path d="M16.0771 60.8584L17.4787 54.5536" stroke="#2A4547" stroke-linecap="round" stroke-linejoin="round"/>
<path d="M20.1367 60.9192L18.7695 54.7664" stroke="#2A4547" stroke-linecap="round" stroke-linejoin="round"/>
<path d="M31.4398 28.2864C31.2521 28.2362 31.0863 28.1254 30.9682 27.9711C30.8501 27.8169 30.7865 27.6278 30.787 27.4336L30.791 22.7832H25.7934V27.432C25.7937 27.626 25.7297 27.8146 25.6117 27.9686C25.4937 28.1225 25.3281 28.2331 25.1406 28.2832C24.5803 28.4335 24.0317 28.6244 23.499 28.8544C23.9229 29.7673 24.5989 30.5399 25.4474 31.0814C26.2958 31.6228 27.2813 31.9105 28.2878 31.9105C29.2943 31.9105 30.2798 31.6228 31.1282 31.0814C31.9767 30.5399 32.6527 29.7673 33.0766 28.8544C32.5455 28.6258 31.9985 28.4359 31.4398 28.2864Z" fill="white" stroke="#2A4547" stroke-linecap="round" stroke-linejoin="round"/>
<path d="M36.1122 19.9201C36.1095 19.6014 35.9964 19.2936 35.7922 19.0489C35.588 18.8043 35.3053 18.6381 34.9922 18.5785V17.6801C34.9922 15.9005 34.2854 14.194 33.027 12.9357C31.7687 11.6773 30.0622 10.9705 28.2826 10.9705C26.5031 10.9705 24.7966 11.6773 23.5382 12.9357C22.2799 14.194 21.573 15.9005 21.573 17.6801V18.5753C21.247 18.6365 20.9543 18.8138 20.7492 19.0745C20.5441 19.3353 20.4406 19.6616 20.4579 19.9928C20.4752 20.3241 20.6122 20.6377 20.8433 20.8757C21.0744 21.1136 21.384 21.2596 21.7146 21.2865C22.0293 22.7957 22.8541 24.1506 24.0503 25.1233C25.2466 26.0958 26.7413 26.6268 28.283 26.6268C29.8248 26.6268 31.3195 26.0958 32.5158 25.1233C33.712 24.1506 34.5368 22.7957 34.8514 21.2865C35.1938 21.2559 35.5124 21.099 35.7454 20.8465C35.9785 20.5939 36.1092 20.2637 36.1122 19.9201Z" fill="white" stroke="#2A4547" stroke-linecap="round" stroke-linejoin="round"/>
<path d="M25.7681 19.36C26.2311 19.36 26.6065 18.9847 26.6065 18.5216C26.6065 18.0586 26.2311 17.6832 25.7681 17.6832C25.305 17.6832 24.9297 18.0586 24.9297 18.5216C24.9297 18.9847 25.305 19.36 25.7681 19.36Z" fill="#2A4547"/>
<path d="M30.8003 19.36C31.2634 19.36 31.6387 18.9847 31.6387 18.5216C31.6387 18.0586 31.2634 17.6832 30.8003 17.6832C30.3373 17.6832 29.9619 18.0586 29.9619 18.5216C29.9619 18.9847 30.3373 19.36 30.8003 19.36Z" fill="#2A4547"/>
<path d="M24.6499 21.5968C25.113 21.5968 25.4883 21.2215 25.4883 20.7584C25.4883 20.2954 25.113 19.92 24.6499 19.92C24.1869 19.92 23.8115 20.2954 23.8115 20.7584C23.8115 21.2215 24.1869 21.5968 24.6499 21.5968Z" fill="#22A595"/>
<path d="M31.9185 21.5968C32.3815 21.5968 32.7569 21.2215 32.7569 20.7584C32.7569 20.2954 32.3815 19.92 31.9185 19.92C31.4554 19.92 31.0801 20.2954 31.0801 20.7584C31.0801 21.2215 31.4554 21.5968 31.9185 21.5968Z" fill="#22A595"/>
<path d="M26.6064 22.7664C27.1032 23.0977 27.6869 23.2745 28.284 23.2745C28.8812 23.2745 29.4649 23.0977 29.9616 22.7664" stroke="#2A4547" stroke-linecap="round" stroke-linejoin="round"/>
<path d="M19.8965 16.5648H36.6709" stroke="#2A4547" stroke-linecap="round" stroke-linejoin="round"/>
<path d="M35.5532 15.4464C35.5532 13.5186 34.7874 11.6698 33.4243 10.3066C32.0611 8.94345 30.2123 8.17761 28.2844 8.17761C26.3566 8.17761 24.5078 8.94345 23.1446 10.3066C21.7815 11.6698 21.0156 13.5186 21.0156 15.4464V16.5664H35.5532V15.4464Z" fill="#22A595"/>
<path d="M35.5532 15.4464C35.5532 13.5186 34.7874 11.6698 33.4243 10.3066C32.0611 8.94345 30.2123 8.17761 28.2844 8.17761C26.3566 8.17761 24.5078 8.94345 23.1446 10.3066C21.7815 11.6698 21.0156 13.5186 21.0156 15.4464V16.5664H35.5532V15.4464Z" stroke="#2A4547" stroke-linecap="round" stroke-linejoin="round"/>
<path d="M29.9618 16.5648H26.6066L25.6074 9.06956C25.5685 8.80404 25.6275 8.53348 25.7734 8.30828C25.9192 8.08308 26.142 7.91864 26.4002 7.84556C27.64 7.54236 28.9347 7.54236 30.1746 7.84556C30.4322 7.91928 30.6542 8.08404 30.7995 8.30916C30.9447 8.53428 31.0032 8.80452 30.9642 9.06956L29.9618 16.5648Z" fill="#22A595"/>
<path d="M29.9618 16.5648H26.6066L25.6074 9.06956C25.5685 8.80404 25.6275 8.53348 25.7734 8.30828C25.9192 8.08308 26.142 7.91864 26.4002 7.84556C27.64 7.54236 28.9347 7.54236 30.1746 7.84556C30.4322 7.91928 30.6542 8.08404 30.7995 8.30916C30.9447 8.53428 31.0032 8.80452 30.9642 9.06956L29.9618 16.5648Z" stroke="#2A4547" stroke-linecap="round" stroke-linejoin="round"/>
<path d="M33.3432 10.2272L32.7568 14.328" stroke="#2A4547" stroke-linecap="round" stroke-linejoin="round"/>
<path d="M23.2246 10.2272L23.811 14.328" stroke="#2A4547" stroke-linecap="round" stroke-linejoin="round"/>
</svg>
