<svg viewBox="0.25 0.25 99.5 99.5" xmlns="http://www.w3.org/2000/svg" stroke-width="0.5"><path d="M86.449,71.384a40,40,0,1,0-72.9,0Z" fill="#e6f0ed"></path><path d="M11 71.384L89 71.384" fill="none" stroke="#2a4547" stroke-linecap="round" stroke-linejoin="round"></path><path d="M6.5 71.384L9 71.384" fill="none" stroke="#2a4547" stroke-linecap="round" stroke-linejoin="round"></path><path d="M91 71.384L93.5 71.384" fill="none" stroke="#2a4547" stroke-linecap="round" stroke-linejoin="round"></path><path d="M17.606 82.624 A33.484 2.628 0 1 0 84.574 82.624 A33.484 2.628 0 1 0 17.606 82.624 Z" fill="#22a595"></path><path d="M22.871,80.034a1.16,1.16,0,0,0,1.158,1.157h31.26V11.819a1.161,1.161,0,0,0-1.158-1.157h-30.1a1.161,1.161,0,0,0-1.158,1.157Z" fill="#22a595"></path><path d="M22.871,80.034a1.16,1.16,0,0,0,1.158,1.157h31.26V11.819a1.161,1.161,0,0,0-1.158-1.157h-30.1a1.161,1.161,0,0,0-1.158,1.157Z" fill="none" stroke="#2a4547" stroke-linecap="round" stroke-linejoin="round"></path><path d="M55.289,81.191h21.8a1.16,1.16,0,0,0,1.158-1.157V30.955A1.161,1.161,0,0,0,77.086,29.8h-21.8Z" fill="#ffffff"></path><path d="M55.289,81.191h21.8a1.16,1.16,0,0,0,1.158-1.157V30.955A1.161,1.161,0,0,0,77.086,29.8h-21.8Z" fill="none" stroke="#2a4547" stroke-linecap="round" stroke-linejoin="round"></path><path d="M60.5,20.73h2.507a.762.762,0,0,1,.762.761V29.8h-4.03V21.491A.761.761,0,0,1,60.5,20.73Z" fill="#22a595" stroke="#2a4547" stroke-linecap="round" stroke-linejoin="round"></path><path d="M26.656,4.616h2.506a.762.762,0,0,1,.762.762v5.284h-4.03V5.378A.762.762,0,0,1,26.656,4.616Z" fill="#22a595" stroke="#2a4547" stroke-linecap="round" stroke-linejoin="round"></path><path d="M64.138 39.881H72.19900000000001V70.108H64.138z" fill="#22a595" stroke="#2a4547" stroke-linecap="round" stroke-linejoin="round"></path><path d="M55.289,39.881H80.505a.762.762,0,0,0,.761-.762V36.613a.762.762,0,0,0-.761-.762H55.289Z" fill="#22a595" stroke="#2a4547" stroke-linecap="round" stroke-linejoin="round"></path><path d="M55.289,49.957H80.505a.762.762,0,0,0,.761-.762V46.688a.761.761,0,0,0-.761-.761H55.289Z" fill="#22a595" stroke="#2a4547" stroke-linecap="round" stroke-linejoin="round"></path><path d="M55.289,60.033H80.505a.762.762,0,0,0,.761-.762V56.764A.762.762,0,0,0,80.505,56H55.289Z" fill="#22a595" stroke="#2a4547" stroke-linecap="round" stroke-linejoin="round"></path><path d="M55.289,70.108H80.505a.762.762,0,0,0,.761-.762V66.84a.762.762,0,0,0-.761-.762H55.289Z" fill="#22a595" stroke="#2a4547" stroke-linecap="round" stroke-linejoin="round"></path><path d="M55.289,81.191H74.213V75.982a1.161,1.161,0,0,0-1.157-1.157H55.289Z" fill="#22a595" stroke="#2a4547" stroke-linecap="round" stroke-linejoin="round"></path><path d="M30.975 10.662L30.975 81.191" fill="none" stroke="#2a4547" stroke-linecap="round" stroke-linejoin="round"></path><path d="M39.08 10.662L39.08 81.191" fill="none" stroke="#2a4547" stroke-linecap="round" stroke-linejoin="round"></path><path d="M47.184 10.662L47.184 81.191" fill="none" stroke="#2a4547" stroke-linecap="round" stroke-linejoin="round"></path><path d="M22.871 20.606L55.289 20.606" fill="none" stroke="#2a4547" stroke-linecap="round" stroke-linejoin="round"></path><path d="M22.871 30.55L55.289 30.55" fill="none" stroke="#2a4547" stroke-linecap="round" stroke-linejoin="round"></path><path d="M22.871 40.494L55.289 40.494" fill="none" stroke="#2a4547" stroke-linecap="round" stroke-linejoin="round"></path><path d="M22.871 50.439L55.289 50.439" fill="none" stroke="#2a4547" stroke-linecap="round" stroke-linejoin="round"></path><path d="M22.871 60.383L55.289 60.383" fill="none" stroke="#2a4547" stroke-linecap="round" stroke-linejoin="round"></path><path d="M22.871 70.327L55.289 70.327" fill="none" stroke="#2a4547" stroke-linecap="round" stroke-linejoin="round"></path><path d="M90.689,71.931a3.176,3.176,0,0,0-.346-5.338,2.118,2.118,0,1,0-3.071,0,3.176,3.176,0,0,0-.346,5.338,4.235,4.235,0,1,0,3.763,0Z" fill="#ffffff" stroke="#2a4547" stroke-linecap="round" stroke-linejoin="round"></path><path d="M88.808 79.996L88.808 85.252" fill="none" stroke="#2a4547" stroke-linecap="round" stroke-linejoin="round"></path><path d="M16.905,64.344a3.175,3.175,0,0,0-.345-5.338,2.117,2.117,0,1,0-3.072,0,3.175,3.175,0,0,0-.345,5.338,4.234,4.234,0,1,0,3.762,0Z" fill="#ffffff" stroke="#2a4547" stroke-linecap="round" stroke-linejoin="round"></path><path d="M15.024 72.41L15.024 77.665" fill="none" stroke="#2a4547" stroke-linecap="round" stroke-linejoin="round"></path><path d="M42.533,73.256a4.22,4.22,0,0,0-.459-7.095,2.815,2.815,0,1,0-4.083,0,4.221,4.221,0,0,0-.459,7.095,5.629,5.629,0,1,0,5,0Z" fill="#ffffff" stroke="#2a4547" stroke-linecap="round" stroke-linejoin="round"></path><path d="M40.033 83.976L40.033 90.961" fill="none" stroke="#2a4547" stroke-linecap="round" stroke-linejoin="round"></path></svg>