<svg width="80" height="80" viewBox="0 0 80 80" fill="none" xmlns="http://www.w3.org/2000/svg">
<path d="M69.3062 57.1932C71.5201 52.2949 72.4709 46.9198 72.0717 41.5592C71.6725 36.1987 69.936 31.0237 67.021 26.5073C64.106 21.991 60.1055 18.2773 55.3851 15.7057C50.6647 13.1342 45.3751 11.7869 39.9997 11.7869C34.6243 11.7869 29.3346 13.1342 24.6143 15.7057C19.8939 18.2773 15.8933 21.991 12.9783 26.5073C10.0634 31.0237 8.32689 36.1987 7.92769 41.5592C7.52848 46.9198 8.47927 52.2949 10.6931 57.1932H69.3062Z" fill="#E6F0ED"/>
<path d="M8.64355 57.1931H71.3571" stroke="#2A4547" stroke-width="0.5" stroke-linecap="round" stroke-linejoin="round"/>
<path d="M5.02539 57.1931H7.03544" stroke="#2A4547" stroke-width="0.5" stroke-linecap="round" stroke-linejoin="round"/>
<path d="M72.9648 57.1931H74.9749" stroke="#2A4547" stroke-width="0.5" stroke-linecap="round" stroke-linejoin="round"/>
<path d="M13.9541 66.2304C13.9541 66.5079 14.6505 66.7826 16.0034 67.039C17.3563 67.2953 19.3394 67.5283 21.8393 67.7245C24.3392 67.9207 27.3071 68.0763 30.5734 68.1825C33.8397 68.2887 37.3405 68.3434 40.8759 68.3434C44.4113 68.3434 47.9121 68.2887 51.1784 68.1825C54.4447 68.0763 57.4126 67.9207 59.9125 67.7245C62.4124 67.5283 64.3955 67.2953 65.7484 67.039C67.1014 66.7826 67.7977 66.5079 67.7977 66.2304C67.7977 65.9529 67.1014 65.6782 65.7484 65.4218C64.3955 65.1654 62.4124 64.9325 59.9125 64.7363C57.4126 64.5401 54.4447 64.3845 51.1784 64.2783C47.9121 64.1721 44.4113 64.1174 40.8759 64.1174C37.3405 64.1174 33.8397 64.1721 30.5734 64.2783C27.3071 64.3845 24.3392 64.5401 21.8393 64.7363C19.3394 64.9325 17.3563 65.1654 16.0034 65.4218C14.6505 65.6782 13.9541 65.9529 13.9541 66.2304Z" fill="#22A595"/>
<path d="M18.1875 64.1479C18.1881 64.3946 18.2865 64.631 18.461 64.8053C18.6354 64.9796 18.8719 65.0778 19.1186 65.0782H44.2522V9.30171C44.2514 9.05512 44.153 8.81887 43.9785 8.64458C43.8041 8.47028 43.5678 8.3721 43.3212 8.37146H19.1202C18.8736 8.3721 18.6372 8.47028 18.4628 8.64458C18.2883 8.81887 18.19 9.05512 18.1891 9.30171L18.1875 64.1479Z" fill="#22A595"/>
<path d="M18.1875 64.1479C18.1881 64.3946 18.2865 64.631 18.461 64.8053C18.6354 64.9796 18.8719 65.0778 19.1186 65.0782H44.2522V9.30171C44.2514 9.05512 44.153 8.81887 43.9785 8.64458C43.8041 8.47028 43.5678 8.3721 43.3212 8.37146H19.1202C18.8736 8.3721 18.6372 8.47028 18.4628 8.64458C18.2883 8.81887 18.19 9.05512 18.1891 9.30171L18.1875 64.1479Z" stroke="#2A4547" stroke-width="0.5" stroke-linecap="round" stroke-linejoin="round"/>
<path d="M44.2524 65.0782H61.78C62.0267 65.0778 62.2632 64.9796 62.4377 64.8053C62.6121 64.631 62.7105 64.3946 62.7111 64.1479V24.6874C62.7098 24.4407 62.6109 24.2045 62.436 24.0305C62.2611 23.8565 62.0244 23.7588 61.7776 23.7588H44.25L44.2524 65.0782Z" fill="white"/>
<path d="M44.2524 65.0782H61.78C62.0267 65.0778 62.2632 64.9796 62.4377 64.8053C62.6121 64.631 62.7105 64.3946 62.7111 64.1479V24.6874C62.7098 24.4407 62.6109 24.2045 62.436 24.0305C62.2611 23.8565 62.0244 23.7588 61.7776 23.7588H44.25L44.2524 65.0782Z" stroke="#2A4547" stroke-width="0.5" stroke-linecap="round" stroke-linejoin="round"/>
<path d="M48.4419 16.4663H50.4576C50.62 16.4663 50.7757 16.5307 50.8906 16.6455C51.0054 16.7602 51.0701 16.9158 51.0703 17.0782V23.7588H47.8301V17.0782C47.8301 16.9978 47.8459 16.9183 47.8767 16.844C47.9074 16.7698 47.9525 16.7023 48.0093 16.6455C48.0661 16.5887 48.1336 16.5436 48.2078 16.5129C48.282 16.4821 48.3616 16.4663 48.4419 16.4663Z" fill="#22A595" stroke="#2A4547" stroke-width="0.5" stroke-linecap="round" stroke-linejoin="round"/>
<path d="M21.2308 3.51038H23.2457C23.3262 3.51038 23.4058 3.52622 23.4802 3.55701C23.5545 3.5878 23.622 3.63293 23.6789 3.68982C23.7358 3.74671 23.7809 3.81425 23.8117 3.88858C23.8425 3.96291 23.8584 4.04258 23.8584 4.12304V8.37148H20.6182V4.12304C20.6182 4.04258 20.634 3.96291 20.6648 3.88858C20.6956 3.81425 20.7407 3.74671 20.7976 3.68982C20.8545 3.63293 20.922 3.5878 20.9964 3.55701C21.0707 3.52622 21.1504 3.51038 21.2308 3.51038Z" fill="#22A595" stroke="#2A4547" stroke-width="0.5" stroke-linecap="round" stroke-linejoin="round"/>
<path d="M51.3672 31.8641H57.8484V56.1673H51.3672V31.8641Z" fill="#22A595" stroke="#2A4547" stroke-width="0.5" stroke-linecap="round" stroke-linejoin="round"/>
<path d="M44.2529 31.8641H64.5271C64.6894 31.8639 64.8451 31.7992 64.9598 31.6844C65.0745 31.5695 65.139 31.4138 65.139 31.2514V29.2366C65.139 29.0742 65.0745 28.9185 64.9598 28.8036C64.8451 28.6888 64.6894 28.6241 64.5271 28.6239H44.2529V31.8641Z" fill="#22A595" stroke="#2A4547" stroke-width="0.5" stroke-linecap="round" stroke-linejoin="round"/>
<path d="M44.2529 39.9654H64.5271C64.6894 39.9652 64.8451 39.9006 64.9598 39.7857C65.0745 39.6708 65.139 39.5151 65.139 39.3528V37.3371C65.139 37.2567 65.1231 37.1772 65.0924 37.1029C65.0616 37.0287 65.0166 36.9612 64.9597 36.9044C64.9029 36.8476 64.8355 36.8025 64.7612 36.7718C64.687 36.741 64.6074 36.7252 64.5271 36.7252H44.2529V39.9654Z" fill="#22A595" stroke="#2A4547" stroke-width="0.5" stroke-linecap="round" stroke-linejoin="round"/>
<path d="M44.2529 48.0667H64.5271C64.6894 48.0665 64.8451 48.0019 64.9598 47.887C65.0745 47.7721 65.139 47.6164 65.139 47.454V45.4384C65.1392 45.3578 65.1235 45.2781 65.0929 45.2036C65.0622 45.1291 65.0172 45.0614 64.9604 45.0044C64.9035 44.9473 64.836 44.9021 64.7617 44.8711C64.6873 44.8402 64.6076 44.8242 64.5271 44.8241H44.2529V48.0667Z" fill="#22A595" stroke="#2A4547" stroke-width="0.5" stroke-linecap="round" stroke-linejoin="round"/>
<path d="M44.2529 56.1672H64.5271C64.6894 56.167 64.8451 56.1023 64.9598 55.9875C65.0745 55.8726 65.139 55.7169 65.139 55.5545V53.5397C65.139 53.3773 65.0745 53.2216 64.9598 53.1067C64.8451 52.9919 64.6894 52.9272 64.5271 52.927H44.2529V56.1672Z" fill="#22A595" stroke="#2A4547" stroke-width="0.5" stroke-linecap="round" stroke-linejoin="round"/>
<path d="M44.2529 65.0782H59.4682V60.8901C59.4674 60.6436 59.3691 60.4075 59.1948 60.2332C59.0205 60.059 58.7844 59.9607 58.538 59.9598H44.2529V65.0782Z" fill="#22A595" stroke="#2A4547" stroke-width="0.5" stroke-linecap="round" stroke-linejoin="round"/>
<path d="M24.7031 8.37146V65.0782" stroke="#2A4547" stroke-width="0.5" stroke-linecap="round" stroke-linejoin="round"/>
<path d="M31.2197 8.37146V65.0782" stroke="#2A4547" stroke-width="0.5" stroke-linecap="round" stroke-linejoin="round"/>
<path d="M37.7363 8.37146V65.0782" stroke="#2A4547" stroke-width="0.5" stroke-linecap="round" stroke-linejoin="round"/>
<path d="M18.1875 16.3666H44.2522" stroke="#2A4547" stroke-width="0.5" stroke-linecap="round" stroke-linejoin="round"/>
<path d="M18.1875 24.3618H44.2522" stroke="#2A4547" stroke-width="0.5" stroke-linecap="round" stroke-linejoin="round"/>
<path d="M18.1875 32.3569H44.2522" stroke="#2A4547" stroke-width="0.5" stroke-linecap="round" stroke-linejoin="round"/>
<path d="M18.1875 40.353H44.2522" stroke="#2A4547" stroke-width="0.5" stroke-linecap="round" stroke-linejoin="round"/>
<path d="M18.1875 48.3481H44.2522" stroke="#2A4547" stroke-width="0.5" stroke-linecap="round" stroke-linejoin="round"/>
<path d="M18.1875 56.3433H44.2522" stroke="#2A4547" stroke-width="0.5" stroke-linecap="round" stroke-linejoin="round"/>
<path d="M72.7147 57.633C73.0597 57.3792 73.3353 57.0426 73.5162 56.6543C73.697 56.266 73.7773 55.8385 73.7496 55.411C73.7219 54.9835 73.5871 54.5699 73.3576 54.2082C73.1282 53.8465 72.8114 53.5484 72.4365 53.3412C72.6659 53.0997 72.8195 52.7962 72.8782 52.4683C72.9369 52.1405 72.8981 51.8026 72.7667 51.4965C72.6353 51.1904 72.417 50.9296 72.1389 50.7463C71.8608 50.563 71.535 50.4653 71.2019 50.4653C70.8688 50.4653 70.543 50.563 70.2649 50.7463C69.9868 50.9296 69.7685 51.1904 69.6371 51.4965C69.5057 51.8026 69.4669 52.1405 69.5256 52.4683C69.5843 52.7962 69.7379 53.0997 69.9673 53.3412C69.5924 53.5484 69.2756 53.8465 69.0462 54.2082C68.8167 54.5699 68.6819 54.9835 68.6542 55.411C68.6265 55.8385 68.7068 56.266 68.8876 56.6543C69.0685 57.0426 69.3441 57.3792 69.6891 57.633C69.0011 57.9742 68.4486 58.538 68.1214 59.2328C67.7942 59.9277 67.7115 60.7127 67.8867 61.4604C68.0619 62.2082 68.4848 62.8747 69.0866 63.3518C69.6884 63.829 70.4339 64.0886 71.2019 64.0886C71.9699 64.0886 72.7154 63.829 73.3172 63.3518C73.919 62.8747 74.3419 62.2082 74.5171 61.4604C74.6923 60.7127 74.6096 59.9277 74.2824 59.2328C73.9552 58.538 73.4027 57.9742 72.7147 57.633Z" fill="white" stroke="#2A4547" stroke-width="0.5" stroke-linecap="round" stroke-linejoin="round"/>
<path d="M71.2021 64.1174V68.3434" stroke="#2A4547" stroke-width="0.5" stroke-linecap="round" stroke-linejoin="round"/>
<path d="M13.3912 51.5329C13.7364 51.2792 14.0123 50.9427 14.1934 50.5544C14.3744 50.1661 14.4548 49.7385 14.4272 49.311C14.3996 48.8835 14.2648 48.4698 14.0352 48.108C13.8057 47.7463 13.4888 47.4481 13.1138 47.241C13.3428 46.9995 13.4961 46.6962 13.5545 46.3686C13.6129 46.0409 13.574 45.7033 13.4426 45.3976C13.3112 45.0918 13.093 44.8313 12.8151 44.6482C12.5372 44.4651 12.2116 44.3676 11.8788 44.3676C11.546 44.3676 11.2205 44.4651 10.9426 44.6482C10.6646 44.8313 10.4465 45.0918 10.315 45.3976C10.1836 45.7033 10.1447 46.0409 10.2032 46.3686C10.2616 46.6962 10.4148 46.9995 10.6439 47.241C10.2688 47.4481 9.95195 47.7463 9.72242 48.108C9.4929 48.4698 9.35811 48.8835 9.33048 49.311C9.30285 49.7385 9.38326 50.1661 9.56431 50.5544C9.74536 50.9427 10.0212 51.2792 10.3665 51.5329C9.67857 51.874 9.1262 52.4376 8.79906 53.1323C8.47191 53.8269 8.38921 54.6118 8.56439 55.3594C8.73957 56.1069 9.16234 56.7733 9.76403 57.2503C10.3657 57.7273 11.111 57.9869 11.8788 57.9869C12.6467 57.9869 13.3919 57.7273 13.9936 57.2503C14.5953 56.7733 15.0181 56.1069 15.1933 55.3594C15.3685 54.6118 15.2858 53.8269 14.9586 53.1323C14.6315 52.4376 14.0791 51.874 13.3912 51.5329Z" fill="white" stroke="#2A4547" stroke-width="0.5" stroke-linecap="round" stroke-linejoin="round"/>
<path d="M11.8789 58.0181V62.2432" stroke="#2A4547" stroke-width="0.5" stroke-linecap="round" stroke-linejoin="round"/>
<path d="M33.9966 58.6983C34.4555 58.3611 34.8222 57.9139 35.0628 57.3978C35.3034 56.8816 35.4103 56.3133 35.3735 55.745C35.3367 55.1768 35.1575 54.6269 34.8524 54.1461C34.5473 53.6653 34.1261 53.269 33.6276 52.9938C33.9324 52.6728 34.1363 52.2694 34.2142 51.8337C34.2921 51.398 34.2405 50.9489 34.0658 50.5422C33.8911 50.1355 33.601 49.789 33.2314 49.5454C32.8618 49.3019 32.4288 49.1721 31.9862 49.1721C31.5436 49.1721 31.1106 49.3019 30.741 49.5454C30.3714 49.789 30.0813 50.1355 29.9066 50.5422C29.7319 50.9489 29.6803 51.398 29.7582 51.8337C29.8361 52.2694 30.04 52.6728 30.3448 52.9938C29.8465 53.2692 29.4254 53.6655 29.1204 54.1463C28.8154 54.6271 28.6363 55.1769 28.5996 55.7451C28.5628 56.3132 28.6696 56.8815 28.9101 57.3976C29.1506 57.9137 29.517 58.361 29.9757 58.6983C29.0611 59.1517 28.3266 59.901 27.8915 60.8245C27.4565 61.748 27.3464 62.7915 27.5792 63.7855C27.8121 64.7795 28.3741 65.6655 29.1741 66.2997C29.974 66.9339 30.9649 67.2791 31.9858 67.2791C33.0067 67.2791 33.9975 66.9339 34.7975 66.2997C35.5975 65.6655 36.1595 64.7795 36.3923 63.7855C36.6252 62.7915 36.5151 61.748 36.0801 60.8245C35.645 59.901 34.9105 59.1517 33.9958 58.6983H33.9966Z" fill="white" stroke="#2A4547" stroke-width="0.5" stroke-linecap="round" stroke-linejoin="round"/>
<path d="M31.9863 67.3174V72.9335" stroke="#2A4547" stroke-width="0.5" stroke-linecap="round" stroke-linejoin="round"/>
</svg>
