<svg width="80" height="80" viewBox="0 0 80 80" fill="none" xmlns="http://www.w3.org/2000/svg">
<path d="M72 41.6888C72.0006 36.9129 70.9322 32.1974 68.8731 27.8882C66.8141 23.579 63.8166 19.7854 60.1005 16.7855C56.3843 13.7855 52.0439 11.6555 47.3974 10.5514C42.7508 9.44742 37.9161 9.39744 33.2478 10.4052C28.5794 11.4129 24.1959 13.4528 20.4185 16.3753C16.6412 19.2977 13.5659 23.0286 11.4182 27.2943C9.27052 31.5601 8.10487 36.2524 8.00675 41.0273C7.90864 45.8021 8.88055 50.5384 10.8512 54.8888H69.1488C71.0311 50.7429 72.0033 46.2419 72 41.6888Z" fill="#E6F0ED"/>
<path d="M8.7998 54.8888H71.1998" stroke="#2A4547" stroke-linecap="round" stroke-linejoin="round"/>
<path d="M5.2002 54.8888H7.2002" stroke="#2A4547" stroke-linecap="round" stroke-linejoin="round"/>
<path d="M72.7998 54.8888H74.7998" stroke="#2A4547" stroke-linecap="round" stroke-linejoin="round"/>
<path d="M27.5713 54.9992H43.7009V23.6648C43.7009 23.4192 43.6034 23.1837 43.4298 23.01C43.2563 22.8363 43.0208 22.7386 42.7753 22.7384H29.6401C29.0914 22.7384 28.5652 22.9564 28.1772 23.3443C27.7892 23.7323 27.5713 24.2585 27.5713 24.8072V54.9992Z" fill="white"/>
<path d="M27.5713 54.9992H43.7009V23.6648C43.7009 23.4192 43.6034 23.1837 43.4298 23.01C43.2563 22.8363 43.0208 22.7386 42.7753 22.7384H29.6401C29.0914 22.7384 28.5652 22.9564 28.1772 23.3443C27.7892 23.7323 27.5713 24.2585 27.5713 24.8072V54.9992Z" stroke="#2A4547" stroke-linecap="round" stroke-linejoin="round"/>
<path d="M64.3196 13.6928C64.3196 14.5437 64.0673 15.3755 63.5946 16.0831C63.1218 16.7906 62.4499 17.342 61.6637 17.6677C60.8775 17.9933 60.0125 18.0785 59.1779 17.9125C58.3433 17.7465 57.5767 17.3367 56.975 16.735C56.3733 16.1333 55.9635 15.3667 55.7975 14.5321C55.6315 13.6976 55.7167 12.8325 56.0423 12.0463C56.368 11.2602 56.9194 10.5882 57.627 10.1155C58.3345 9.64271 59.1663 9.39038 60.0172 9.39038C61.1583 9.39038 62.2526 9.84367 63.0595 10.6505C63.8664 11.4574 64.3196 12.5517 64.3196 13.6928Z" fill="white"/>
<path d="M64.3196 13.6928C64.3196 14.5437 64.0673 15.3755 63.5946 16.0831C63.1218 16.7906 62.4499 17.342 61.6637 17.6677C60.8775 17.9933 60.0125 18.0785 59.1779 17.9125C58.3433 17.7465 57.5767 17.3367 56.975 16.735C56.3733 16.1333 55.9635 15.3667 55.7975 14.5321C55.6315 13.6976 55.7167 12.8325 56.0423 12.0463C56.368 11.2602 56.9194 10.5882 57.627 10.1155C58.3345 9.64271 59.1663 9.39038 60.0172 9.39038C61.1583 9.39038 62.2526 9.84367 63.0595 10.6505C63.8664 11.4574 64.3196 12.5517 64.3196 13.6928V13.6928Z" stroke="#2A4547" stroke-linecap="round" stroke-linejoin="round"/>
<path d="M60.0156 7.66962V6.37842" stroke="#2A4547" stroke-linecap="round" stroke-linejoin="round"/>
<path d="M64.2754 9.43355L65.1882 8.52075" stroke="#2A4547" stroke-linecap="round" stroke-linejoin="round"/>
<path d="M66.0391 13.6927H67.3303" stroke="#2A4547" stroke-linecap="round" stroke-linejoin="round"/>
<path d="M64.2754 17.9512L65.1882 18.864" stroke="#2A4547" stroke-linecap="round" stroke-linejoin="round"/>
<path d="M60.0156 19.7159V21.0063" stroke="#2A4547" stroke-linecap="round" stroke-linejoin="round"/>
<path d="M55.7567 17.9512L54.8447 18.864" stroke="#2A4547" stroke-linecap="round" stroke-linejoin="round"/>
<path d="M53.9925 13.6927H52.7021" stroke="#2A4547" stroke-linecap="round" stroke-linejoin="round"/>
<path d="M55.7567 9.43355L54.8447 8.52075" stroke="#2A4547" stroke-linecap="round" stroke-linejoin="round"/>
<path d="M23.5388 36.3872C21.4205 36.3872 19.323 36.8044 17.3661 37.6151C15.4091 38.4257 13.6309 39.6139 12.1331 41.1117C10.6354 42.6096 9.44728 44.3878 8.63674 46.3448C7.8262 48.3019 7.40907 50.3994 7.40918 52.5176V54.9976H39.6692V52.5176C39.6692 48.2396 37.9697 44.1367 34.9447 41.1117C31.9197 38.0867 27.8168 36.3872 23.5388 36.3872Z" fill="white"/>
<path d="M23.5388 36.3872C21.4205 36.3872 19.323 36.8044 17.3661 37.6151C15.4091 38.4257 13.6309 39.6139 12.1331 41.1117C10.6354 42.6096 9.44728 44.3878 8.63674 46.3448C7.8262 48.3019 7.40907 50.3994 7.40918 52.5176V54.9976H39.6692V52.5176C39.6692 48.2396 37.9697 44.1367 34.9447 41.1117C31.9197 38.0867 27.8168 36.3872 23.5388 36.3872V36.3872Z" stroke="#2A4547" stroke-linecap="round" stroke-linejoin="round"/>
<path d="M42.0877 25.9648H35.6357" stroke="#2A4547" stroke-linecap="round" stroke-linejoin="round"/>
<path d="M8.81445 45.9208L17.8929 54.9992" stroke="#2A4547" stroke-linecap="round" stroke-linejoin="round"/>
<path d="M12.9346 40.3624L27.5714 54.9992" stroke="#2A4547" stroke-linecap="round" stroke-linejoin="round"/>
<path d="M19.8643 36.808L38.0555 54.9992" stroke="#2A4547" stroke-linecap="round" stroke-linejoin="round"/>
<path d="M25.8556 36.552L7.40918 54.9992" stroke="#2A4547" stroke-linecap="round" stroke-linejoin="round"/>
<path d="M33.2526 39.6392L17.8926 54.9992" stroke="#2A4547" stroke-linecap="round" stroke-linejoin="round"/>
<path d="M28.3564 54.9991L38.0044 45.3503" stroke="#2A4547" stroke-linecap="round" stroke-linejoin="round"/>
<path d="M41.2812 22.7384V17.9" stroke="#2A4547" stroke-linecap="round" stroke-linejoin="round"/>
<path d="M38.0557 22.7384V13.0608" stroke="#2A4547" stroke-linecap="round" stroke-linejoin="round"/>
<path d="M31.4841 31.6104H27.5713V28.384H31.4841C31.7296 28.3842 31.9651 28.4819 32.1386 28.6557C32.3122 28.8294 32.4097 29.0649 32.4097 29.3104V30.684C32.4098 30.8057 32.3859 30.9261 32.3395 31.0385C32.293 31.1509 32.2248 31.253 32.1389 31.3391C32.0529 31.4251 31.9508 31.4933 31.8385 31.5399C31.7261 31.5865 31.6057 31.6104 31.4841 31.6104Z" fill="#22A595"/>
<path d="M31.3342 28.3841H27.5742V31.6105H28.2142L31.4358 28.3889C31.4021 28.3854 31.3681 28.3838 31.3342 28.3841Z" fill="white"/>
<path d="M31.4841 31.6104H27.5713V28.384H31.4841C31.7296 28.3842 31.9651 28.4819 32.1386 28.6557C32.3122 28.8294 32.4097 29.0649 32.4097 29.3104V30.684C32.4098 30.8057 32.3859 30.9261 32.3395 31.0385C32.293 31.1509 32.2248 31.253 32.1389 31.3391C32.0529 31.4251 31.9508 31.4933 31.8385 31.5399C31.7261 31.5865 31.6057 31.6104 31.4841 31.6104Z" stroke="#2A4547" stroke-linecap="round" stroke-linejoin="round"/>
<path d="M35.6357 29.9976H49.3461V54.968H35.6357V29.9976Z" fill="white"/>
<path d="M35.6357 29.9976H49.3461V54.9992H35.6357V29.9976Z" stroke="#2A4547" stroke-linecap="round" stroke-linejoin="round"/>
<path d="M49.3461 30H35.6357L36.5957 28.8C37.3033 27.9159 38.2007 27.2021 39.2214 26.7116C40.2421 26.2211 41.3601 25.9665 42.4925 25.9664C43.6247 25.9667 44.7424 26.2215 45.7628 26.712C46.7832 27.2024 47.6803 27.9161 48.3877 28.8L49.3461 30Z" fill="white" stroke="#2A4547" stroke-linecap="round" stroke-linejoin="round"/>
<path d="M55.9257 46.9336H69.6513C69.8507 46.934 70.046 46.9898 70.2155 47.0948C70.385 47.1997 70.522 47.3497 70.6113 47.528L73.5713 53.4424C73.6531 53.6062 73.6918 53.7883 73.6836 53.9712C73.6754 54.1542 73.6207 54.3321 73.5245 54.488C73.4284 54.6439 73.2941 54.7726 73.1343 54.8621C72.9744 54.9516 72.7944 54.9988 72.6113 54.9992H58.8801C58.6806 54.9988 58.4852 54.9429 58.3156 54.8378C58.1461 54.7327 58.0091 54.5825 57.9201 54.404L54.9601 48.4904C54.878 48.3261 54.8394 48.1436 54.8478 47.9601C54.8563 47.7767 54.9115 47.5985 55.0083 47.4424C55.1051 47.2864 55.2402 47.1577 55.4008 47.0686C55.5613 46.9796 55.742 46.9331 55.9257 46.9336Z" fill="#22A595"/>
<path d="M55.9257 46.9336H69.6513C69.8507 46.934 70.046 46.9898 70.2155 47.0948C70.385 47.1997 70.522 47.3497 70.6113 47.528L73.5713 53.4424C73.6531 53.6062 73.6918 53.7883 73.6836 53.9712C73.6754 54.1542 73.6207 54.3321 73.5245 54.488C73.4284 54.6439 73.2941 54.7726 73.1343 54.8621C72.9744 54.9516 72.7944 54.9988 72.6113 54.9992H58.8801C58.6806 54.9988 58.4852 54.9429 58.3156 54.8378C58.1461 54.7327 58.0091 54.5825 57.9201 54.404L54.9601 48.4904C54.878 48.3261 54.8394 48.1436 54.8478 47.9601C54.8563 47.7767 54.9115 47.5985 55.0083 47.4424C55.1051 47.2864 55.2402 47.1577 55.4008 47.0686C55.5613 46.9796 55.742 46.9331 55.9257 46.9336V46.9336Z" stroke="#2A4547" stroke-linecap="round" stroke-linejoin="round"/>
<path d="M44.85 43.5792L41.2812 54.9992" stroke="#2A4547" stroke-linecap="round" stroke-linejoin="round"/>
<path d="M55.1259 48.8136L52.5731 54.9992L48.8091 48.8136L46.1211 54.9992" stroke="#2A4547" stroke-linecap="round" stroke-linejoin="round"/>
<path d="M43.4531 48.0504L46.4963 54.136" stroke="#2A4547" stroke-linecap="round" stroke-linejoin="round"/>
<path d="M72.3316 50.9664H56.2012" stroke="#2A4547" stroke-linecap="round" stroke-linejoin="round"/>
<path d="M65.4766 46.9336L69.5086 54.9992" stroke="#2A4547" stroke-linecap="round" stroke-linejoin="round"/>
<path d="M59.8311 46.9336L63.8631 54.9992" stroke="#2A4547" stroke-linecap="round" stroke-linejoin="round"/>
<path d="M39.6689 33.2231V42.9015" stroke="#2A4547" stroke-linecap="round" stroke-linejoin="round"/>
<path d="M44.5068 33.2231V36.4495" stroke="#2A4547" stroke-linecap="round" stroke-linejoin="round"/>
<path d="M45.1744 40.748H58.9C59.0994 40.7484 59.2948 40.8041 59.4643 40.9091C59.6339 41.0141 59.7709 41.1641 59.86 41.3424L62.82 47.2568C62.9019 47.4207 62.9405 47.6027 62.9324 47.7857C62.9242 47.9687 62.8694 48.1465 62.7733 48.3024C62.6772 48.4583 62.5428 48.5871 62.383 48.6766C62.2232 48.766 62.0432 48.8132 61.86 48.8136H48.132C47.9327 48.8132 47.7373 48.7574 47.5678 48.6525C47.3983 48.5475 47.2613 48.3975 47.172 48.2192L44.212 42.3048C44.1301 42.1408 44.0914 41.9586 44.0997 41.7754C44.108 41.5922 44.163 41.4142 44.2594 41.2583C44.3558 41.1023 44.4905 40.9736 44.6506 40.8843C44.8108 40.795 44.9911 40.7481 45.1744 40.748Z" fill="#22A595"/>
<path d="M61.5808 44.7808H45.4512" stroke="#2A4547" stroke-linecap="round" stroke-linejoin="round"/>
<path d="M54.7256 40.748L58.7584 48.8136" stroke="#2A4547" stroke-linecap="round" stroke-linejoin="round"/>
<path d="M49.0801 40.748L53.1129 48.8136" stroke="#2A4547" stroke-linecap="round" stroke-linejoin="round"/>
<path d="M45.1744 40.748H58.9C59.0994 40.7484 59.2948 40.8041 59.4643 40.9091C59.6339 41.0141 59.7709 41.1641 59.86 41.3424L62.82 47.2568C62.9019 47.4207 62.9405 47.6027 62.9324 47.7857C62.9242 47.9687 62.8694 48.1465 62.7733 48.3024C62.6772 48.4583 62.5428 48.5871 62.383 48.6766C62.2232 48.766 62.0432 48.8132 61.86 48.8136H48.132C47.9327 48.8132 47.7373 48.7574 47.5678 48.6525C47.3983 48.5475 47.2613 48.3975 47.172 48.2192L44.212 42.3048C44.1301 42.1408 44.0914 41.9586 44.0997 41.7754C44.108 41.5922 44.163 41.4142 44.2594 41.2583C44.3558 41.1023 44.4905 40.9736 44.6506 40.8843C44.8108 40.795 44.9911 40.7481 45.1744 40.748V40.748Z" stroke="#2A4547"/>
</svg>
