<svg width="621" height="537" viewBox="0 0 621 537" fill="none" xmlns="http://www.w3.org/2000/svg">
<g opacity="0.6">
<g clip-path="url(#clip0_388_8384)">
<path d="M191.819 430.203C296.269 513.729 449.799 505.826 543.251 409.893C505.496 445.026 442.894 470.713 408.795 441.963C347.352 390.159 332.258 463.094 293.235 460.213C254.212 457.332 217.372 409.549 197.544 424.327C195.937 425.524 192.825 428.773 191.819 430.203Z" fill="#F0F7F6"/>
<path d="M193.535 457.161C311.207 571.668 497.667 571.007 610.006 455.686C722.345 340.365 718.022 154.053 600.35 39.546C514.539 -43.9575 392.146 -66.2152 288.593 -27.4237C373.175 -47.7021 466.841 -24.8886 534.695 41.1403C638.967 142.608 642.798 307.704 543.251 409.893C449.799 505.826 296.269 513.729 191.819 430.203C182.485 443.473 189.508 452.989 193.535 457.161Z" fill="#F0F7F6"/>
<path fill-rule="evenodd" clip-rule="evenodd" d="M254.846 434.968C252.689 430.105 251.474 424.974 254.779 419.953C262.378 408.406 271.561 412.392 282.87 417.3C294.289 422.256 307.875 428.152 324.187 419.953C338.822 412.596 341.342 399.676 343.544 388.39C345.327 379.252 346.901 371.186 354.526 368.01C375.572 359.246 387.279 368.959 404.353 383.126C418.7 395.031 436.839 410.081 467.494 419.953C480.521 424.148 493.616 423.146 506.28 418.625C470.892 439.838 428.609 449.364 402.736 427.55C364 394.89 343.685 411.81 324.182 428.053C312.75 437.575 301.597 446.864 287.176 445.799C276.111 444.982 265.222 440.555 254.846 434.968ZM249.222 489.19C261.208 495.999 273.547 501.916 286.144 506.942C274.384 508.337 261.386 500.545 249.222 489.19Z" fill="#F0F7F6"/>
</g>
</g>
<defs>
<clipPath id="clip0_388_8384">
<rect width="621" height="537" rx="30" fill="white"/>
</clipPath>
</defs>
</svg>
