<svg width="40" height="41" viewBox="0 0 40 41" fill="none" xmlns="http://www.w3.org/2000/svg">
<rect y="0.5" width="40" height="40" rx="20" fill="#F0F7F6"/>
<path fill-rule="evenodd" clip-rule="evenodd" d="M20.3904 11.5572C20.9111 11.0365 21.7554 11.0365 22.2761 11.5572L30.2761 19.5572C30.5261 19.8072 30.6666 20.1464 30.6666 20.5C30.6666 20.8536 30.5261 21.1928 30.2761 21.4428L22.2761 29.4428C21.7554 29.9635 20.9111 29.9635 20.3904 29.4428C19.8697 28.9221 19.8697 28.0779 20.3904 27.5572L26.1143 21.8333L10.6666 21.8333C9.93021 21.8333 9.33325 21.2364 9.33325 20.5C9.33325 19.7636 9.93021 19.1667 10.6666 19.1667H26.1143L20.3904 13.4428C19.8697 12.9221 19.8697 12.0779 20.3904 11.5572Z" fill="#068576"/>
</svg>
