<svg width="22" height="20" viewBox="0 0 22 20" fill="none" xmlns="http://www.w3.org/2000/svg">
<path fill-rule="evenodd" clip-rule="evenodd" d="M11.3904 1.05718C11.9111 0.536482 12.7554 0.536482 13.2761 1.05718L21.2761 9.05718C21.5261 9.30723 21.6666 9.64637 21.6666 9.99999C21.6666 10.3536 21.5261 10.6928 21.2761 10.9428L13.2761 18.9428C12.7554 19.4635 11.9111 19.4635 11.3904 18.9428C10.8697 18.4221 10.8697 17.5779 11.3904 17.0572L17.1143 11.3333L1.66659 11.3333C0.930206 11.3333 0.333252 10.7364 0.333252 9.99999C0.333252 9.26361 0.930206 8.66666 1.66659 8.66666H17.1143L11.3904 2.9428C10.8697 2.4221 10.8697 1.57788 11.3904 1.05718Z" fill="#068576"/>
</svg>
